<?xml version="1.0" standalone="no"?>
<!DOCTYPE svg PUBLIC "-//W3C//DTD SVG 20010904//EN"
 "http://www.w3.org/TR/2001/REC-SVG-20010904/DTD/svg10.dtd">
<svg version="1.0" xmlns="http://www.w3.org/2000/svg"
 width="126.000000pt" height="186.000000pt" viewBox="0 0 126.000000 186.000000"
 preserveAspectRatio="xMidYMid meet">
<metadata>
Created by potrace 1.14, written by Peter Selinger 2001-2017
</metadata>
<g transform="translate(0.000000,186.000000) scale(0.100000,-0.100000)"
fill="#000000" stroke="none">
<path d="M0 930 l0 -930 630 0 630 0 0 930 0 930 -630 0 -630 0 0 -930z m583
835 c4 -6 10 -5 16 3 7 11 9 10 14 -3 5 -10 3 -14 -5 -9 -7 5 -8 3 -4 -5 5 -7
14 -10 22 -7 13 5 18 -5 15 -32 -1 -7 4 -11 11 -10 7 2 12 -3 11 -9 -2 -7 1
-13 7 -13 6 0 10 -11 10 -23 0 -13 7 -39 17 -57 10 -22 16 -56 15 -101 -1 -60
1 -67 16 -63 12 4 13 3 5 -3 -9 -6 -11 -36 -8 -98 2 -50 4 -120 5 -157 1 -38
5 -68 8 -68 4 0 6 -40 4 -90 -2 -82 -1 -89 15 -84 11 4 14 3 7 -3 -6 -4 -11
-34 -11 -65 l0 -58 76 1 c52 0 70 3 56 9 -11 5 -14 9 -7 9 10 1 13 20 10 85
-2 46 0 82 3 80 4 -2 9 5 12 16 3 11 1 18 -4 14 -14 -9 -11 0 16 36 14 19 25
29 25 24 0 -6 -3 -14 -7 -20 -5 -5 -1 -3 7 6 40 40 134 -10 132 -70 0 -17 2
-30 6 -30 4 0 6 -19 6 -42 -1 -24 1 -47 4 -53 9 -15 8 -165 -1 -165 -4 0 -6
-22 -5 -48 4 -48 4 -48 -26 -44 -17 3 -26 1 -23 -5 4 -6 -12 -8 -38 -7 -25 1
-45 -1 -45 -5 0 -4 -20 -6 -45 -4 -25 2 -45 0 -45 -5 0 -4 -17 -6 -39 -4 l-39
4 2 -115 c0 -63 -2 -113 -5 -111 -4 2 -6 -69 -5 -159 l1 -162 -39 -2 c-21 0
-41 -5 -45 -10 -8 -10 -111 -11 -111 0 0 5 -4 6 -9 2 -14 -8 -24 13 -23 46 0
22 -3 27 -16 22 -11 -3 -13 -2 -5 4 12 9 17 113 5 113 -4 0 -6 36 -5 81 2 44
0 78 -5 75 -4 -2 -5 25 -4 60 2 35 0 64 -5 64 -8 0 -12 69 -13 278 0 111 -5
134 -23 116 -12 -12 -241 -8 -245 5 -2 6 -7 9 -12 6 -5 -3 -6 8 -4 25 3 16 2
30 -3 30 -4 0 -7 27 -6 60 1 33 -2 60 -6 60 -3 0 -5 19 -3 41 3 23 0 39 -4 36
-11 -7 -10 100 1 110 4 5 5 1 1 -7 -4 -8 1 -4 12 9 10 13 24 21 30 17 6 -3 14
-1 18 5 5 8 3 9 -7 4 -8 -5 -11 -5 -7 0 4 4 27 8 52 9 24 0 43 -1 40 -3 -2 -2
4 -10 14 -18 11 -10 12 -12 2 -8 -13 6 -13 5 0 -7 9 -7 14 -22 12 -33 -2 -14
-1 -16 6 -7 6 9 9 3 10 -20 0 -18 2 -54 3 -79 l3 -46 48 -2 c45 -1 48 1 48 25
0 14 -3 23 -7 21 -5 -3 -7 53 -6 124 1 71 -1 129 -5 129 -4 0 -6 53 -5 117 2
151 5 183 16 183 5 0 6 7 3 16 -3 9 -2 12 5 9 6 -4 9 1 7 11 -2 12 2 18 10 16
7 -1 12 5 10 15 -2 13 3 17 16 15 11 -2 15 1 11 7 -8 14 37 10 48 -4z m472
-703 c-3 -3 -11 0 -18 7 -9 10 -8 11 6 5 10 -3 15 -9 12 -12z"/>
</g>
</svg>
