<svg xmlns="http://www.w3.org/2000/svg" viewBox="0 0 50.98 50.98"><defs><style>.cls-1{fill:#88b7bc;}.cls-2{fill:#edf4f5;}.cls-3,.cls-4{fill:#82b4b9;}.cls-3{opacity:0.2;}.cls-4{opacity:0.33;}.cls-5{fill:#fff;opacity:0.6;}.cls-6{fill:#5599a0;}</style></defs><title>button_email_over</title><g id="Layer_2" data-name="Layer 2"><g id="ButtonText"><rect class="cls-1" width="50.98" height="50.98" rx="13.28" ry="13.28"/><rect class="cls-2" x="2.55" y="1.41" width="45.97" height="45.97" rx="11.97" ry="11.97"/><path class="cls-3" d="M3.91,40.95a12,12,0,0,0,10.61,6.44h22a12,12,0,0,0,12-12v-22A11.9,11.9,0,0,0,46.68,7C39.92,36.91,18.82,41.48,3.91,40.95Z"/><path class="cls-4" d="M43.13,7.35a10.59,10.59,0,0,1,1.16,4.81V31.75A10.65,10.65,0,0,1,33.64,42.4H14a10.61,10.61,0,0,1-7.49-3.08,10.64,10.64,0,0,0,9.49,5.84H35.64A10.65,10.65,0,0,0,46.29,34.51V14.92A10.61,10.61,0,0,0,43.13,7.35Z"/><path class="cls-5" d="M7.31,34.35V15.3A10.36,10.36,0,0,1,17.67,4.95H36.72a10.31,10.31,0,0,1,3.56.64,10.31,10.31,0,0,0-6.48-2.28H14.76A10.36,10.36,0,0,0,4.4,13.66V32.71a10.35,10.35,0,0,0,6.8,9.72A10.33,10.33,0,0,1,7.31,34.35Z"/><rect class="cls-5" x="9.06" y="13.87" width="33.45" height="21.63" rx="4.78" ry="4.78"/><rect class="cls-6" x="10.67" y="15.05" width="30.22" height="18.72" rx="4.23" ry="4.23"/><path class="cls-2" d="M37.12,30.76H14.44A1.44,1.44,0,0,1,13,29.32V19.53a1.44,1.44,0,0,1,2.27-1.18l9.93,7a1.44,1.44,0,0,0,1.69,0l9.38-6.91a1.44,1.44,0,0,1,2.3,1.16v9.72A1.44,1.44,0,0,1,37.12,30.76Z"/><path class="cls-2" d="M25.71,22.73l-8.11-5.49a.23.23,0,0,1,.13-.43h16.1a.23.23,0,0,1,.13.43l-8,5.49A.23.23,0,0,1,25.71,22.73Z"/></g></g></svg>