<svg xmlns="http://www.w3.org/2000/svg" viewBox="0 0 241.07 60.4"><defs><style>.cls-1{opacity:0.12;}.cls-2{fill:#63a1a8;opacity:0.7;}.cls-3,.cls-8{fill:#fff;}.cls-3{opacity:0.6;}.cls-4,.cls-5{fill:#82b4b9;}.cls-4{opacity:0.2;}.cls-5{opacity:0.33;}.cls-6{fill:#00d5ee;}.cls-7{fill:#41aade;}.cls-9{font-size:36px;fill:#408c94;font-family:BurbankBigCondensed-Medium, Burbank Big Condensed;}.cls-10{letter-spacing:0em;}.cls-11{letter-spacing:-0.02em;}.cls-12{letter-spacing:0em;}.cls-13{letter-spacing:-0.03em;}.cls-14{letter-spacing:0em;}</style></defs><title>button_design_over</title><g id="Layer_2" data-name="Layer 2"><g id="buttons_Over"><path class="cls-1" d="M226.07,51.83H0V60.4H220.59a14.81,14.81,0,0,0,14.93-13.21A12,12,0,0,1,226.07,51.83Z"/><path class="cls-2" d="M226.07,0H0V2.9H226.07a11.83,11.83,0,0,1,12,11.58V39.94a11.83,11.83,0,0,1-12,11.58H0v2.9H226.07a14.76,14.76,0,0,0,15-14.48V14.48A14.76,14.76,0,0,0,226.07,0Z"/><path class="cls-3" d="M226.07,1.23H0v50.6H226.07a12,12,0,0,0,12-12V13.23A12,12,0,0,0,226.07,1.23Z"/><path class="cls-4" d="M96.11,44.09C86,43.95,38.93,43.73,0,43.45v8.39H226.07a12,12,0,0,0,12-12V13.43C230.45,40.66,183.63,45.34,96.11,44.09Z"/><path class="cls-5" d="M230.14,6.48a10.8,10.8,0,0,1,1.07,4.67V34.83a11,11,0,0,1-10.92,10.92H0V50H223.9a11,11,0,0,0,10.92-10.92V15.43A10.92,10.92,0,0,0,230.14,6.48Z"/><path class="cls-3" d="M223.92,3.63H0V9.18H222.19a11.56,11.56,0,0,1,11.53,11.53l1.74-5.55A11.56,11.56,0,0,0,223.92,3.63Z"/></g><g id="icons_Over"><polygon class="cls-3" points="26.31 8.71 23.58 19.51 13.12 21.81 13.33 40.56 32.85 44.72 42.25 41.95 42.36 22.27 44.96 10.36 26.31 8.71"/><polygon class="cls-6" points="15.8 22.63 31.77 25.12 40.71 22.94 24.72 20.76 15.8 22.63"/><polygon class="cls-7" points="24.51 22.11 35.71 23.87 40.71 22.94 24.72 20.76 15.8 22.63 19.38 23.19 24.51 22.11"/><polygon class="cls-6" points="15.08 23.87 15.18 39.43 31.37 42.67 31.16 26.29 15.08 23.87"/><polygon class="cls-7" points="16.63 25.53 31.19 27.8 31.16 26.38 15.08 23.87 15.18 39.43 16.73 39.74 16.63 25.53"/><polygon class="cls-6" points="33.22 26.16 33.61 42.52 40.71 40.36 40.61 24.39 33.22 26.16"/><polygon class="cls-7" points="39.47 25.95 39.56 40.85 40.71 40.36 40.61 24.39 33.22 26.16 33.23 27.33 39.47 25.95"/><polygon class="cls-6" points="25.55 19.73 27.83 10.29 42.89 11.54 40.51 21.8 25.55 19.73"/><polygon class="cls-7" points="28.66 12.16 42.48 13.28 42.89 11.54 27.83 10.29 25.55 19.73 26.78 19.93 28.66 12.16"/><polygon class="cls-7" points="21.52 37.7 24.36 36.65 27.2 38.42 26.77 35.16 28.95 33.11 28.06 32.33 25.85 32.15 24.36 29.11 23.49 28.31 22.87 31.77 19.77 31.95 21.95 34.55 20.67 36.91 21.52 37.7"/><polygon class="cls-8" points="20.65 36.93 23.49 35.88 26.32 37.65 25.89 34.39 28.08 32.34 24.97 31.37 23.49 28.33 22 31 18.95 31.56 21.08 33.78 20.65 36.93"/></g><g id="ButtonText"><text class="cls-9" transform="translate(55.75 38.14)"><tspan class="cls-10">D</tspan><tspan x="11.88" y="0">esign Dri</tspan><tspan class="cls-11" x="91.58" y="0">v</tspan><tspan class="cls-12" x="101.3" y="0">e</tspan><tspan class="cls-13" x="112.68" y="0">-</tspan><tspan class="cls-12" x="118.8" y="0">Th</tspan><tspan class="cls-14" x="140.29" y="0">r</tspan><tspan x="148.21" y="0">u</tspan></text></g></g></svg>