<svg xmlns="http://www.w3.org/2000/svg" viewBox="0 0 62.58 54.42">
	<defs>
		<style>.cls-1{fill:#fff;opacity:0.6;}.cls-2{fill:#63a1a8;opacity:0.7;}.cls-3,.cls-4{fill:#82b4b9;}.cls-3{opacity:0.2;}.cls-4{opacity:0.33;}.cls-5{fill:#4d949b;}.cls-6{fill:#32848c;}
		</style>
	</defs>
	<title>button_brand</title>
	<g id="Layer_2" data-name="Layer 2">
		<g id="buttons">
			<path class="cls-1"
				d="M47.58,1.23H0v50.6H47.58a12,12,0,0,0,12-12V13.23A12,12,0,0,0,47.58,1.23Z" />
			<path class="cls-2"
				d="M47.58,0H0V2.9H47.58a11.83,11.83,0,0,1,12,11.58V39.94a11.83,11.83,0,0,1-12,11.58H0v2.9H47.58a14.76,14.76,0,0,0,15-14.48V14.48A14.76,14.76,0,0,0,47.58,0Z" />
			<path class="cls-3"
				d="M0,42v9.82H47.58a12,12,0,0,0,12-12V13.43C54.87,30.28,35.12,38.5,0,42Z" />
			<path class="cls-1"
				d="M45.44,3.63H0V9.18H43.7A11.56,11.56,0,0,1,55.23,20.71L57,15.16A11.56,11.56,0,0,0,45.44,3.63Z" />
			<path class="cls-4"
				d="M51.65,6.48a10.8,10.8,0,0,1,1.07,4.67V34.83A11,11,0,0,1,41.8,45.75H0V50H45.42A11,11,0,0,0,56.34,39.11V15.43A10.92,10.92,0,0,0,51.65,6.48Z" />
		</g>
		<g id="icons_Main">
			<circle class="cls-1" cx="29.04" cy="26.37" r="16.79" />
			<circle class="cls-5" cx="28.84" cy="25.97" r="14.04" />
			<path class="cls-6"
				d="M38.82,26.1C39.12,31.66,34.43,37.2,29,38a9.93,9.93,0,0,1-11.29-8.34c-.82-5.42,3-11.69,8.38-12.5S38.53,20.62,38.82,26.1Z" />
			<circle class="cls-1" cx="28.91" cy="25.85" r="9.93" />
			<circle class="cls-5" cx="28.84" cy="25.97" r="6.74" />
			<path class="cls-6"
				d="M27.83,21.53a6.69,6.69,0,0,1,6.55,8.27,6.73,6.73,0,1,0-12.08-5.36A6.72,6.72,0,0,1,27.83,21.53Z" />
			<path class="cls-6"
				d="M28.84,11.93A14,14,0,0,0,18,17,14,14,0,0,1,37.44,37a14,14,0,0,0-8.59-25.12Z" />
			<path class="cls-6"
				d="M32.21,26.49c0,1.86-2.05,4.19-3.92,4.19a3.38,3.38,0,0,1-3.38-3.38c0-1.86,1.21-4.38,3.08-4.38S32.21,24.62,32.21,26.49Z" />
			<circle class="cls-1" cx="28.84" cy="25.97" r="3.38" />
		</g>
	</g>
</svg>