<svg xmlns="http://www.w3.org/2000/svg" viewBox="0 0 62.58 54.42"><defs><style>.cls-1{fill:#fff;opacity:0.6;}.cls-2{fill:#63a1a8;opacity:0.7;}.cls-3,.cls-4{fill:#82b4b9;}.cls-3{opacity:0.2;}.cls-4{opacity:0.33;}.cls-5{fill:#4d949b;}.cls-6{fill:#32848c;}</style></defs><title>button_private</title><g id="Layer_2" data-name="Layer 2"><g id="buttons"><path class="cls-1" d="M47.58,1.23H0v50.6H47.58a12,12,0,0,0,12-12V13.23A12,12,0,0,0,47.58,1.23Z"/><path class="cls-2" d="M47.58,0H0V2.9H47.58a11.83,11.83,0,0,1,12,11.58V39.94a11.83,11.83,0,0,1-12,11.58H0v2.9H47.58a14.76,14.76,0,0,0,15-14.48V14.48A14.76,14.76,0,0,0,47.58,0Z"/><path class="cls-3" d="M0,42v9.82H47.58a12,12,0,0,0,12-12V13.43C54.87,30.28,35.12,38.5,0,42Z"/><path class="cls-1" d="M45.44,3.63H0V9.18H43.7A11.56,11.56,0,0,1,55.23,20.71L57,15.16A11.56,11.56,0,0,0,45.44,3.63Z"/><path class="cls-4" d="M51.65,6.48a10.8,10.8,0,0,1,1.07,4.67V34.83A11,11,0,0,1,41.8,45.75H0V50H45.42A11,11,0,0,0,56.34,39.11V15.43A10.92,10.92,0,0,0,51.65,6.48Z"/></g><g id="icons_Main"><path class="cls-1" d="M36.06,11.22l-.71,8-4.49-.8-3.7-6.92-3.7,6.92L16.1,19.7l-.21-.42-6.62.07,7.65,16.78h.23a4.2,4.2,0,0,0-.06.68,4.33,4.33,0,0,0,8.65,0,4.2,4.2,0,0,0-.06-.68h5.73a4.2,4.2,0,0,0-.06.68,4.33,4.33,0,0,0,8.65,0,4.2,4.2,0,0,0-.06-.68h.37l1.76-18,5.16.39,1.55-6Zm-8.9,18.55.07,0h-.15Zm7.24,0h-.65l-.6-4.36L35,23.53ZM21.17,25.42l-.48,3.49-4.13-8.29Z"/><path class="cls-5" d="M37.54,12.6,35.9,31l-15.76.07L14.88,20.52l-3.09,0L18,34.09h2.1a2.69,2.69,0,1,0,2.71,0H34.34a2.69,2.69,0,1,0,2.71,0h1.81L40.63,16l5.87.51.44-2.94Z"/><polygon class="cls-5" points="22.13 29.99 27.16 27.56 32.19 29.99 31.43 24.46 35.3 20.43 29.8 19.44 27.16 14.52 24.52 19.44 19.02 20.43 22.9 24.46 22.13 29.99"/><path class="cls-6" d="M29.8,19.44l-2.64-4.93L26,16.64l2.45,4.58,5.17.93,1.65-1.72Zm.31,6.8.41,2.94,1.68.81-.71-5.18Zm-9.81-4.49,2.91-.52,1.4-1.71L19,20.43Z"/><path class="cls-6" d="M21.63,35.35a2.67,2.67,0,0,1,1.11,3.38,2.68,2.68,0,0,0,1.37-2.33,2.61,2.61,0,0,0-.24-1.05l-.47-.77-.59-.48ZM30.56,31l-9.17,0H20.14L14.88,20.52l-3.09,0,.57,1.25h1.37L19,32.33l15.76-.07L35.88,31,31,31Zm6.52,3.1L35.9,35.35A2.67,2.67,0,0,1,37,38.74a2.68,2.68,0,0,0,1.37-2.33,2.83,2.83,0,0,0-.64-1.74Zm.47-21.52L37.42,14l8.37.82-.24,1.59.95.08.44-2.94Zm.29,21.49h1L40.63,16l-1.15,1.21Z"/></g></g></svg>