<svg xmlns="http://www.w3.org/2000/svg" viewBox="0 0 50.98 50.98"><defs><style>.cls-1{fill:#88b7bc;}.cls-2{fill:#edf4f5;}.cls-3,.cls-4{fill:#82b4b9;}.cls-3{opacity:0.2;}.cls-4{opacity:0.33;}.cls-5,.cls-6{fill:#fff;}.cls-5{opacity:0.6;}.cls-7{fill:#5599a0;}.cls-8{fill:#14727b;}</style></defs><title>button_twitter_over</title><g id="Layer_2" data-name="Layer 2"><g id="ButtonText"><rect class="cls-1" width="50.98" height="50.98" rx="13.28" ry="13.28"/><rect class="cls-2" x="2.55" y="1.41" width="45.97" height="45.97" rx="11.97" ry="11.97"/><path class="cls-3" d="M3.91,40.95a12,12,0,0,0,10.61,6.44h22a12,12,0,0,0,12-12v-22A11.9,11.9,0,0,0,46.68,7C39.92,36.91,18.82,41.48,3.91,40.95Z"/><path class="cls-4" d="M43.13,7.35a10.59,10.59,0,0,1,1.16,4.81V31.75A10.65,10.65,0,0,1,33.64,42.4H14a10.61,10.61,0,0,1-7.49-3.08,10.64,10.64,0,0,0,9.49,5.84H35.64A10.65,10.65,0,0,0,46.29,34.51V14.92A10.61,10.61,0,0,0,43.13,7.35Z"/><path class="cls-5" d="M7.31,34.35V15.3A10.36,10.36,0,0,1,17.67,4.95H36.72a10.31,10.31,0,0,1,3.56.64,10.31,10.31,0,0,0-6.48-2.28H14.76A10.36,10.36,0,0,0,4.4,13.66V32.71a10.35,10.35,0,0,0,6.8,9.72A10.33,10.33,0,0,1,7.31,34.35Z"/><path class="cls-6" d="M41.77,13.89a1.8,1.8,0,0,0-.56-.46l.06-.16a1.79,1.79,0,0,0-.22-1.62,1.75,1.75,0,0,0-1.43-.75,1.85,1.85,0,0,0-1,.2l-.33.17a9.47,9.47,0,0,1-2,.84A7.26,7.26,0,0,0,33,10.56a7.63,7.63,0,0,0-6.83,1.92,7.54,7.54,0,0,0-2.47,5,15.33,15.33,0,0,1-9.13-5.42,1.8,1.8,0,0,0-3,.42,8.18,8.18,0,0,0-.36,6.73,1.8,1.8,0,0,0-.61,1.45,8,8,0,0,0,2.18,5.36,1.8,1.8,0,0,0,0,1.25,8.27,8.27,0,0,0,2.82,3.79,10.64,10.64,0,0,1-4.14.39A1.89,1.89,0,0,0,9.6,32.63a1.8,1.8,0,0,0,.8,2.31l.5.27,1.1.59a17.64,17.64,0,0,0,4.49,1.57,18.33,18.33,0,0,0,3.88.39h.79a19,19,0,0,0,6.48-1.35,17.77,17.77,0,0,0,5.95-3.95,19.22,19.22,0,0,0,3.08-4,19.79,19.79,0,0,0,1.87-4.46,18.26,18.26,0,0,0,.7-5l.53-.45A13.22,13.22,0,0,0,41.88,16,1.8,1.8,0,0,0,41.77,13.89Z"/><path class="cls-7" d="M11.28,33.29A12.13,12.13,0,0,0,20,30.81a6.13,6.13,0,0,1-5.58-4.15c.47,0,.89.06,1.31,0A9.24,9.24,0,0,0,17,26.54a6.08,6.08,0,0,1-4.67-5.93,6.58,6.58,0,0,0,2.61.67c-2.65-2.2-3.23-4.85-1.8-8a17.2,17.2,0,0,0,12.38,6.3c0-.38-.09-.73-.11-1.07a5.77,5.77,0,0,1,1.91-4.7,5.83,5.83,0,0,1,5.28-1.47,5.55,5.55,0,0,1,3,1.6A.38.38,0,0,0,36,14a11.87,11.87,0,0,0,3.2-1.2l.27-.13h.08a6.16,6.16,0,0,1-2.46,3.19A10.78,10.78,0,0,0,40.38,15a11.43,11.43,0,0,1-1.84,2.15c-.29.27-.6.52-.91.76a.49.49,0,0,0-.21.45,16.21,16.21,0,0,1-.62,5.06,17.89,17.89,0,0,1-1.7,4.06,17.33,17.33,0,0,1-2.79,3.67A15.92,15.92,0,0,1,27,34.72a17.09,17.09,0,0,1-5.86,1.22,17.25,17.25,0,0,1-4.23-.34,16,16,0,0,1-4-1.41l-1.58-.84Z"/><path class="cls-8" d="M12.67,22.47c0,.08,0,.16.06.23l.2,0C12.84,22.64,12.76,22.55,12.67,22.47Zm-1.4,10.82,0,.06,1.58.84.55.26A12.32,12.32,0,0,0,18,32.25l-.3,0A12.14,12.14,0,0,1,11.28,33.29Zm25.83-17.4a6.16,6.16,0,0,0,2.46-3.19h-.08l-.27.13A11.87,11.87,0,0,1,36,14a.38.38,0,0,1-.41-.12,5.56,5.56,0,0,0-3-1.6,5.83,5.83,0,0,0-5.28,1.47c-.11.1-.21.21-.31.31a6,6,0,0,1,3.57-.34,5.56,5.56,0,0,1,3,1.6.38.38,0,0,0,.41.12,11.87,11.87,0,0,0,3.2-1.2l.27-.13h.08a6.16,6.16,0,0,1-2.46,3.19,10.78,10.78,0,0,0,3.27-.86,11.43,11.43,0,0,1-1.84,2.15c-.29.27-.6.52-.91.76a.49.49,0,0,0-.21.45,16.21,16.21,0,0,1-.62,5.06,17.88,17.88,0,0,1-1.7,4.06,17.33,17.33,0,0,1-2.79,3.67c-.33.33-.68.64-1,.93a16,16,0,0,0,3-2.37,17.33,17.33,0,0,0,2.79-3.67,17.89,17.89,0,0,0,1.7-4.06,16.21,16.21,0,0,0,.62-5.06.49.49,0,0,1,.21-.45c.31-.24.62-.49.91-.76A11.42,11.42,0,0,0,40.38,15,10.78,10.78,0,0,1,37.11,15.89ZM23.42,19.3a17.14,17.14,0,0,1-10.26-6,7.9,7.9,0,0,0-.73,2.82A17,17,0,0,0,23.52,21c0-.38-.09-.73-.11-1.07S23.41,19.51,23.42,19.3Z"/></g></g></svg>