<svg xmlns="http://www.w3.org/2000/svg" viewBox="0 0 164.9 60.4"><defs><style>.cls-1{opacity:0.12;}.cls-2,.cls-8{fill:#fff;}.cls-2{opacity:0.6;}.cls-3,.cls-4{fill:#82b4b9;}.cls-3{opacity:0.2;}.cls-4{opacity:0.33;}.cls-5{fill:#63a1a8;opacity:0.7;}.cls-6{fill:#00d5ee;}.cls-7{fill:#41aade;}.cls-9{font-size:36px;fill:#408c94;font-family:BurbankBigCondensed-Medium, Burbank Big Condensed;}.cls-10{letter-spacing:0em;}.cls-11{letter-spacing:0em;}</style></defs><title>button_about_over</title><g id="Layer_2" data-name="Layer 2"><g id="buttons_Over"><path class="cls-1" d="M149.9,51.83H0V60.4H144.42a14.81,14.81,0,0,0,14.93-13.21A12,12,0,0,1,149.9,51.83Z"/><path class="cls-2" d="M149.9,1.23H0v50.6H149.9a12,12,0,0,0,12-12V13.23A12,12,0,0,0,149.9,1.23Z"/><path class="cls-3" d="M19.94,44.09C16.67,44,9.5,44,0,43.93v7.91H149.9a12,12,0,0,0,12-12V13.43C154.29,40.66,107.46,45.34,19.94,44.09Z"/><path class="cls-4" d="M154,6.48A10.8,10.8,0,0,1,155,11.16V34.83a11,11,0,0,1-10.92,10.92H0V50H147.74a11,11,0,0,0,10.92-10.92V15.43A10.92,10.92,0,0,0,154,6.48Z"/><path class="cls-5" d="M149.9,0H0V2.9H149.9a11.83,11.83,0,0,1,12,11.58V39.94a11.83,11.83,0,0,1-12,11.58H0v2.9H149.9a14.76,14.76,0,0,0,15-14.48V14.48A14.76,14.76,0,0,0,149.9,0Z"/><path class="cls-2" d="M147.76,3.63H0V9.18H146a11.56,11.56,0,0,1,11.53,11.53l1.74-5.55A11.56,11.56,0,0,0,147.76,3.63Z"/></g><g id="icons_Over"><rect class="cls-2" x="14.28" y="11.96" width="29.52" height="29.52" rx="4.23" ry="4.23"/><rect class="cls-6" x="16.38" y="13.52" width="25.32" height="25.32" rx="3.63" ry="3.63"/><path class="cls-7" d="M38,13.52H20a3.67,3.67,0,0,0-3.62,3.14,3.61,3.61,0,0,1,1.65-.41h18a3.68,3.68,0,0,1,3.67,3.67v18a3.6,3.6,0,0,1-.05.53,3.67,3.67,0,0,0,2-3.26v-18A3.68,3.68,0,0,0,38,13.52Z"/><path class="cls-7" d="M26.23,20.06c0-1.32,1.36-3.28,2.78-3.28a2.82,2.82,0,0,1,2.62,2.65c0,1.27-1.81,2.83-3.25,2.83A1.93,1.93,0,0,1,26.23,20.06Zm4.63,2.63s.43,5.53.51,12.13c0,.21-1.24,1.08-1.24,1.29,0,0-1.46,0-3.45,0,0,0,0-3.37-.06-12.66,0,0,.6-.62,1.23-1.22Z"/><path class="cls-8" d="M27.47,18.82a1.94,1.94,0,0,1,2.15-2.13,1.93,1.93,0,0,1,2.09,2.13A2,2,0,0,1,29.63,21,1.93,1.93,0,0,1,27.47,18.82Zm.39,3.42s1.27,0,3.45,0c0,0,0,5.77.06,12.66,0,0-1.46,0-3.45,0C27.93,34.9,27.95,31.53,27.86,22.24Z"/></g><g id="ButtonText"><text class="cls-9" transform="translate(55.75 38.14)">A<tspan class="cls-10" x="11.45" y="0">bo</tspan><tspan x="35.06" y="0">ut </tspan><tspan class="cls-11" x="60.55" y="0">U</tspan><tspan x="72.18" y="0">s</tspan></text></g></g></svg>