<svg xmlns="http://www.w3.org/2000/svg" viewBox="0 0 225.28 60.4"><defs><style>.cls-1{opacity:0.12;}.cls-2{fill:#63a1a8;opacity:0.7;}.cls-3,.cls-8{fill:#fff;}.cls-3{opacity:0.6;}.cls-4,.cls-5{fill:#82b4b9;}.cls-4{opacity:0.2;}.cls-5{opacity:0.33;}.cls-6{fill:#00d5ee;}.cls-7{fill:#41aade;}.cls-9{font-size:36px;fill:#408c94;font-family:BurbankBigCondensed-Medium, Burbank Big Condensed;}.cls-10{letter-spacing:0em;}.cls-11{letter-spacing:0em;}</style></defs><title>button_animation_over</title><g id="Layer_2" data-name="Layer 2"><g id="buttons_Over"><path class="cls-1" d="M210.28,51.83H0V60.4H204.8a14.81,14.81,0,0,0,14.93-13.21A12,12,0,0,1,210.28,51.83Z"/><path class="cls-2" d="M210.28,0H0V2.9H210.28a11.83,11.83,0,0,1,12,11.58V39.94a11.83,11.83,0,0,1-12,11.58H0v2.9H210.28a14.76,14.76,0,0,0,15-14.48V14.48A14.76,14.76,0,0,0,210.28,0Z"/><path class="cls-3" d="M210.28,1.23H0v50.6H210.28a12,12,0,0,0,12-12V13.23A12,12,0,0,0,210.28,1.23Z"/><path class="cls-4" d="M80.31,44.09C71.55,44,35,43.78,0,43.56v8.28H210.28a12,12,0,0,0,12-12V13.43C214.66,40.66,167.84,45.34,80.31,44.09Z"/><path class="cls-5" d="M214.34,6.48a10.8,10.8,0,0,1,1.07,4.67V34.83a11,11,0,0,1-10.92,10.92H0V50H208.11A11,11,0,0,0,219,39.11V15.43A10.92,10.92,0,0,0,214.34,6.48Z"/><path class="cls-3" d="M208.13,3.63H0V9.18H206.4a11.56,11.56,0,0,1,11.53,11.53l1.74-5.55A11.56,11.56,0,0,0,208.13,3.63Z"/></g><g id="icons_Over"><path class="cls-3" d="M39.91,9.36s-11.15,1.3-16.83,14.43l-5.8.58-2.38,9.46,4.92.7c-.13.65-.34,1.93-.55,3.19,0,0,5.07,6,10.73,5.51,0,0,1.16-1.14,2.43-2.57l3.07,3.46,6.11-9.33-1.7-4.47C42.84,25.25,45.46,16.64,39.91,9.36Z"/><path class="cls-6" d="M38.77,11.38s-9.3,1.46-14.73,14l-5,.55-1.83,6.77,4.44.19c-.23,1-.44,2.07-.62,3.18,0,0,3.64,5.2,8.62,4.73,0,0,1-1,2.46-2.68L35,41.31l4-6.51-1.73-4C40.73,24.95,43.07,17.54,38.77,11.38Z"/><path class="cls-7" d="M21,36.07s.12.18.36.46q.17-.86.35-1.68L21.65,33C21.58,33.41,21.1,35.65,21,36.07ZM38.77,11.38s-9.3,1.46-14.73,14l-5,.55-1.83,6.77.61,0,1.3-4.84,5-.55c5.43-12.53,14.73-14,14.73-14a12.7,12.7,0,0,1,2.24,5.88A12.91,12.91,0,0,0,38.77,11.38Zm-.13,24.14.45-.72-1.8-4c-.14.26.3,1.7.16,1.95Z"/><circle class="cls-7" cx="34.52" cy="21.92" r="2.47" transform="translate(-5.73 29.13) rotate(-42.56)"/><circle class="cls-8" cx="34.13" cy="20.91" r="2.47" transform="translate(-5.15 28.59) rotate(-42.56)"/></g><g id="ButtonText"><text class="cls-9" transform="translate(55.75 38.14)">Animation<tspan class="cls-10" x="93.17" y="0"> </tspan><tspan x="98.57" y="0">All</tspan><tspan class="cls-10" x="120.67" y="0">e</tspan><tspan class="cls-11" x="131.87" y="0">y</tspan></text></g></g></svg>