<svg xmlns="http://www.w3.org/2000/svg" viewBox="0 0 62.58 54.42"><defs><style>.cls-1{fill:#fff;opacity:0.6;}.cls-2{fill:#63a1a8;opacity:0.7;}.cls-3,.cls-4{fill:#82b4b9;}.cls-3{opacity:0.2;}.cls-4{opacity:0.33;}.cls-5{fill:#4d949b;}.cls-6{fill:#32848c;}</style></defs><title>button_design</title><g id="Layer_2" data-name="Layer 2"><g id="buttons"><path class="cls-1" d="M47.58,1.23H0v50.6H47.58a12,12,0,0,0,12-12V13.23A12,12,0,0,0,47.58,1.23Z"/><path class="cls-2" d="M47.58,0H0V2.9H47.58a11.83,11.83,0,0,1,12,11.58V39.94a11.83,11.83,0,0,1-12,11.58H0v2.9H47.58a14.76,14.76,0,0,0,15-14.48V14.48A14.76,14.76,0,0,0,47.58,0Z"/><path class="cls-3" d="M0,42v9.82H47.58a12,12,0,0,0,12-12V13.43C54.87,30.28,35.12,38.5,0,42Z"/><path class="cls-1" d="M45.44,3.63H0V9.18H43.7A11.56,11.56,0,0,1,55.23,20.71L57,15.16A11.56,11.56,0,0,0,45.44,3.63Z"/><path class="cls-4" d="M51.65,6.48a10.8,10.8,0,0,1,1.07,4.67V34.83A11,11,0,0,1,41.8,45.75H0V50H45.42A11,11,0,0,0,56.34,39.11V15.43A10.92,10.92,0,0,0,51.65,6.48Z"/></g><g id="icons_Main"><polygon class="cls-1" points="26.31 8.38 23.58 19.18 13.12 21.48 13.33 40.23 32.85 44.39 42.25 41.63 42.36 21.94 44.96 10.04 26.31 8.38"/><polygon class="cls-5" points="15.8 22.3 31.77 24.79 40.71 22.61 24.72 20.43 15.8 22.3"/><polygon class="cls-6" points="24.51 21.78 35.71 23.54 40.71 22.61 24.72 20.43 15.8 22.3 19.38 22.86 24.51 21.78"/><polygon class="cls-5" points="15.08 23.55 15.18 39.1 31.37 42.35 31.16 25.96 15.08 23.55"/><polygon class="cls-6" points="16.63 25.2 31.19 27.47 31.16 26.05 15.08 23.55 15.18 39.1 16.73 39.41 16.63 25.2"/><polygon class="cls-5" points="33.22 25.83 33.61 42.19 40.71 40.03 40.61 24.06 33.22 25.83"/><polygon class="cls-6" points="39.47 25.62 39.56 40.53 40.71 40.03 40.61 24.06 33.22 25.83 33.23 27 39.47 25.62"/><polygon class="cls-5" points="25.55 19.4 27.83 9.96 42.89 11.21 40.51 21.47 25.55 19.4"/><polygon class="cls-6" points="28.66 11.83 42.48 12.96 42.89 11.21 27.83 9.96 25.55 19.4 26.78 19.6 28.66 11.83"/><polygon class="cls-6" points="21.52 37.38 24.36 36.33 27.2 38.09 26.77 34.84 28.95 32.78 28.06 32 25.85 31.82 24.36 28.78 23.49 27.98 22.87 31.44 19.77 31.62 21.95 34.23 20.67 36.59 21.52 37.38"/><polygon class="cls-1" points="20.65 36.6 23.49 35.55 26.32 37.32 25.89 34.06 28.08 32.01 24.97 31.04 23.49 28 22 30.67 18.95 31.23 21.08 33.45 20.65 36.6"/></g></g></svg>