<svg xmlns="http://www.w3.org/2000/svg" viewBox="0 0 62.58 54.42"><defs><style>.cls-1{fill:#fff;opacity:0.6;}.cls-2{fill:#63a1a8;opacity:0.7;}.cls-3,.cls-4{fill:#82b4b9;}.cls-3{opacity:0.2;}.cls-4{opacity:0.33;}.cls-5{fill:#4d949b;}.cls-6{fill:#32848c;}</style></defs><title>button_animation</title><g id="Layer_2" data-name="Layer 2"><g id="buttons"><path class="cls-1" d="M47.58,1.23H0v50.6H47.58a12,12,0,0,0,12-12V13.23A12,12,0,0,0,47.58,1.23Z"/><path class="cls-2" d="M47.58,0H0V2.9H47.58a11.83,11.83,0,0,1,12,11.58V39.94a11.83,11.83,0,0,1-12,11.58H0v2.9H47.58a14.76,14.76,0,0,0,15-14.48V14.48A14.76,14.76,0,0,0,47.58,0Z"/><path class="cls-3" d="M0,42v9.82H47.58a12,12,0,0,0,12-12V13.43C54.87,30.28,35.12,38.5,0,42Z"/><path class="cls-1" d="M45.44,3.63H0V9.18H43.7A11.56,11.56,0,0,1,55.23,20.71L57,15.16A11.56,11.56,0,0,0,45.44,3.63Z"/><path class="cls-4" d="M51.65,6.48a10.8,10.8,0,0,1,1.07,4.67V34.83A11,11,0,0,1,41.8,45.75H0V50H45.42A11,11,0,0,0,56.34,39.11V15.43A10.92,10.92,0,0,0,51.65,6.48Z"/></g><g id="icons_Main"><path class="cls-1" d="M39.91,9s-11.15,1.3-16.83,14.43l-5.8.58L14.91,33.5l4.92.7c-.13.65-.34,1.93-.55,3.19,0,0,5.07,6,10.73,5.51,0,0,1.16-1.14,2.43-2.57l3.07,3.46,6.11-9.33L39.92,30C42.84,24.93,45.46,16.31,39.91,9Z"/><path class="cls-5" d="M38.77,11.06s-9.3,1.46-14.73,14l-5,.55-1.83,6.77,4.44.19c-.23,1-.44,2.07-.62,3.18,0,0,3.64,5.2,8.62,4.73,0,0,1-1,2.46-2.68L35,41l4-6.51-1.73-4C40.73,24.62,43.07,17.21,38.77,11.06Z"/><path class="cls-6" d="M21,35.75s.12.18.36.46q.17-.86.35-1.68l-.08-1.85C21.58,33.08,21.1,35.32,21,35.75ZM38.77,11.06s-9.3,1.46-14.73,14l-5,.55-1.83,6.77.61,0,1.3-4.84,5-.55c5.43-12.53,14.73-14,14.73-14a12.7,12.7,0,0,1,2.24,5.88A12.91,12.91,0,0,0,38.77,11.06Zm-.13,24.14.45-.72-1.8-4c-.14.26.3,1.7.16,1.95Z"/><circle class="cls-6" cx="34.52" cy="21.6" r="2.47" transform="translate(-5.51 29.04) rotate(-42.56)"/><circle class="cls-1" cx="34.13" cy="20.58" r="2.47" transform="translate(-4.93 28.51) rotate(-42.56)"/></g></g></svg>