<svg xmlns="http://www.w3.org/2000/svg" viewBox="0 0 156.4 60.4"><defs><style>.cls-1{opacity:0.12;}.cls-2{fill:#63a1a8;opacity:0.7;}.cls-3,.cls-8{fill:#fff;}.cls-3{opacity:0.6;}.cls-4,.cls-5{fill:#82b4b9;}.cls-4{opacity:0.2;}.cls-5{opacity:0.33;}.cls-6{fill:#00d5ee;}.cls-7{fill:#41aade;}.cls-9{fill:#32848c;}.cls-10{font-size:36px;fill:#408c94;font-family:BurbankBigCondensed-Medium, Burbank Big Condensed;}.cls-11{letter-spacing:0em;}.cls-12{letter-spacing:0em;}</style></defs><title>button_contact_over</title><g id="Layer_2" data-name="Layer 2"><g id="buttons_Over"><path class="cls-1" d="M141.4,51.83H0V60.4H135.92a14.81,14.81,0,0,0,14.93-13.21A12,12,0,0,1,141.4,51.83Z"/><path class="cls-2" d="M141.4,0H0V2.9H141.4a11.83,11.83,0,0,1,12,11.58V39.94a11.83,11.83,0,0,1-12,11.58H0v2.9H141.4a14.76,14.76,0,0,0,15-14.48V14.48A14.76,14.76,0,0,0,141.4,0Z"/><path class="cls-3" d="M141.4,1.23H0v50.6H141.4a12,12,0,0,0,12-12V13.23A12,12,0,0,0,141.4,1.23Z"/><path class="cls-4" d="M11.44,44.09C9.23,44.06,5.26,44,0,44v7.85H141.4a12,12,0,0,0,12-12V13.43C145.79,40.66,99,45.34,11.44,44.09Z"/><path class="cls-5" d="M145.47,6.48a10.8,10.8,0,0,1,1.07,4.67V34.83a11,11,0,0,1-10.92,10.92H0V50H139.24a11,11,0,0,0,10.92-10.92V15.43A10.92,10.92,0,0,0,145.47,6.48Z"/><path class="cls-3" d="M139.26,3.63H0V9.18H137.52A11.56,11.56,0,0,1,149,20.71l1.74-5.55A11.56,11.56,0,0,0,139.26,3.63Z"/></g><g id="icons_Over"><path class="cls-3" d="M49,22.48C49,15.94,40,10.64,29,10.64S9.11,15.94,9.11,22.48,18,34.27,28.89,34.32v9.76l8-10.71C44,31.57,49,27.37,49,22.48Z"/><path class="cls-6" d="M46,22.75c0-5.3-7.49-9.59-16.74-9.59S12.5,17.45,12.5,22.75,20,32.34,29.24,32.34c.55,0,1.09,0,1.62,0v5.48l4.56-6.12C41.6,30.25,46,26.8,46,22.75Z"/><path class="cls-7" d="M29.24,13.16c-5.28,0-10,1.4-13,3.59a25.32,25.32,0,0,1,10.54-2.14c9.24,0,16.74,4.29,16.74,9.59,0,2.26-1.37,4.34-3.66,6C43.57,28.42,46,25.75,46,22.75,46,17.45,38.48,13.16,29.24,13.16Zm1.62,22.7v1.92l4.55-6.12a17.32,17.32,0,0,1-2,.77Z"/><path class="cls-7" d="M20.66,23.6c.34,0,.37-.79.65-.83,1.91-.28,2.63-.43,2.63-1.78,0-1.66-.55-2.44-1.55-2.44-1.33,0-1,.62-.78,2.53,0,.12-.6.74-.58.87s-.75.05-2.16.07c-.42-3,.44-5.11,3.68-5.11,2.5,0,3.67,1.81,3.67,3.89,0,2.38-1.28,3.25-3.39,3.63,0,.82,0,2.08,0,2.08-1.3,0-2.14,0-2.14,0C20.74,24.94,20.66,23.6,20.66,23.6Zm-.5,4.72a1.72,1.72,0,0,1,1.49-1.66c1,0,2.17.71,2.17,1.36s-1.07,1.44-2,1.44S20.16,29,20.16,28.32Z"/><path class="cls-7" d="M27.35,28.22a1.8,1.8,0,0,1,1.56-1.74c1,0,2.08.61,2.08,1.28S29.9,29.3,28.93,29.3,27.35,28.87,27.35,28.22Zm.39-10.38A3,3,0,0,1,28.4,17c.25-.15,1.18.85,1.69.84a67.44,67.44,0,0,1,.35,7.66c0,.16-.54.68-.54.84,0,0-.69,0-1.83,0C28.07,26.32,28,22,27.74,17.84Z"/><path class="cls-8" d="M21.25,22.78c2.69-.12,3.27-1.07,3.27-2.61S24,17.73,23,17.73c-1.42,0-1.64,1.26-1.36,3.4,0,0-.75.05-2.16.07-.42-3,.47-4.55,3.72-4.55,2.5,0,3.63,1.26,3.63,3.33,0,2.38-1.28,3.25-3.39,3.63,0,.82,0,2.08,0,2.08-1.3,0-2.14,0-2.14,0C21.34,24.12,21.25,22.78,21.25,22.78Zm-.5,4.72c0-.64.69-1,1.58-1s1.58.42,1.58,1.07-.58,1.09-1.53,1.09S20.75,28.2,20.75,27.5Z"/><path class="cls-7" d="M33.47,23.6c.34,0,.37-.79.65-.83,1.91-.28,2.63-.43,2.63-1.78,0-1.66-.55-2.44-1.55-2.44-1.33,0-1,.62-.78,2.53,0,.12-.6.74-.58.87s-.75.05-2.16.07c-.42-3,.44-5.11,3.68-5.11,2.5,0,3.67,1.81,3.67,3.89,0,2.38-1.28,3.25-3.39,3.63,0,.82,0,2.08,0,2.08-1.3,0-2.14,0-2.14,0C33.55,24.94,33.47,23.6,33.47,23.6ZM33,28.32a1.72,1.72,0,0,1,1.49-1.66c1,0,2.17.71,2.17,1.36s-1.07,1.44-2,1.44S33,29,33,28.32Z"/><path class="cls-8" d="M34.06,22.78c2.69-.12,3.27-1.07,3.27-2.61s-.55-2.44-1.55-2.44c-1.42,0-1.64,1.26-1.36,3.4,0,0-.75.05-2.16.07-.42-3,.47-4.55,3.72-4.55,2.5,0,3.63,1.26,3.63,3.33,0,2.38-1.28,3.25-3.39,3.63,0,.82,0,2.08,0,2.08-1.3,0-2.14,0-2.14,0C34.15,24.12,34.06,22.78,34.06,22.78Zm-.5,4.72c0-.64.69-1,1.58-1s1.58.42,1.58,1.07-.58,1.09-1.53,1.09S33.56,28.2,33.56,27.5Z"/><path class="cls-8" d="M27.94,27.4c0-.67.64-1.05,1.58-1.05s1.58.44,1.58,1.1-.61,1-1.58,1S27.94,28.05,27.94,27.4ZM28.33,17s.89,0,2.36,0c0,0-.11,4.62-.19,8.5,0,0-.69,0-1.83,0C28.66,25.51,28.55,21.14,28.33,17Z"/><path class="cls-9" d="M28.07,23.88"/></g><g id="ButtonText"><text class="cls-10" transform="translate(55.75 38.14)">Con<tspan class="cls-11" x="34.85" y="0">t</tspan><tspan class="cls-12" x="43.13" y="0">act</tspan></text></g></g></svg>