<svg xmlns="http://www.w3.org/2000/svg" viewBox="0 0 682.57 589.2"><defs><style>.cls-1{fill:#2d8189;}.cls-2{fill:#82b4b9;}.cls-3{fill:#0b6d76;}.cls-4{opacity:0.27;}.cls-5{fill:#fff;}</style></defs><title>button_backdoor</title><g id="Layer_2" data-name="Layer 2"><g id="ButtonText"><polygon class="cls-1" points="516.16 443.84 0 536.2 127 589.2 532.97 451.68 516.16 443.84"/><polygon class="cls-2" points="682.57 288.65 671.88 297.74 637.84 304.5 623.01 300.91 659.05 287.57 547.89 259.56 556.19 258.43 682.57 288.65"/><polygon class="cls-2" points="552.33 393.87 601.59 385.13 592.07 381.77 544.35 391.59 552.33 393.87"/><polygon class="cls-2" points="593.93 349.95 640.92 342.25 631 338.92 586.66 347.5 593.93 349.95"/><polygon class="cls-1" points="544.19 18.1 659.07 0.61 663.67 285.52 549.49 256.14 544.19 18.1"/><polygon class="cls-3" points="663.36 285.52 669.65 281.43 667.32 3.19 658.95 0 663.36 285.52"/><path class="cls-3" d="M547.06,52.26s-3.26-.45-4.53.45l1.08,18.54s1,.78,4.31-.11C547.92,71.13,546.88,51.59,547.06,52.26Z"/><path class="cls-3" d="M546,196.2s1.62-1.14,6,.46l-.47,21.54s-1.21,1.25-4.71.23Z"/><polygon class="cls-3" points="638.5 134.51 642.91 178.24 655.49 179.5 655.18 133.56 638.5 134.51"/><ellipse class="cls-1" cx="647" cy="146.46" rx="3.15" ry="4.4"/><path class="cls-3" d="M650.46,136.71s-3.46,0-2.83-6.61l-12.27.94s-.94,7.55,4.72,7.55Z"/><g class="cls-4"><path class="cls-5" d="M572.55,88.13c1,.23,2.14-1.53,2.54-3.95,0-.15.17-.17.21-.1a2.65,2.65,0,0,1,.22,1.31c0,1.48-.67,4.12-2.94,3.73s-3.79-3.52-4.22-10.23c-.34-5.6.36-13.25,2.81-10.77s1.85,11.64-.84,14.64C570.89,86.19,571.75,88,572.55,88.13Zm-1.93-19c-.58-.24-1,4.41-.75,8.95.07,1.37.2,2.58.32,3.68C572.24,77.62,571.31,69.37,570.62,69.11Z"/><path class="cls-5" d="M577.23,87.48c1.41.33,3.43-1.22,4-3.91,0-.23.2-.24.25-.06a2.56,2.56,0,0,1,.12,1.06c-.23,2.73-2.21,4.35-4.54,3.71-1.22-.35-3.16-2.11-2.91-5.66.27-4,2.16-5.8,3.7-4.93a3.34,3.34,0,0,1,1.5,3.62,4.48,4.48,0,0,1-3.48,3.86C576.13,86.52,576.7,87.35,577.23,87.48Zm.21-9c-.71-.11-1.86,2.05-1.81,4.87a7.45,7.45,0,0,0,.1,1.25C578.46,83.67,578.39,78.59,577.45,78.44Z"/><path class="cls-5" d="M593.71,84.7c-1.14-6.15-2-15.12-1.43-19.85a1.72,1.72,0,0,1,.91-1.55c.25-.1.26,0,.24.2a95,95,0,0,0,2.28,22.91,14.07,14.07,0,0,0,3.46.07c3-.28,6.53-2.08,6.48-5.3,0-2.52-2.19-4.14-4.77-4.64a12,12,0,0,1-4.83.67c-.93,0-1.24-.46-.72-1.15a4.19,4.19,0,0,1,2.79-1,11,11,0,0,1,2.31.08c2.79-1,5.93-3.2,5.41-6.67-.66-4.46-6.19-6.79-11.41-6.38s-8.32,2.67-8.89,5c-.65,2.59,1.55,4.73,5.33,5,.3,0,.36.22.12.4a3.85,3.85,0,0,1-2.52.38c-2.89-.28-5-2.66-3.88-6.37.76-2.61,3.83-5.79,10-6.12,6.94-.37,11.92,3.21,12.34,8.14.26,3.13-1.57,5.74-4.34,7.26a6.11,6.11,0,0,1,4,5.36c.06,3.37-2.47,6.35-7.35,6.91a9.69,9.69,0,0,1-6.91-1.48A2.94,2.94,0,0,1,591.18,85c0-.29.07-.34.35-.19a11.14,11.14,0,0,0,2.88,1.29A2.6,2.6,0,0,1,593.71,84.7Z"/><path class="cls-5" d="M613.94,74.48c.18-.06.26,0,.24.2-.53,4,.28,8.43,1.14,8.52.49.06,1.45-1.38,1.51-3.58,0-.11,0-.22.18-.05a1.75,1.75,0,0,1,.41,1.1c.26,2.42-.69,3.9-2.22,3.5a2.86,2.86,0,0,1-1.94-2.2c-.23,2-1.08,3.38-3,2.88-1.45-.36-2.79-2.11-2.29-5.8.54-4,2.47-5.68,4.07-4.93a2.62,2.62,0,0,1,1.13,1.14A1.29,1.29,0,0,1,613.94,74.48Zm-2.37.37c-.75-.1-2.06,2.26-2.21,5-.16,3,.71,4.15,1.38,4.23.94.08,2.26-2.43,2-6.56C612.64,75.88,612.14,74.93,611.57,74.84Z"/><path class="cls-5" d="M623.91,80.27c-.24,2.25-1.67,4.15-4,3.77-1.78-.29-3.35-1.83-3.41-5.53-.06-4.33,1.87-6.43,3.47-5.64a2.92,2.92,0,0,1,1.73,2.3c.15,1.39-.54,2.25-1.12,2.35-.22,0-.26,0-.24-.12.46-1.9,0-3.82-.67-3.82-.78,0-1.83,2.68-1.62,5.63.16,2.13.79,3.59,1.65,3.9,1.7.63,3.46-2,3.87-4.05.05-.23.19-.28.29-.1A2.35,2.35,0,0,1,623.91,80.27Z"/><path class="cls-5" d="M625.8,71.94a1.81,1.81,0,0,1,2.91-.2c1.85,1.69,1.66,5.46-1.32,7.38.45,1.77,1.29,3,2,3.16,1,.22,2.45-1.34,2.81-4.24,0-.19.16-.2.25-.1a1.63,1.63,0,0,1,.25.94c.18,2.69-1.11,4.5-3.28,4.32-1.61-.12-3.07-1.6-3.62-4a.61.61,0,0,1,.23-.65c2.7-1.78,3-5.26,2.08-6.16-1.33-1.3-4.26,4.21-2.35,11.31.06.22,0,.3-.3.29a2,2,0,0,1-1.57-1.8,67.85,67.85,0,0,1-1.17-18.47,1.83,1.83,0,0,1,.87-1.54c.22-.06.27,0,.24.2a98.71,98.71,0,0,0,.54,14A8.41,8.41,0,0,1,625.8,71.94Z"/><path class="cls-5" d="M590.42,117c6.45-.73,9-5.35,8.07-11.56-1.38-9.39-8.19-13.37-14.62-12.42-3.87.56-6.54,2.37-7.07,4.66-.61,2.59,1.55,4.73,5.29,5,.3,0,.39.22.15.39a3.89,3.89,0,0,1-2.52.38c-2.92-.28-5-2.69-3.92-6.41.7-2.45,3.41-5.19,8-5.87,8.59-1.26,15.13,5.05,16,14.05.65,6.76-2,12.5-9.06,13.37a10.27,10.27,0,0,1-7.1-1.46,3.18,3.18,0,0,1-1.2-1.5c0-.29,0-.33.31-.18a13,13,0,0,0,3.06,1.23,2.49,2.49,0,0,1-.71-1.41c-1.18-6.14-1.92-15.12-1.43-19.85a1.79,1.79,0,0,1,.91-1.55c.28-.14.26,0,.24.2A96.73,96.73,0,0,0,587.16,117,12.92,12.92,0,0,0,590.42,117Z"/><path class="cls-5" d="M612.14,114.26c-1.67-.38-3.15-2-3.11-5.45a8.34,8.34,0,0,1,.18-1.43,4.93,4.93,0,0,1-1.64,1.66c.82,4.21-.78,6.54-3,6-1.6-.35-3.15-2-3.07-5.46.06-2.23.85-4.21,1.85-4.87a.81.81,0,0,1,1,.19c1-.29,2.32.86,3,3.13a7.62,7.62,0,0,0,2.67-3.14,2.34,2.34,0,0,1,.82-1,.85.85,0,0,1,1.06.18c.93-.29,2.28.83,3,3.1a6.38,6.38,0,0,0,.47-.46c.16-.2.25-.14.26,0a2,2,0,0,1-.49,1.35C615.93,112.33,614.3,114.77,612.14,114.26Zm-8.67-7.08a10.1,10.1,0,0,0-.41,3c0,2.82,1.33,4.09,1.85,4.14,1,.11,1.79-2,1.45-4.83A2.64,2.64,0,0,1,603.47,107.18Zm1-.29a1.93,1.93,0,0,0,1.72,1.49c-.35-1.52-1-2.75-1.63-2.72C604.16,105.66,604.23,106.36,604.44,106.89Zm6.55-.52a10,10,0,0,0-.41,3c0,2.82,1.33,4.09,1.86,4.14,1,.11,1.79-2,1.45-4.83A2.74,2.74,0,0,1,611,106.37Zm2.69,1.23c-.35-1.56-1-2.79-1.6-2.8S612.08,107.55,613.68,107.6Z"/><path class="cls-5" d="M620.79,102.57c.12-.24.35-.22.55-.06a1.44,1.44,0,0,1,.62,1.64c-1,2.85-1.1,8.1.37,8.57.66.23,1.76-.93,2.21-3.91,0-.33.12-.27.29-.1a2.09,2.09,0,0,1,.16,1.13c-.05,2.94-1.21,4.25-2.62,3.92-2.24-.5-3.38-3.79-2.26-8.59a4.48,4.48,0,0,1-2,.66l-.29,0c.17,2.62,0,6.19.58,8.51.06.21,0,.3-.31.25-.53-.13-1.11-.62-1.27-1.79-.3-2.16.13-4.69,0-7.13a2.09,2.09,0,0,1-1.29-2c-.11-1.73.7-2.49,1.17-2.28s.83,1.54,1,3.3A4.26,4.26,0,0,0,620.79,102.57Z"/></g></g></g></svg>