<svg xmlns="http://www.w3.org/2000/svg" viewBox="0 0 53.38 55.06"><defs><style>.cls-1{opacity:0.12;}.cls-2{fill:#88b7bc;}.cls-3{fill:#edf4f5;}.cls-4,.cls-5{fill:#82b4b9;}.cls-4{opacity:0.2;}.cls-5{opacity:0.33;}.cls-6{fill:#fff;opacity:0.6;}.cls-7{fill:#5599a0;}</style></defs><title>button_email</title><g id="Layer_2" data-name="Layer 2"><g id="ButtonText"><rect class="cls-1" y="3.48" width="51.59" height="51.59" rx="13.44" ry="13.44"/><rect class="cls-2" x="2.41" width="50.98" height="50.98" rx="13.28" ry="13.28"/><rect class="cls-3" x="4.95" y="1.41" width="45.97" height="45.97" rx="11.97" ry="11.97"/><path class="cls-4" d="M6.32,40.95a12,12,0,0,0,10.61,6.44h22a12,12,0,0,0,12-12v-22A11.9,11.9,0,0,0,49.08,7C42.33,36.91,21.22,41.48,6.32,40.95Z"/><path class="cls-5" d="M45.53,7.35a10.59,10.59,0,0,1,1.16,4.81V31.75A10.65,10.65,0,0,1,36,42.4H16.45A10.61,10.61,0,0,1,9,39.32a10.64,10.64,0,0,0,9.49,5.84H38A10.65,10.65,0,0,0,48.7,34.51V14.92A10.61,10.61,0,0,0,45.53,7.35Z"/><path class="cls-6" d="M9.72,34.35V15.3A10.36,10.36,0,0,1,20.08,4.95H39.13a10.31,10.31,0,0,1,3.56.64,10.31,10.31,0,0,0-6.48-2.28H17.16A10.36,10.36,0,0,0,6.81,13.66V32.71a10.35,10.35,0,0,0,6.8,9.72A10.33,10.33,0,0,1,9.72,34.35Z"/><rect class="cls-6" x="11.47" y="13.87" width="33.45" height="21.63" rx="4.78" ry="4.78"/><rect class="cls-2" x="13.08" y="15.05" width="30.22" height="18.72" rx="4.23" ry="4.23"/><path class="cls-3" d="M39.53,30.76H16.85a1.44,1.44,0,0,1-1.44-1.44V19.53a1.44,1.44,0,0,1,2.27-1.18l9.93,7a1.44,1.44,0,0,0,1.69,0l9.38-6.91A1.44,1.44,0,0,1,41,19.6v9.72A1.44,1.44,0,0,1,39.53,30.76Z"/><path class="cls-3" d="M28.12,22.73,20,17.24a.23.23,0,0,1,.13-.43h16.1a.23.23,0,0,1,.13.43l-8,5.49A.23.23,0,0,1,28.12,22.73Z"/><rect class="cls-2" x="2.41" width="50.98" height="50.98" rx="13.28" ry="13.28"/><rect class="cls-3" x="4.95" y="1.41" width="45.97" height="45.97" rx="11.97" ry="11.97"/><path class="cls-4" d="M6.32,40.95a12,12,0,0,0,10.61,6.44h22a12,12,0,0,0,12-12v-22A11.9,11.9,0,0,0,49.08,7C42.33,36.91,21.22,41.48,6.32,40.95Z"/><path class="cls-5" d="M45.53,7.35a10.59,10.59,0,0,1,1.16,4.81V31.75A10.65,10.65,0,0,1,36,42.4H16.45A10.61,10.61,0,0,1,9,39.32a10.64,10.64,0,0,0,9.49,5.84H38A10.65,10.65,0,0,0,48.7,34.51V14.92A10.61,10.61,0,0,0,45.53,7.35Z"/><path class="cls-6" d="M9.72,34.35V15.3A10.36,10.36,0,0,1,20.08,4.95H39.13a10.31,10.31,0,0,1,3.56.64,10.31,10.31,0,0,0-6.48-2.28H17.16A10.36,10.36,0,0,0,6.81,13.66V32.71a10.35,10.35,0,0,0,6.8,9.72A10.33,10.33,0,0,1,9.72,34.35Z"/><rect class="cls-6" x="11.47" y="13.87" width="33.45" height="21.63" rx="4.78" ry="4.78"/><rect class="cls-7" x="13.08" y="15.05" width="30.22" height="18.72" rx="4.23" ry="4.23"/><path class="cls-3" d="M39.53,30.76H16.85a1.44,1.44,0,0,1-1.44-1.44V19.53a1.44,1.44,0,0,1,2.27-1.18l9.93,7a1.44,1.44,0,0,0,1.69,0l9.38-6.91A1.44,1.44,0,0,1,41,19.6v9.72A1.44,1.44,0,0,1,39.53,30.76Z"/><path class="cls-3" d="M28.12,22.73,20,17.24a.23.23,0,0,1,.13-.43h16.1a.23.23,0,0,1,.13.43l-8,5.49A.23.23,0,0,1,28.12,22.73Z"/></g></g></svg>