<svg xmlns="http://www.w3.org/2000/svg" viewBox="0 0 271.57 60.4"><defs><style>.cls-1{opacity:0.12;}.cls-2{fill:#63a1a8;opacity:0.7;}.cls-3{fill:#fff;opacity:0.6;}.cls-4,.cls-5{fill:#82b4b9;}.cls-4{opacity:0.2;}.cls-5{opacity:0.33;}.cls-6{fill:#00d5ee;}.cls-7{fill:#41aade;}.cls-8{font-size:36px;fill:#408c94;font-family:BurbankBigCondensed-Medium, Burbank Big Condensed;}.cls-9{letter-spacing:-0.01em;}.cls-10{letter-spacing:0em;}.cls-11{letter-spacing:0em;}.cls-12{letter-spacing:0em;}.cls-13{letter-spacing:-0.02em;}</style></defs><title>button_private_over</title><g id="Layer_2" data-name="Layer 2"><g id="buttons_Over"><path class="cls-1" d="M256.57,51.83H0V60.4H251.09A14.81,14.81,0,0,0,266,47.19,12,12,0,0,1,256.57,51.83Z"/><path class="cls-2" d="M256.57,0H0V2.9H256.57a11.83,11.83,0,0,1,12,11.58V39.94a11.83,11.83,0,0,1-12,11.58H0v2.9H256.57a14.76,14.76,0,0,0,15-14.48V14.48A14.76,14.76,0,0,0,256.57,0Z"/><path class="cls-3" d="M256.57,1.23H0v50.6H256.57a12,12,0,0,0,12-12V13.23A12,12,0,0,0,256.57,1.23Z"/><path class="cls-4" d="M126.61,44.09c-13-.19-87.32-.5-126.61-.9v8.64H256.57a12,12,0,0,0,12-12V13.43C261,40.66,214.13,45.34,126.61,44.09Z"/><path class="cls-5" d="M260.64,6.48a10.8,10.8,0,0,1,1.07,4.67V34.83a11,11,0,0,1-10.92,10.92H0V50H254.4a11,11,0,0,0,10.92-10.92V15.43A10.92,10.92,0,0,0,260.64,6.48Z"/><path class="cls-3" d="M254.42,3.63H0V9.18H252.69a11.56,11.56,0,0,1,11.53,11.53L266,15.16A11.56,11.56,0,0,0,254.42,3.63Z"/></g><g id="icons_Over"><path class="cls-3" d="M36.06,11.55l-.71,8-4.49-.8-3.7-6.92-3.7,6.92L16.1,20l-.21-.42-6.62.07,7.65,16.78h.23a4.2,4.2,0,0,0-.06.68,4.33,4.33,0,0,0,8.65,0,4.2,4.2,0,0,0-.06-.68h5.73a4.2,4.2,0,0,0-.06.68,4.33,4.33,0,0,0,8.65,0,4.2,4.2,0,0,0-.06-.68h.37l1.76-18,5.16.39,1.55-6ZM27.16,30.1l.07,0h-.15Zm7.24,0h-.65l-.6-4.36L35,23.86ZM21.17,25.75l-.48,3.49-4.13-8.29Z"/><path class="cls-6" d="M37.54,12.93,35.9,31.33l-15.76.07L14.88,20.84l-3.09,0L18,34.42h2.1a2.69,2.69,0,1,0,2.71,0H34.34a2.69,2.69,0,1,0,2.71,0h1.81l1.77-18.14,5.87.51.44-2.94Z"/><polygon class="cls-6" points="22.13 30.32 27.16 27.89 32.19 30.32 31.43 24.79 35.3 20.75 29.8 19.77 27.16 14.84 24.52 19.77 19.02 20.75 22.9 24.79 22.13 30.32"/><path class="cls-7" d="M29.8,19.77l-2.64-4.93L26,17l2.45,4.58,5.17.93,1.65-1.72Zm.31,6.8.41,2.94,1.68.81-.71-5.18Zm-9.81-4.49,2.91-.52,1.4-1.71L19,20.76Z"/><path class="cls-7" d="M21.63,35.68a2.67,2.67,0,0,1,1.11,3.38,2.68,2.68,0,0,0,1.37-2.33,2.61,2.61,0,0,0-.24-1.05l-.47-.77-.59-.48Zm8.93-4.33-9.17,0H20.14L14.88,20.84l-3.09,0,.57,1.25h1.37L19,32.66l15.76-.07,1.13-1.26-4.87,0Zm6.52,3.1L35.9,35.68A2.67,2.67,0,0,1,37,39.06a2.68,2.68,0,0,0,1.37-2.33A2.83,2.83,0,0,0,37.75,35Zm.47-21.52-.12,1.36,8.37.82-.24,1.59.95.08.44-2.94Zm.29,21.49h1l1.78-18.08-1.15,1.21Z"/></g><g id="ButtonText"><text class="cls-8" transform="translate(55.75 38.14)">Pri<tspan class="cls-9" x="24.41" y="0">v</tspan><tspan x="34.31" y="0">a</tspan><tspan class="cls-9" x="45.14" y="0">t</tspan><tspan class="cls-10" x="53.24" y="0">e </tspan><tspan class="cls-11" x="70.2" y="0">L</tspan><tspan x="79.45" y="0">a</tspan><tspan class="cls-12" x="90.29" y="0">b</tspan><tspan x="102.17" y="0">el </tspan><tspan class="cls-13" x="124.41" y="0">L</tspan><tspan class="cls-12" x="133.31" y="0">o</tspan><tspan x="145.01" y="0">unge</tspan></text></g></g></svg>