<svg xmlns="http://www.w3.org/2000/svg" viewBox="0 0 581.92 412.47">
	<defs>
		<style>.cls-1{fill:#fff;}</style>
	</defs>
	<title>text_animation</title>
	<g id="Layer_2" data-name="Layer 2">
		<g id="ButtonText">
			<path class="cls-1"
				d="M123.6,89.84c2.09.81,4.87.58,8.47-2.2,6-4.76,11.83-12.41,17.05-21.81a263,263,0,0,1,26.68-2.2c1.86,8.93,4.06,16.59,6.38,21.69,2,4.29,3.83,5.1,5.92,5,.81,0,.93-.35.7-.93a156.79,156.79,0,0,1-8.24-25.75c2.32,0,3.71-.7,4.76-2.55.35-.58.35-.81-.46-.81-1.39-.23-3.13-.35-5.1-.46a296.61,296.61,0,0,1-6.38-53.59c-.12-2.67-.81-4.76-4.18-6-1.16-.46-1.74,0-2,1.16C163.62,19.43,156.77,42.63,147,61A85.41,85.41,0,0,0,136,63a6.94,6.94,0,0,0-4.52,5.57c-.12.81,0,1.16,1,.81a76.62,76.62,0,0,1,11.25-2.67c-5.92,9.63-12.64,17.52-20.3,21.92C122.9,89,122.9,89.61,123.6,89.84ZM169.65,4.12c-.35,16.7,2,38,5.34,55.45a223.91,223.91,0,0,0-23,.81A194.93,194.93,0,0,0,169.65,4.12Z" />
			<path class="cls-1"
				d="M194.82,85.55c.7.12.93,0,1-1a91.54,91.54,0,0,1,7.19-27.37c.46-.93.7-.46.81.35,0,4.52-.23,10.67.7,16.94s3.71,8,6.84,8.93c2.3.7,4.46-.25,5.76-2.91A8.18,8.18,0,0,0,222,85c2.81,1,5.39-.47,7-3.46,0,.11,0,.22,0,.32.23,1.74,1.74,2.67,3.71,3.13.81.23,1,0,1-.93a71.74,71.74,0,0,1,6.61-26.56c.58-1.16,1.28-1.74,1.51.35.58,4.76.58,13.57,1.16,20.42.35,3.83,2.2,4.52,4.29,4.76.81.12,1-.12,1-.93.46-13.46,3-21.46,5.34-27.14.35-.93,1-1.28,1,.35-.12,8-1.86,19.14,2.2,25.06,2.09,3,3.94,3.83,6.26,3.94,1.66.07,3.69-.8,5-3.67a8.49,8.49,0,0,0,4.3,3.67c5.8,2.2,8.93-1.74,10.32-8,.81,3.94,2.44,6.5,5.33,7.54,3.33,1.25,6-.62,7.33-4.58a8.16,8.16,0,0,0,5.9,5.28c3.94.93,6.38-1.39,7.64-4.85A8.39,8.39,0,0,0,314.18,85c3.61,1.29,6.83-1.5,8.21-6.33a10.86,10.86,0,0,0,6.17,5.4C335.17,86.36,341,79.64,340,66.53a10.17,10.17,0,0,0,5-5.1,202.29,202.29,0,0,0-.12,20.42c.23,2.44,2,3.25,3.83,3.71.81.23,1.16,0,1.28-1a85.53,85.53,0,0,1,7.08-27.37c.35-.93.7-.46.7.35.12,4.52-.35,10.67.7,16.94s3.71,8,6.84,8.93c3.83,1.16,7.54-2.2,7-10.56-.12-1.39-.35-2.32-.81-2.67s-.58-.12-.58.35c-.35,5.68-3.13,10.56-4.87,10.09-3.25-.81-3.48-13-3.25-21.46.12-2.9-.46-5.22-2.32-6.61-2.09-1.51-3.13-1.39-4.52,1.16-2.2,3.94-5.34,12.88-6.84,20.18a155.39,155.39,0,0,1,1-25.05c0-.7-.12-.93-.81-.7a3.86,3.86,0,0,0-3.13,3.6c-.81,5.22-2.9,9.74-6.61,11.37-1.16-7.31-5.22-11.37-8.35-10.79a2.52,2.52,0,0,0-3.13-.93c-3.13,1.74-6.26,7.66-7.19,14.62a26.2,26.2,0,0,0,0,8.3c-1.66,5.33-4.46,8.51-6.17,7.94-2.44-.81-4.06-14.27-1.28-28,.12-.46-.23-.58-.81-.46a4.31,4.31,0,0,0-3,3,47.59,47.59,0,0,0-1.86,14.38c0,1.17.08,2.27.18,3.31-1.78,5.36-4.68,7.8-6.44,7-2.55-1-3.36-9.16-3.13-19.84.12-5.92.58-12.76,1.28-19.25a143.52,143.52,0,0,1,15.89.23,3.76,3.76,0,0,0,3.36-1.51c.23-.35.23-.58-.23-.7a111.5,111.5,0,0,0-18.68-1c.58-4.76,1.16-8.93,1.74-11.83.12-.7,0-.93-.58-.7a4.39,4.39,0,0,0-2.55,2.78c-.7,2.44-1.51,5.92-2.32,10-2.2.12-4.29.23-6.26.46a3.86,3.86,0,0,0-3.48,3c-.23.46-.12.93.7.81a76,76,0,0,1,8.58-1.16,162.09,162.09,0,0,0-2,19.72,80.9,80.9,0,0,0,.27,10.81c-1.38,4.93-4,7.8-5.26,7.51-2.67-.58-3.71-14.62-.7-27q.18-.87-.7-.7a4.05,4.05,0,0,0-2.67,2.2,8.24,8.24,0,0,0-3.13-3.94c-4.76-2.9-11.37,1.86-14.38,14a26.43,26.43,0,0,0-.71,10.69c-1.16,3.34-2.89,5.69-4.63,5.09-3.83-1.39-2.67-15.54-2.32-23.66.12-2.9.12-5.92-2.2-8.24-1.86-1.86-3-1.16-4.29,1.16a64.1,64.1,0,0,0-6,18.21,85,85,0,0,0-.35-9.86c-.23-2.09-.23-4.76-2.44-7-1.74-1.74-3-1-4.41,1-2.67,4.18-5.68,11.6-7.19,19.49,0-9.74.46-18.91,1.39-24.71.12-.58.12-1-.93-.58a4.87,4.87,0,0,0-3,3.94,141.06,141.06,0,0,0-1.57,23.55c-1.67,5.16-4.4,8.22-6.09,7.66-2.44-.81-4.06-14.27-1.28-28,.12-.46-.23-.58-.81-.46a4.31,4.31,0,0,0-3,3,47.59,47.59,0,0,0-1.86,14.38,38,38,0,0,0,.33,4.61c-1,3.1-2.65,5.17-4,4.78-3.13-.81-3.25-13-3.13-21.46,0-2.9-.46-5.22-2.32-6.61-2.09-1.51-3.25-1-4.52,1.16-2.2,3.94-5.34,12.88-6.84,20.18a156,156,0,0,1,1-25.05c.12-.7-.12-.93-.93-.7-1.62.46-2.55,1.39-3,3.6-1.51,7.66-1.86,22.74-1.16,30.16C191.22,84.28,192.73,85.09,194.82,85.55ZM331.58,54.46c2,.23,3.6,4.29,4.18,9.16C330.88,62.93,329.37,54.23,331.58,54.46Zm-6.26,13.92a28.3,28.3,0,0,1,2.55-9.4c.23,4.29,3.25,8.35,8.24,8.35.12,8.93-3,15.31-6.26,14.62C328.21,81.61,324.5,77.2,325.31,68.38Zm-53.94,0c1.39-8.58,6.26-15.54,8.58-15,1.74.46,3,3.6,2.78,8.82-.58,13-5.57,20.42-8.47,19.84C272.19,81.61,269.87,77.66,271.38,68.38Z" />
			<path class="cls-1"
				d="M220.45,52.14a3.73,3.73,0,0,0,2.9-4.18,2.5,2.5,0,0,0-2.55-2.44c-1.51.23-2.78,2.09-3,3.83C217.55,51.33,218.71,52.38,220.45,52.14Z" />
			<path class="cls-1"
				d="M313,45.53c-1.51.23-2.78,2.09-3,3.83-.23,2,.93,3,2.67,2.78a3.73,3.73,0,0,0,2.9-4.18A2.5,2.5,0,0,0,313,45.53Z" />
			<path class="cls-1"
				d="M390.39,89.84c2.09.81,4.87.58,8.47-2.2,6-4.76,11.83-12.41,17.05-21.81a263,263,0,0,1,26.68-2.2c1.86,8.93,4.06,16.59,6.38,21.69,2,4.29,3.83,5.1,5.92,5,.81,0,.93-.35.7-.93a156.78,156.78,0,0,1-8.24-25.75c2.32,0,3.71-.7,4.76-2.55.35-.58.35-.81-.46-.81-1.39-.23-3.13-.35-5.1-.46a296.61,296.61,0,0,1-6.38-53.59c-.12-2.67-.81-4.76-4.18-6-1.16-.46-1.74,0-2,1.16-3.6,18.1-10.44,41.29-20.18,59.62a85.48,85.48,0,0,0-11,2.09,6.94,6.94,0,0,0-4.52,5.57c-.12.81,0,1.16,1,.81a76.65,76.65,0,0,1,11.25-2.67c-5.92,9.63-12.64,17.52-20.3,21.92C389.69,89,389.69,89.61,390.39,89.84ZM436.44,4.12c-.35,16.7,2,38,5.34,55.45a223.9,223.9,0,0,0-23,.81A194.93,194.93,0,0,0,436.44,4.12Z" />
			<path class="cls-1"
				d="M466.36,85c6.07,1.72,9.14-4.14,10.13-8.75,1.72,5,4.29,7.86,7.5,8.75,4.74,1.34,7.65-1.94,9.17-5.64a11.45,11.45,0,0,0,5,4.48c5.66,2.23,11.09-.16,13.87-5.53a14.06,14.06,0,0,0,2.14,5.18A4.78,4.78,0,0,0,521,84.62a11.56,11.56,0,0,0,4.06-5.57c.12,5,.35,10.21.81,15.31.7,8.24.23,13.11-2.32,14.85-3.36,2.32-8.82-1.28-11.37-11.95-.23-1-.93-.93-1.28-.23-.58,1.16-1,3.36-.23,7.19,1.62,7.54,7.54,12.53,14,7.42,3.71-2.9,6.73-8.12,5.8-17.28-1.28-12.41-1.74-28.54,0-42.46,0-.46,0-.81-.93-.58-1.74.35-2.78,1.51-3.48,4.18-.7,2.9-1,8.24-1.62,14.38-.81,8.24-2.55,11.72-4.41,12.06-1.16.23-2.32-.93-3.25-3.25-2.44-6-1.39-20.53.12-28.07.12-.81,0-.81-.81-.7-1.51.23-2.55,1.86-3,3.71a68.63,68.63,0,0,0-1.75,20.19c-3.13,6-8.63,8.81-12.29,7.53-1.62-.58-3.13-3.36-3.6-7.66a14.07,14.07,0,0,0,12.18-10.9c1.16-5,.23-9.16-3.48-11.83-4.52-3.25-11,1.62-13.22,14.15a21.52,21.52,0,0,0,.5,10.56c-2.18,4.35-5,6.91-7.23,6.14-2.44-.81-4.52-6.61-5.1-17.52,9.39-8.47,14.38-36.89,7.54-45.47s-11.6,15.08-12.41,32.71c-.37,8.5,0,15.26,1.11,20.43-2.21,6.52-6,10.81-8.77,9.84-2.44-.81-4.52-6.61-5.1-17.52,9.39-8.47,14.38-36.89,7.54-45.47s-11.6,15.08-12.41,32.71C455.69,72.68,459.64,83.12,466.36,85ZM495.48,67.8c.81-8.82,5.1-15.2,7.31-14.62,2.9.81,1.39,16.7-7.42,18.56A23,23,0,0,1,495.48,67.8ZM479.24,49.48c.7-14.27,3.6-28.65,5.34-27.72,2.09,1,2.2,27.14-5.57,39.32C479,57.6,479,53.77,479.24,49.48Zm-17.63,0c.7-14.27,3.6-28.65,5.34-27.72,2.09,1,2.2,27.14-5.57,39.32C461.38,57.6,461.38,53.77,461.61,49.48Z" />
			<path class="cls-1"
				d="M21.34,131.33c1.07,4.44,1.7,7.14,1.7,7.14l0,.11h.11c.74-.07,1.31-.07,1.32-.07h.16l0-.16c-3.17-12.35-6.37-25.85-6.41-26l0-.1-2.07.12,0,.09c-3.56,15.09-5.81,24.46-5.83,24.55l0,.15h.16a9.92,9.92,0,0,1,1.31.07l.12,0,0-.11c.4-1.87.83-3.87,1.31-5.88,3.65,0,6.21,0,7.45.06Zm-7.88-1.54c1.62-7.11,3.11-13.44,3.7-15.84,1.24,5.07,2.36,9.75,3.27,13.53l.57,2.38c-3.11,0-4.54,0-6.19,0Z" />
			<path class="cls-1"
				d="M33.35,119.27c-2.71,0-4.49,2.07-5.35,4.21,0-1.71.08-3.31.08-3.32V120h-.14c-.67,0-1.25,0-1.25,0h-.13v.13c.07,10.1,0,16.85,0,16.92v.13h.13a11.7,11.7,0,0,1,1.2,0H28v-.13c0-.06,0-6,0-8.67,0-4.19,2.37-7.72,5.17-7.72,2.11,0,3,1.35,3,4.66v13.22h.49c.23,0,.56,0,.94,0h.11v-.11c0-.12,0-11.69-.07-13.57C37.57,121,36.2,119.27,33.35,119.27Z" />
			<path class="cls-1"
				d="M41.65,137.77h.13c.81,0,1.25,0,1.25,0h.13v-.13c-.14-11.49-.11-17.82-.11-17.89v-.13h-.13c-.67,0-1.21,0-1.22,0h-.13v.13c.14,13.06.07,17.84.07,17.89Z" />
			<path class="cls-1"
				d="M42.28,117c.79,0,1.28-.61,1.28-1.6s-.45-1.56-1.24-1.56-1.28.58-1.28,1.64S41.53,117,42.28,117Z" />
			<path class="cls-1"
				d="M47.23,137.1v.13h.13c.71,0,1.3,0,1.3,0h.12v-.12s-.14-4.79-.11-8.42c0-4.7,2.67-8,5.06-8,1.67,0,2.54,1.46,2.58,4.34.11,5.23.07,11.31.07,11.37v.13h.13c.64,0,1.3,0,1.3,0h.12v-.12s-.11-4.14-.07-7.88c0-4.09,2.07-7.18,4.81-7.18,1.93,0,2.86,1.45,2.93,4.56.11,5.16,0,12.41,0,12.49v.13h.13a12,12,0,0,1,1.28,0h.13v-.14c0-.07,0-7-.07-12.42-.09-4.08-1.53-6.06-4.41-6.06a5.56,5.56,0,0,0-5,3.76c-.29-2.84-1.64-4.33-3.93-4.33s-4.15,1.69-5.16,4.36c0-1.89.07-3.24.07-3.26v-.12h-.12c-.79,0-1.3,0-1.3,0h-.13v.13C47.23,130.26,47.23,137,47.23,137.1Z" />
			<path class="cls-1"
				d="M69.51,133.25A4.5,4.5,0,0,0,74.35,138a5.44,5.44,0,0,0,5.12-3.17c0,2.17-.1,3.42-.1,3.43v.14h.14l1.22,0h.12v-.12c0-.06.11-5.67-.07-13.18-.1-3.86-2-6-5.27-6s-5.23,2.33-5.38,6.24v.12h.12c.67,0,1.25.11,1.25.11l.13,0v-.13c.19-3.26,1.49-4.85,4-4.85,2.9,0,3.57,2.34,3.62,4.31l.07,1.71C72.09,126.81,69.51,130.16,69.51,133.25Zm5.13,3.33h-.07c-2.27,0-3.48-1.2-3.48-3.37,0-1.49.8-5,8.21-5.27,0,.88,0,1.62,0,2.71a6.36,6.36,0,0,1-1.63,4.66A4.4,4.4,0,0,1,74.64,136.58Z" />
			<path class="cls-1"
				d="M85.28,133.11c.07,3.12,1.56,4.84,4.19,4.84a9.26,9.26,0,0,0,3.25-.69l.1,0,0-.11s-.11-.47-.21-1.07l0-.15-.14,0a8.69,8.69,0,0,1-2.8.6c-1.84,0-2.79-1.19-2.83-3.55-.11-4.76-.1-9.07-.07-11.89,1.15,0,2.57,0,4.2.05l1.47,0v-.12s0-.41,0-1.13v-.13h-.13s-2.12,0-5.6,0c0-2.81.07-4.68.07-4.7v-.13h-.13s-.65,0-1.22,0h-.13V115s0,1.89-.07,4.73l-2.45-.07v.13s0,.4,0,1.11v.13h2.49C85.22,123.39,85.2,127.94,85.28,133.11Z" />
			<path class="cls-1"
				d="M100.63,138.52c3.14,0,5.33-2.62,5.85-7l0-.13-1.51-.13,0,.12c-.47,3.69-2,5.72-4.34,5.72-2.8,0-4.49-2.72-4.66-7.46,6.58-.31,10.27-.35,10.31-.35h.12v-.12c.12-3.9-.68-7-2.27-8.59a4.65,4.65,0,0,0-3.47-1.43c-3.82,0-6.28,3.79-6.28,9.66C94.39,134.89,96.72,138.52,100.63,138.52Zm0-18c2.57,0,4.2,2.79,4.27,7.28-5.79.32-8,.38-8.89.39C96.11,124.36,97.58,120.53,100.6,120.53Z" />
			<path class="cls-1"
				d="M115.18,138.2a5.45,5.45,0,0,0,5-3.61c-.06,2.21-.12,3.75-.12,3.76v.13h.13c.85,0,1.39,0,1.4,0h.13v-.14c-.14-14.05,0-25.69,0-25.81v-.13h-.13c-.89,0-1.32,0-1.32,0h-.13l.17,10.79a5.46,5.46,0,0,0-5-3.7c-3.81,0-6.17,3.74-6.17,9.77C109.11,134.73,111.49,138.2,115.18,138.2Zm.18-1.47c-2.94,0-4.7-3-4.7-7.94,0-4.47,1.92-7.72,4.55-7.72a3.86,3.86,0,0,1,2.84,1.15c1.33,1.34,2,3.81,2,7.14h0C120.06,133.7,118.12,136.73,115.36,136.73Z" />
			<path class="cls-1"
				d="M144.71,131.2a5.91,5.91,0,0,0-5-6.15c2.78-.61,4.29-2.69,4.29-5.91,0-4.6-2.66-6.93-7.9-6.93a21.7,21.7,0,0,0-3.8.36l-.1,0v.11c.25,13,.25,24.93.25,25.05v.11l.11,0a24.6,24.6,0,0,0,3.51.25C141.79,138.13,144.71,135.8,144.71,131.2Zm-11-17.35a18.66,18.66,0,0,1,2.29-.17c4.17,0,6.46,1.9,6.46,5.35a4.91,4.91,0,0,1-1.36,3.77c-1.34,1.27-3.67,1.77-7.35,1.58C133.73,121.14,133.73,117.6,133.73,113.85Zm8.17,14a4.73,4.73,0,0,1,1.3,3.57c0,3.6-2.28,5.35-7,5.35a19.58,19.58,0,0,1-2.33-.13c-.07-3.15-.1-6.72-.14-10.71C137.89,125.82,140.49,126.42,141.9,127.81Z" />
			<path class="cls-1"
				d="M154.51,120.94V119.4l-.14,0a7.19,7.19,0,0,0-5.76,4.69c0-2.09.07-3.72.07-3.73v-.14h-.14c-.49,0-1.21,0-1.21,0h-.13v.13c.07,8.79,0,17.16,0,17.24v.13h.13c.82,0,1.37,0,1.38,0h.12v-.12s-.18-4.18-.11-8.41c.1-4.71,2.06-7.56,5.66-8.23Z" />
			<path class="cls-1"
				d="M155.37,133.25a4.5,4.5,0,0,0,4.84,4.77,5.44,5.44,0,0,0,5.12-3.17c0,2.17-.1,3.42-.1,3.43v.14h.14l1.22,0h.12v-.12c0-.06.11-5.67-.07-13.18-.1-3.86-2-6-5.27-6s-5.23,2.33-5.38,6.24v.12h.12c.67,0,1.25.11,1.25.11l.13,0v-.13c.19-3.26,1.49-4.85,4-4.85,2.9,0,3.57,2.34,3.62,4.31l.07,1.71C157.95,126.81,155.37,130.16,155.37,133.25Zm5.13,3.33h-.07c-2.27,0-3.48-1.2-3.48-3.37,0-1.49.8-5,8.21-5.27,0,.88,0,1.62,0,2.71a6.36,6.36,0,0,1-1.63,4.66A4.4,4.4,0,0,1,160.5,136.58Z" />
			<path class="cls-1"
				d="M170.06,137.24h.13a11.7,11.7,0,0,1,1.2,0h.14v-.13c0-.06,0-6,0-8.67,0-4.19,2.37-7.72,5.17-7.72,2.11,0,3,1.35,3,4.66v13.22h.49c.23,0,.56,0,.94,0h.11v-.11c0-.12,0-11.69-.07-13.57-.08-3.82-1.45-5.59-4.3-5.59s-4.49,2.07-5.35,4.21c0-1.71.08-3.31.08-3.32V120h-.14c-.67,0-1.25,0-1.25,0h-.13v.13c.07,10.1,0,16.85,0,16.92Z" />
			<path class="cls-1"
				d="M184.17,129.19c0,5.74,2.27,9.16,6.06,9.16a5.34,5.34,0,0,0,5-3.57c-.06,2.11-.12,3.56-.12,3.58v.13h.13c.85,0,1.39,0,1.4,0h.13v-.14c-.14-14.05,0-25.23,0-25.34v-.13h-.13c-.89,0-1.32,0-1.32,0h-.13l.05,3.28c0,2.73.08,5,.09,6.58a5.47,5.47,0,0,0-5-3.78C186.47,119.05,184.17,122.84,184.17,129.19Zm6.24,7.69c-3,0-4.7-2.93-4.7-8.26,0-4,1.68-8,4.48-8a3.8,3.8,0,0,1,2.79,1.16c1.41,1.42,2.15,4,2.13,7.53h0C195.12,133.81,193.23,136.87,190.42,136.87Z" />
			<path class="cls-1"
				d="M210.63,133.65c0-2.69-1.34-4.12-5.12-5.45-3-1.05-4.2-2.29-4.2-4.42s1.39-3.22,3.62-3.22c2.5,0,3.76,1.76,3.76,5.24v.12h.12c.75,0,1.23,0,1.23,0h.12v-.12c0-2.44-.5-4.25-1.62-5.39a5,5,0,0,0-3.69-1.36c-3.54,0-5.13,2.4-5.13,4.77,0,2.74,1.3,4.24,4.8,5.55,3.9,1.43,4.56,2.48,4.56,4.27,0,2-1.35,3.26-3.62,3.26a4,4,0,0,1-3-1c-.84-.86-1.22-2.24-1.16-4.23v-.12h-.12l-1.26-.07h-.13v.13c-.11,2.36.39,4.15,1.51,5.32a5.36,5.36,0,0,0,4.05,1.51C208.61,138.42,210.63,136.59,210.63,133.65Z" />
			<path class="cls-1"
				d="M228.55,137.26l.1,0,0-.11s-.11-.47-.21-1.07l0-.15-.14,0a8.69,8.69,0,0,1-2.8.6c-1.84,0-2.79-1.19-2.83-3.55-.11-4.76-.1-9.07-.07-11.89,1.15,0,2.57,0,4.2.05l1.47,0v-.12s0-.41,0-1.13v-.13h-.13s-2.12,0-5.6,0c0-2.81.07-4.68.07-4.7v-.13h-.13s-.65,0-1.22,0h-.13V115s0,1.89-.07,4.73l-2.45-.07v.13s0,.4,0,1.11v.13h2.49c0,2.33,0,6.87,0,12,.07,3.12,1.56,4.84,4.19,4.84A9.26,9.26,0,0,0,228.55,137.26Z" />
			<path class="cls-1"
				d="M232.63,120.23h-.14c-.49,0-1.21,0-1.21,0h-.13v.13c.07,8.79,0,17.16,0,17.24v.13h.13c.82,0,1.37,0,1.38,0h.12v-.12s-.18-4.18-.11-8.41c.1-4.71,2.06-7.56,5.66-8.23l.1,0V119.4l-.14,0a7.19,7.19,0,0,0-5.76,4.69c0-2.09.07-3.72.07-3.73Z" />
			<path class="cls-1"
				d="M244.17,138a5.44,5.44,0,0,0,5.12-3.17c0,2.17-.1,3.42-.1,3.43v.14h.14l1.22,0h.12v-.12c0-.06.11-5.67-.07-13.18-.1-3.86-2-6-5.27-6s-5.23,2.33-5.38,6.24v.12h.12c.67,0,1.25.11,1.25.11l.13,0v-.13c.19-3.26,1.49-4.85,4-4.85,2.9,0,3.57,2.34,3.62,4.31l.07,1.71c-7.21.19-9.79,3.55-9.79,6.64A4.5,4.5,0,0,0,244.17,138Zm.29-1.44h-.07c-2.27,0-3.48-1.2-3.48-3.37,0-1.49.8-5,8.21-5.27,0,.88,0,1.62,0,2.71a6.36,6.36,0,0,1-1.63,4.66A4.4,4.4,0,0,1,244.45,136.58Z" />
			<path class="cls-1"
				d="M254,137.24h.13a11.7,11.7,0,0,1,1.2,0h.14v-.13c0-.06,0-6,0-8.67,0-4.19,2.37-7.72,5.17-7.72,2.11,0,3,1.35,3,4.66v13.22h.49c.23,0,.56,0,.94,0h.11v-.11c0-.12,0-11.69-.07-13.57-.08-3.82-1.45-5.59-4.3-5.59s-4.49,2.07-5.35,4.21c0-1.71.08-3.31.08-3.32V120h-.14c-.67,0-1.25,0-1.25,0H254v.13c.07,10.1,0,16.85,0,16.92Z" />
			<path class="cls-1"
				d="M276.88,125.93c.75,0,1.23,0,1.23,0h.13v-.12c0-2.44-.5-4.25-1.62-5.39a5,5,0,0,0-3.69-1.36c-3.54,0-5.13,2.4-5.13,4.77,0,2.74,1.3,4.24,4.8,5.55,3.9,1.43,4.56,2.48,4.56,4.27,0,2-1.35,3.26-3.62,3.26a4,4,0,0,1-3-1c-.84-.86-1.22-2.24-1.16-4.23v-.12h-.12l-1.26-.07h-.13v.13c-.11,2.36.39,4.15,1.51,5.32a5.36,5.36,0,0,0,4.05,1.51c3.25,0,5.27-1.83,5.27-4.77,0-2.69-1.34-4.12-5.12-5.45-3-1.05-4.2-2.29-4.2-4.42s1.39-3.22,3.62-3.22c2.5,0,3.76,1.76,3.76,5.24v.12Z" />
			<path class="cls-1"
				d="M287.15,120.53c2.48,0,3.82,1.92,4.09,5.86v.12h1.51v-.13c-.18-4.65-2.22-7.32-5.6-7.32-3.9,0-6.32,3.73-6.32,9.74,0,3.8.79,6.64,2.36,8.22a5.26,5.26,0,0,0,3.88,1.52c3.63,0,5.48-2.43,5.81-7.64v-.13h-.13l-1.26-.07h-.12v.12c-.29,4.2-1.71,6.33-4.23,6.33-3.12,0-4.77-2.86-4.77-8.26C282.38,123.64,284.16,120.53,287.15,120.53Z" />
			<path class="cls-1"
				d="M307.36,129.78v-.12c.12-3.84-.69-6.87-2.29-8.52a4.63,4.63,0,0,0-3.45-1.44c-3.76,0-6.28,3.74-6.28,9.3,0,5.87,2.33,9.38,6.24,9.38,3.21,0,5.34-2.45,5.85-6.73l0-.14h-.14c-.85,0-1.24,0-1.24,0h-.12l0,.12c-.45,3.46-2,5.36-4.34,5.36-2.76,0-4.45-2.53-4.66-7,6.57-.21,10.27-.21,10.31-.21Zm-5.81-8.68c3.06,0,4.21,3.7,4.26,7.21-5.68.19-8.2.21-8.89.21C297.05,124.92,298.54,121.1,301.55,121.1Z" />
			<path class="cls-1"
				d="M310.46,138.1h.13a11,11,0,0,1,1.21,0h.13V138c0-.06,0-6.33,0-9,0-4.19,2.37-7.72,5.17-7.72,2.11,0,3,1.35,3,4.66v11.82h.13s.55,0,1.3,0h.12v-.12c0-.1,0-10.28-.07-12.17-.08-3.82-1.45-5.59-4.3-5.59s-4.49,2.07-5.35,4.21c0-1.73.08-3.38.08-3.4v-.14h-.14c-.67,0-1.25,0-1.25,0h-.13v.13c.07,10.1,0,17.24,0,17.31Z" />
			<path class="cls-1"
				d="M330.71,119.05c-3.84,0-6.14,3.79-6.14,10.13,0,5.74,2.27,9.16,6.06,9.16a5.34,5.34,0,0,0,5-3.57c-.06,2.11-.12,3.56-.12,3.58v.13h.13c.85,0,1.39,0,1.4,0h.13v-.14c-.14-14.05,0-25.23,0-25.34v-.13H337c-.89,0-1.32,0-1.32,0h-.13l.05,3.28c0,2.73.08,5,.09,6.58A5.47,5.47,0,0,0,330.71,119.05Zm.11,17.82c-3,0-4.7-2.93-4.7-8.26,0-4,1.68-8,4.48-8a3.8,3.8,0,0,1,2.79,1.16c1.41,1.42,2.15,4,2.13,7.53h0C335.51,133.81,333.63,136.87,330.82,136.87Z" />
			<path class="cls-1"
				d="M354.74,121l.1,0V119.4l-.14,0a7.19,7.19,0,0,0-5.76,4.69c0-2.09.07-3.72.07-3.73v-.14h-.14c-.49,0-1.21,0-1.21,0h-.13v.13c.07,8.79,0,17.16,0,17.24v.13h.13c.82,0,1.37,0,1.38,0h.12v-.12s-.18-4.18-.11-8.41C349.19,124.48,351.14,121.63,354.74,121Z" />
			<path class="cls-1"
				d="M368.27,129.27v-.12c.12-3.9-.68-7-2.27-8.59a4.65,4.65,0,0,0-3.47-1.43c-3.82,0-6.28,3.79-6.28,9.66,0,6.1,2.33,9.74,6.24,9.74,3.14,0,5.33-2.62,5.85-7l0-.13-1.51-.13,0,.12c-.47,3.69-2,5.72-4.34,5.72-2.8,0-4.49-2.72-4.66-7.46,6.58-.31,10.27-.35,10.31-.35Zm-5.81-8.75c2.57,0,4.2,2.79,4.27,7.28-5.79.32-8,.38-8.89.39C358,124.36,359.44,120.53,362.46,120.53Z" />
			<path class="cls-1"
				d="M371,125.45h.12c.67,0,1.25.11,1.25.11l.13,0v-.13c.19-3.26,1.49-4.85,4-4.85,2.9,0,3.57,2.34,3.62,4.31l.07,1.71c-7.21.19-9.79,3.55-9.79,6.64a4.5,4.5,0,0,0,4.84,4.77,5.44,5.44,0,0,0,5.12-3.17c0,2.17-.1,3.42-.1,3.43v.14h.14l1.22,0h.12v-.12c0-.06.11-5.67-.07-13.18-.1-3.86-2-6-5.27-6s-5.23,2.33-5.38,6.24Zm4.52,11.13h-.07c-2.27,0-3.48-1.2-3.48-3.37,0-1.49.8-5,8.21-5.27,0,.88,0,1.62,0,2.71a6.36,6.36,0,0,1-1.63,4.66A4.41,4.41,0,0,1,375.56,136.58Z" />
			<path class="cls-1"
				d="M386.83,137.81H387v-.13s0-5.12.11-24.76v-.12H387a12.31,12.31,0,0,0-1.35,0h-.12v.12c0,.09,0,9.07-.11,24.73v.12h.12S386,137.81,386.83,137.81Z" />
			<path class="cls-1"
				d="M392.16,113.83c-.82,0-1.28.58-1.28,1.64s.49,1.53,1.24,1.53,1.28-.61,1.28-1.6S392.95,113.83,392.16,113.83Z" />
			<path class="cls-1"
				d="M391.49,137.77h.13c.81,0,1.25,0,1.25,0H393v-.13c-.14-11.49-.11-17.82-.11-17.89v-.13h-.13c-.67,0-1.21,0-1.21,0h-.13v.13c.14,13.06.07,17.84.07,17.89Z" />
			<path class="cls-1"
				d="M399.56,114.95h-.13s-.65,0-1.22,0h-.13V115s0,1.89-.07,4.73l-2.45-.07v.13s0,.4,0,1.11v.13H398c0,2.33,0,6.87,0,12,.07,3.12,1.56,4.84,4.19,4.84a9.26,9.26,0,0,0,3.25-.69l.1,0,0-.11s-.11-.47-.21-1.07l0-.15-.14,0a8.69,8.69,0,0,1-2.8.6c-1.84,0-2.79-1.19-2.83-3.55-.11-4.76-.1-9.07-.07-11.89,1.15,0,2.57,0,4.2.05l1.47,0v-.12s0-.41,0-1.13v-.13h-.13s-2.12,0-5.6,0c0-2.81.07-4.68.07-4.7Z" />
			<path class="cls-1"
				d="M418.81,119.15l-.14,0s-.52-.07-1.41-.14h-.11l0,.1s-1.23,5-4.52,16.49c-.46-1.6-2.19-7.63-4.6-15.53l0-.1-1.66.13,0,.15c0,.05,1.7,5.14,5.39,17.78-.07.28-.59,2.44-2.19,7.48l0,.13.13,0a7.15,7.15,0,0,1,1.16.42l.13.06,0-.14c0-.06,1.83-6,7.78-26.71Z" />
			<path class="cls-1"
				d="M436.24,138.42h.14l1.22,0h.13v-.12c0-.06.11-5.67-.07-13.18-.1-3.86-2-6-5.27-6s-5.23,2.33-5.38,6.24v.12h.12c.67,0,1.25.11,1.25.11l.13,0v-.13c.19-3.26,1.49-4.85,4-4.85,2.9,0,3.57,2.34,3.62,4.31l.07,1.71c-7.21.19-9.79,3.55-9.79,6.64a4.5,4.5,0,0,0,4.84,4.77,5.44,5.44,0,0,0,5.12-3.17c0,2.17-.1,3.42-.1,3.43Zm-4.73-1.84h-.07c-2.27,0-3.48-1.2-3.48-3.37,0-1.49.8-5,8.21-5.27,0,.88,0,1.62,0,2.71a6.36,6.36,0,0,1-1.63,4.66A4.41,4.41,0,0,1,431.51,136.58Z" />
			<path class="cls-1"
				d="M450.83,138.6h.37c.23,0,.56,0,.94,0h.11v-.11c0-.12,0-11.69-.07-13.57-.08-3.82-1.45-5.59-4.3-5.59s-4.49,2.07-5.35,4.21c0-1.71.08-3.31.08-3.32V120h-.14c-.67,0-1.25,0-1.25,0h-.13v.13c.07,10.1,0,16.85,0,16.92v.13h.13a11.62,11.62,0,0,1,1.21,0h.13v-.13c0-.06,0-6,0-8.67,0-4.19,2.37-7.72,5.17-7.72,2.11,0,3,1.35,3,4.66v13.22Z" />
			<path class="cls-1"
				d="M461.31,119.05c-3.84,0-6.14,3.79-6.14,10.13,0,5.74,2.27,9.16,6.06,9.16a5.34,5.34,0,0,0,5-3.57c-.06,2.11-.12,3.56-.12,3.58v.13h.13c.85,0,1.39,0,1.39,0h.14v-.14c-.14-14.05,0-25.23,0-25.34v-.13h-.13c-.89,0-1.32,0-1.33,0h-.13l.05,3.28c0,2.73.08,5,.09,6.58A5.47,5.47,0,0,0,461.31,119.05Zm.11,17.82c-3,0-4.7-2.93-4.7-8.26,0-4,1.68-8,4.48-8a3.8,3.8,0,0,1,2.79,1.16c1.41,1.42,2.15,4,2.13,7.53h0C466.12,133.81,464.23,136.87,461.42,136.87Z" />
			<path class="cls-1"
				d="M489.84,131.5l0-.13-1.51-.13,0,.12c-.47,3.69-2,5.72-4.34,5.72-2.8,0-4.49-2.72-4.66-7.46,6.58-.31,10.27-.35,10.31-.35h.12v-.12c.12-3.9-.68-7-2.27-8.59a4.65,4.65,0,0,0-3.47-1.43c-3.82,0-6.28,3.79-6.28,9.66,0,6.1,2.33,9.74,6.24,9.74C487.13,138.52,489.32,135.9,489.84,131.5Zm-5.88-11c2.57,0,4.2,2.79,4.27,7.28-5.79.32-8,.38-8.89.39C479.46,124.36,480.94,120.53,484,120.53Z" />
			<path class="cls-1"
				d="M503.36,119.42l.1-.17-.19,0s-.62-.07-1.44-.15h-.08l0,.07s-1.62,3.08-4.78,8.31c-.51-.89-1.65-3-3.79-7l-.36-.66h-.08s-.44,0-1.43,0H491l.11.19s1.19,2.08,4.93,8.72c-.5,1-2,3.76-4.83,8.46l-.12.2h.24s.62,0,1.58,0H493l0-.07s.88-1.89,3.85-7.19c.77,1.26,2.39,4.05,4.78,8.38l0,.07h.08s.62-.07,1.47-.11h.22l-.12-.18s-1.9-3-5.68-9.51l.13-.22C498.55,127.38,500.42,124.21,503.36,119.42Z" />
			<path class="cls-1"
				d="M505.76,145.7h.13s.51,0,1.43,0h.13v-.13s-.17-3.68-.25-10.27a5.19,5.19,0,0,0,4.8,3.24c4,0,6.28-3.46,6.28-9.74,0-6-2.38-9.7-6.21-9.7a5.29,5.29,0,0,0-4.88,3.73c0-.58,0-1.39,0-2.85v-.13h-.13s-.55,0-1.23,0h-.12V120c0,.13,0,13.21,0,25.59Zm6.32-25.17a3.31,3.31,0,0,1,2.39,1.07c1.44,1.45,2.26,4.18,2.23,7.48h0c0,4.94-1.77,8-4.63,8-3,0-4.81-3-4.81-7.94C507.27,123.91,509.15,120.53,512.07,120.53Z" />
			<path class="cls-1"
				d="M526.33,119.09c-3.22,0-5.23,2.33-5.38,6.24v.12h.12c.67,0,1.25.11,1.25.11l.13,0v-.13c.19-3.26,1.49-4.85,4-4.85,2.9,0,3.57,2.34,3.62,4.31l.07,1.71c-7.21.19-9.79,3.55-9.79,6.64a4.5,4.5,0,0,0,4.84,4.77,5.44,5.44,0,0,0,5.12-3.17c0,2.17-.1,3.42-.1,3.43v.14h.14l1.22,0h.13v-.12c0-.06.11-5.67-.07-13.18C531.5,121.22,529.63,119.09,526.33,119.09Zm-.86,17.49h-.07c-2.27,0-3.48-1.2-3.48-3.37,0-1.49.8-5,8.21-5.27,0,.88,0,1.62,0,2.71a6.36,6.36,0,0,1-1.63,4.66A4.4,4.4,0,0,1,525.47,136.58Z" />
			<path class="cls-1"
				d="M536.37,137.23h.13v-.13c0-.06,0-6,0-8.67,0-4.19,2.37-7.72,5.17-7.72,2.11,0,3,1.35,3,4.66v13.22h.49c.23,0,.56,0,.94,0h.11v-.11c0-.12,0-11.69-.07-13.57-.08-3.82-1.45-5.59-4.3-5.59s-4.49,2.07-5.35,4.21c0-1.71.08-3.31.08-3.32V120h-.14c-.67,0-1.25,0-1.25,0h-.13v.13c.07,10.1,0,16.85,0,16.92v.13h.13A11.62,11.62,0,0,1,536.37,137.23Z" />
			<path class="cls-1"
				d="M555.2,138.35a5.34,5.34,0,0,0,5-3.57c-.06,2.11-.12,3.56-.12,3.58v.13h.13c.85,0,1.39,0,1.4,0h.13v-.14c-.14-14.05,0-25.23,0-25.34v-.13h-.13c-.89,0-1.32,0-1.32,0h-.13l.05,3.28c0,2.73.08,5,.09,6.58a5.47,5.47,0,0,0-5-3.78c-3.84,0-6.14,3.79-6.14,10.13C549.14,134.92,551.4,138.35,555.2,138.35Zm.18-1.47c-3,0-4.7-2.93-4.7-8.26,0-4,1.68-8,4.48-8a3.8,3.8,0,0,1,2.79,1.16c1.41,1.42,2.15,4,2.13,7.53h0C560.08,133.81,558.19,136.87,555.38,136.87Z" />
			<path class="cls-1"
				d="M6,161.09c-3.22,0-5.23,2.33-5.38,6.24v.12H.73c.67,0,1.25.11,1.25.11l.13,0v-.13c.19-3.26,1.49-4.85,4-4.85,2.9,0,3.57,2.34,3.62,4.31l.07,1.71c-7.21.19-9.79,3.55-9.79,6.64A4.5,4.5,0,0,0,4.84,180,5.44,5.44,0,0,0,10,176.85c0,2.17-.1,3.42-.1,3.43v.14H10l1.22,0h.13v-.12c0-.06.11-5.67-.07-13.18C11.16,163.22,9.29,161.09,6,161.09Zm-.86,17.5H5.06c-2.27,0-3.48-1.2-3.48-3.37,0-1.49.8-5,8.21-5.27,0,.88,0,1.62,0,2.71a6.36,6.36,0,0,1-1.63,4.66A4.4,4.4,0,0,1,5.13,178.58Z" />
			<path class="cls-1"
				d="M25,172.68h-.12v.12c-.29,4.2-1.71,6.33-4.23,6.33-3.12,0-4.77-2.86-4.77-8.26,0-5.22,1.78-8.33,4.77-8.33,2.48,0,3.82,1.92,4.09,5.86v.12h1.51v-.13c-.18-4.65-2.22-7.32-5.6-7.32-3.9,0-6.32,3.73-6.32,9.74,0,3.79.79,6.64,2.36,8.22a5.26,5.26,0,0,0,3.88,1.52c3.63,0,5.48-2.43,5.81-7.64v-.13h-.13Z" />
			<path class="cls-1"
				d="M30.6,166.11c0-2.09.07-3.72.07-3.73v-.14h-.14c-.49,0-1.21,0-1.21,0H29.2v.13c.07,8.79,0,17.16,0,17.24v.13h.13c.82,0,1.37,0,1.37,0h.13v-.12s-.18-4.18-.11-8.41c.1-4.71,2.06-7.56,5.66-8.23l.1,0V161.4l-.14,0A7.19,7.19,0,0,0,30.6,166.11Z" />
			<path class="cls-1"
				d="M50.47,170.68c0-5.83-2.46-9.59-6.28-9.59s-6.28,3.81-6.28,9.7c0,6.19,2.28,9.74,6.24,9.74S50.47,176.94,50.47,170.68Zm-6.32,8.41c-2.94,0-4.7-3.16-4.7-8.44,0-4,1.63-8.12,4.73-8.12s4.7,4.21,4.7,8.12C48.89,175.77,47,179.09,44.15,179.09Z" />
			<path class="cls-1"
				d="M54.2,173.54l-1.26-.07h-.13v.13c-.11,2.36.39,4.15,1.51,5.32a5.36,5.36,0,0,0,4.05,1.51c3.25,0,5.27-1.83,5.27-4.77,0-2.69-1.34-4.12-5.12-5.45-3-1.05-4.2-2.29-4.2-4.42s1.39-3.22,3.62-3.22c2.5,0,3.76,1.76,3.76,5.24v.12h.12c.75,0,1.23,0,1.23,0h.13v-.12c0-2.44-.5-4.25-1.62-5.39a5,5,0,0,0-3.69-1.36c-3.54,0-5.13,2.4-5.13,4.77,0,2.74,1.3,4.24,4.8,5.55,3.9,1.43,4.56,2.48,4.56,4.27,0,2-1.35,3.26-3.62,3.26a4,4,0,0,1-3-1c-.84-.86-1.22-2.24-1.16-4.23v-.12Z" />
			<path class="cls-1"
				d="M71.19,170.31c-2.86-.9-4-2.06-4-4.13S68.52,163,70.79,163c2.5,0,3.69,1.65,3.76,5.21v.12h.12c.75,0,1.23,0,1.23,0H76v-.12c0-4.43-1.79-6.68-5.31-6.68-3,0-5.09,1.89-5.09,4.7s1.36,4.18,4.84,5.3c3.74,1.19,4.45,2.3,4.45,3.95,0,2-1.37,3.22-3.58,3.22a4,4,0,0,1-3-1.07A4.87,4.87,0,0,1,67.21,174v-.12h-.12c-.68,0-1.26,0-1.26,0h-.13V174a6.12,6.12,0,0,0,1.43,4.68,5.54,5.54,0,0,0,4.13,1.54c3.16,0,5.2-1.86,5.2-4.73C76.46,172.83,75.13,171.53,71.19,170.31Z" />
			<path class="cls-1"
				d="M96.6,176.78c-.06,2.11-.12,3.56-.12,3.58v.13h.13c.85,0,1.39,0,1.4,0h.13v-.13c-.14-14.05,0-25.23,0-25.34v-.13H98c-.89,0-1.32,0-1.32,0h-.13l.05,3.28c0,2.73.08,5,.09,6.58a5.47,5.47,0,0,0-5-3.78c-3.84,0-6.14,3.79-6.14,10.13,0,5.74,2.27,9.16,6.06,9.16A5.34,5.34,0,0,0,96.6,176.78Zm-4.82,2.09c-3,0-4.7-2.93-4.7-8.26,0-4,1.68-8,4.48-8a3.8,3.8,0,0,1,2.79,1.16c1.41,1.42,2.15,4,2.13,7.53h0C96.48,175.81,94.59,178.87,91.78,178.87Z" />
			<path class="cls-1"
				d="M101.41,171c0,5.87,2.33,9.38,6.24,9.38,3.21,0,5.34-2.45,5.85-6.73l0-.14h-.14c-.85,0-1.24,0-1.25,0H112l0,.12c-.45,3.46-2,5.36-4.34,5.36-2.76,0-4.45-2.53-4.66-7,6.57-.21,10.27-.21,10.31-.21h.12v-.12c.12-3.84-.69-6.87-2.29-8.52a4.63,4.63,0,0,0-3.45-1.44C103.93,161.7,101.41,165.44,101.41,171Zm1.59-.49c.13-3.6,1.62-7.42,4.62-7.42s4.21,3.7,4.26,7.21C106.21,170.49,103.68,170.52,103,170.52Z" />
			<path class="cls-1"
				d="M135,180.46h.13a11.78,11.78,0,0,1,1.28,0h.13v-.13c0-.07,0-7-.07-12.42-.09-4.08-1.53-6.06-4.41-6.06a5.56,5.56,0,0,0-5,3.76c-.29-2.84-1.64-4.33-3.93-4.33S119,163,118,165.63c0-1.89.07-3.24.07-3.26v-.12H118c-.79,0-1.3,0-1.3,0h-.13v.13c.11,9.93.11,16.7.11,16.77v.13h.13c.71,0,1.3,0,1.3,0h.12v-.12s-.14-4.79-.11-8.42c0-4.7,2.67-8,5.06-8,1.67,0,2.54,1.46,2.58,4.34.11,5.23.07,11.31.07,11.37v.13h.13c.64,0,1.3,0,1.3,0h.12v-.12s-.11-4.14-.07-7.88c0-4.09,2.07-7.18,4.81-7.18,1.93,0,2.86,1.45,2.93,4.56.11,5.16,0,12.41,0,12.49Z" />
			<path class="cls-1"
				d="M145.71,180.52c4,0,6.32-3.59,6.32-9.84,0-5.83-2.46-9.59-6.28-9.59s-6.28,3.81-6.28,9.7C139.46,177,141.74,180.52,145.71,180.52Zm0-18c3.23,0,4.7,4.21,4.7,8.12,0,5.13-1.86,8.44-4.73,8.44s-4.7-3.16-4.7-8.44C141,166.61,142.63,162.53,145.74,162.53Z" />
			<path class="cls-1"
				d="M157.28,176a2.66,2.66,0,0,0-1.36,2.12c0,.69.33,1.6,1.82,2.2-2.33.93-3.66,2.55-3.66,4.46,0,2.56,2.2,4.16,5.74,4.16,4.36,0,7.65-2.25,7.65-5.24,0-2.21-1.7-3.45-5.51-4s-4.46-1-4.46-1.78a1.71,1.71,0,0,1,.94-1.37,5.65,5.65,0,0,0,1.75.24c3.62,0,5.78-2.87,5.78-7.68,0-1.34-.22-4.63-2.28-6.62,1.83-4,3.15-6.73,3.17-6.76l.06-.12-1.54-.64,0,.12c-1.25,3.13-2.22,5.36-2.64,6.32l-.11.25a5.31,5.31,0,0,0-2.39-.57c-3.92,0-5.71,4.1-5.71,7.9C154.47,172.36,155.44,174.78,157.28,176Zm-1.58,8.67c0-1.58,1.47-3,4-3.8l.6.09c2.83.41,5.49.8,5.49,2.81,0,1.81-2.16,3.69-5.78,3.69C157.28,187.44,155.7,186.42,155.7,184.65Zm4.48-22.08c3.12,0,4.23,3.3,4.23,6.39,0,4.07-1.5,6.32-4.23,6.32S156,173,156,169C156,165.13,157.69,162.56,160.18,162.56Z" />
			<path class="cls-1"
				d="M168.75,162.28h-.13v.13c.07,8.79,0,17.16,0,17.24v.13h.13c.82,0,1.37,0,1.37,0h.13v-.12s-.18-4.18-.11-8.41c.1-4.71,2.06-7.56,5.66-8.23l.1,0V161.4l-.14,0a7.19,7.19,0,0,0-5.76,4.69c0-2.09.07-3.72.07-3.73v-.14H170C169.47,162.28,168.75,162.28,168.75,162.28Z" />
			<path class="cls-1"
				d="M182.79,161.09c-3.22,0-5.23,2.33-5.38,6.24v.12h.12c.67,0,1.25.11,1.25.11l.13,0v-.13c.19-3.26,1.49-4.85,4-4.85,2.9,0,3.57,2.34,3.62,4.31l.07,1.71c-7.21.19-9.79,3.55-9.79,6.64a4.5,4.5,0,0,0,4.84,4.77,5.44,5.44,0,0,0,5.12-3.17c0,2.17-.1,3.42-.1,3.43v.14h.14l1.22,0h.12v-.12c0-.06.11-5.67-.07-13.18C188,163.22,186.09,161.09,182.79,161.09Zm-.86,17.5h-.07c-2.27,0-3.48-1.2-3.48-3.37,0-1.49.8-5,8.21-5.27,0,.88,0,1.62,0,2.71a6.36,6.36,0,0,1-1.63,4.66A4.4,4.4,0,0,1,181.92,178.58Z" />
			<path class="cls-1"
				d="M191.48,187.7h.13s.51,0,1.43,0h.13v-.13s-.17-3.68-.25-10.27a5.19,5.19,0,0,0,4.8,3.24c4,0,6.28-3.46,6.28-9.74,0-6-2.38-9.7-6.21-9.7a5.29,5.29,0,0,0-4.88,3.73c0-.58,0-1.39,0-2.84v-.13h-.13s-.55,0-1.23,0h-.12V162c0,.13,0,13.21,0,25.59Zm6.32-25.17a3.31,3.31,0,0,1,2.39,1.07c1.44,1.45,2.26,4.18,2.23,7.48h0c0,4.94-1.77,8-4.63,8-3,0-4.81-3-4.81-7.94C193,165.91,194.88,162.53,197.8,162.53Z" />
			<path class="cls-1"
				d="M216.86,180.41H217l.7,0c.38,0,.6,0,.61,0h.11v-.11c0-.07.11-6.7,0-13.4-.11-3.84-1.49-5.63-4.33-5.63H214c-2.24,0-4.28,1.7-5.25,4.32,0-5.18,0-10.22,0-10.27v-.13h-.13c-.71,0-1.28,0-1.29,0h-.13v.13c.14,13.52.14,23.76.14,23.86v.13h.13c.6,0,1.14,0,1.14,0h.13v-.12s0-4.86,0-8.39c0-5.06,2.66-8.08,5.17-8.08,2.09,0,2.89,1.26,3,4.66.11,6.72,0,12.86,0,12.92Z" />
			<path class="cls-1"
				d="M222.37,179.77h.13c.81,0,1.25,0,1.25,0h.13v-.13c-.14-11.49-.11-17.82-.11-17.89v-.13h-.13c-.67,0-1.21,0-1.22,0h-.13v.13c.14,13.06.07,17.84.07,17.89Z" />
			<path class="cls-1"
				d="M223,155.83c-.82,0-1.28.58-1.28,1.64S222.25,159,223,159s1.28-.61,1.28-1.6S223.82,155.83,223,155.83Z" />
			<path class="cls-1"
				d="M239.5,172.89v-.13h-.13l-1.26-.07H238v.12c-.29,4.2-1.71,6.33-4.23,6.33-3.12,0-4.77-2.86-4.77-8.26,0-5.22,1.78-8.33,4.77-8.33,2.48,0,3.82,1.92,4.09,5.86v.12h1.51v-.13c-.18-4.65-2.22-7.32-5.6-7.32-3.9,0-6.32,3.73-6.32,9.74,0,3.79.79,6.64,2.36,8.22a5.26,5.26,0,0,0,3.88,1.52C237.32,180.52,239.17,178.1,239.5,172.89Z" />
			<path class="cls-1"
				d="M250.71,167.93c.75,0,1.23,0,1.23,0h.13v-.12c0-2.44-.5-4.25-1.62-5.39a5,5,0,0,0-3.69-1.36c-3.54,0-5.13,2.4-5.13,4.77,0,2.74,1.3,4.24,4.8,5.55,3.9,1.43,4.56,2.48,4.56,4.27,0,2-1.35,3.26-3.62,3.26a4,4,0,0,1-3-1c-.84-.86-1.22-2.24-1.16-4.23v-.12h-.12l-1.26-.07h-.13v.13c-.11,2.36.39,4.15,1.51,5.32a5.36,5.36,0,0,0,4.05,1.51c3.25,0,5.27-1.83,5.27-4.77,0-2.69-1.34-4.12-5.12-5.45-3-1.05-4.2-2.29-4.2-4.42s1.39-3.22,3.62-3.22c2.5,0,3.76,1.76,3.76,5.24v.12Z" />
			<path class="cls-1"
				d="M262.58,179.38h.13c.81,0,1.25,0,1.25,0h.13v-.13c-.14-11.49-.11-17-.11-17v-.13h-.13c-.67,0-1.25,0-1.25,0h-.13v.13c.14,13.06.11,17,.11,17Z" />
			<path class="cls-1"
				d="M263.21,156.3c-.79,0-1.28.61-1.28,1.6s.51,1.57,1.28,1.57,1.28-.61,1.28-1.6S264,156.3,263.21,156.3Z" />
			<path class="cls-1"
				d="M277.82,180.6h.37c.23,0,.56,0,.94,0h.11v-.11c0-.12,0-11.69-.07-13.57-.08-3.82-1.45-5.59-4.3-5.59s-4.49,2.07-5.35,4.21c0-1.71.08-3.31.08-3.32V162h-.14c-.67,0-1.25,0-1.25,0h-.13v.13c.07,10.1,0,16.85,0,16.92v.13h.13a11.78,11.78,0,0,1,1.21,0h.13v-.13c0-.06,0-6,0-8.67,0-4.19,2.37-7.72,5.17-7.72,2.11,0,3,1.35,3,4.66v13.22Z" />
			<path class="cls-1"
				d="M289.22,161.95l0-.12-.12,0s-.51.07-1.25.11h-.14l0,.14c0,.06,1.22,6.14,3.64,17l0,.08h.08a15.69,15.69,0,0,0,1.64.11h.1l0-.1s.91-4.33,3.87-15.84c.34,1.49,1.47,6.44,3.84,16.74l0,.1h.1s.8,0,1.73-.11h.09l0-.09c0-.06,1.36-6.51,4.1-18.93l0-.15h-.16s-.51,0-1.25-.07h-.11l0,.11c0,.05-1.11,5.33-3.62,16.67-.38-1.58-1.59-6.74-3.73-16l0-.1H298s-.48,0-1.9,0H296l0,.09s-1.25,5-3.63,15.38C292,175.77,291.08,171.67,289.22,161.95Z" />
			<path class="cls-1"
				d="M317.58,180.42h.14l1.22,0h.12v-.12c0-.06.11-5.67-.07-13.18-.1-3.86-2-6-5.27-6s-5.23,2.33-5.38,6.24v.12h.12c.67,0,1.25.11,1.25.11l.13,0v-.13c.19-3.26,1.49-4.85,4-4.85,2.9,0,3.57,2.34,3.62,4.31l.07,1.71c-7.21.19-9.79,3.55-9.79,6.64a4.5,4.5,0,0,0,4.84,4.77,5.44,5.44,0,0,0,5.12-3.17c0,2.17-.1,3.42-.1,3.43Zm-4.73-1.84h-.07c-2.27,0-3.48-1.2-3.48-3.37,0-1.49.8-5,8.21-5.27,0,.88,0,1.62,0,2.71a6.36,6.36,0,0,1-1.63,4.66A4.4,4.4,0,0,1,312.85,178.58Z" />
			<path class="cls-1"
				d="M333.14,161.15l-.14,0s-.52-.07-1.41-.14h-.11l0,.1s-1.23,5-4.52,16.49c-.46-1.6-2.19-7.63-4.6-15.53l0-.1-1.66.13,0,.15c0,.05,1.7,5.14,5.39,17.78-.07.28-.59,2.44-2.19,7.48l0,.13.13,0a7.09,7.09,0,0,1,1.16.42l.13.06,0-.13c0-.06,1.83-6,7.78-26.71Z" />
			<path class="cls-1"
				d="M343.3,167.93c.75,0,1.23,0,1.23,0h.13v-.12c0-2.44-.5-4.25-1.62-5.39a5,5,0,0,0-3.69-1.36c-3.54,0-5.13,2.4-5.13,4.77,0,2.74,1.3,4.24,4.8,5.55,3.9,1.43,4.56,2.48,4.56,4.27,0,2-1.35,3.26-3.62,3.26a4,4,0,0,1-3-1c-.84-.86-1.22-2.24-1.16-4.23v-.12h-.12l-1.26-.07h-.13v.13c-.11,2.36.39,4.15,1.51,5.32a5.36,5.36,0,0,0,4.05,1.51c3.25,0,5.27-1.83,5.27-4.77,0-2.69-1.34-4.12-5.12-5.45-3-1.05-4.2-2.29-4.2-4.42s1.39-3.22,3.62-3.22c2.5,0,3.76,1.76,3.76,5.24v.12Z" />
			<path class="cls-1"
				d="M355.64,156.91V157s0,1.89-.07,4.73l-2.45-.07v.13s0,.4,0,1.11v.13h2.49c0,2.33,0,6.87,0,12,.07,3.12,1.56,4.84,4.19,4.84a9.24,9.24,0,0,0,3.25-.69l.1,0,0-.11s-.11-.47-.21-1.07l0-.15-.14,0a8.7,8.7,0,0,1-2.8.61c-1.84,0-2.79-1.19-2.83-3.55-.11-4.76-.1-9.07-.07-11.89,1.15,0,2.57,0,4.2.05l1.47,0v-.12s0-.41,0-1.13v-.13h-.13s-2.12,0-5.6,0c0-2.81.07-4.68.07-4.7v-.13H357s-.65,0-1.22,0Z" />
			<path class="cls-1"
				d="M375.33,180.41h.12l.7,0c.38,0,.6,0,.61,0h.11v-.11c0-.07.11-6.7,0-13.4-.11-3.84-1.49-5.63-4.33-5.63h-.06c-2.24,0-4.28,1.7-5.25,4.32,0-5.18,0-10.22,0-10.27v-.13h-.13c-.71,0-1.28,0-1.29,0h-.13v.13c.14,13.52.14,23.76.14,23.86v.13h.13c.6,0,1.14,0,1.14,0h.13v-.12s0-4.86,0-8.39c0-5.06,2.66-8.08,5.17-8.08,2.09,0,2.89,1.26,3,4.66.11,6.72,0,12.86,0,12.92Z" />
			<path class="cls-1"
				d="M379.9,167.33v.12H380c.67,0,1.25.11,1.25.11l.13,0v-.13c.19-3.26,1.49-4.85,4-4.85,2.9,0,3.57,2.34,3.62,4.31l.07,1.71c-7.21.19-9.79,3.55-9.79,6.64a4.5,4.5,0,0,0,4.84,4.77,5.44,5.44,0,0,0,5.12-3.17c0,2.17-.1,3.42-.1,3.43v.14h.14l1.22,0h.13v-.12c0-.06.11-5.67-.07-13.18-.1-3.86-2-6-5.27-6S380.05,163.42,379.9,167.33Zm4.45,11.25c-2.27,0-3.48-1.2-3.48-3.37,0-1.49.8-5,8.21-5.27,0,.88,0,1.62,0,2.71a6.36,6.36,0,0,1-1.63,4.66A4.44,4.44,0,0,1,384.35,178.58Z" />
			<path class="cls-1"
				d="M402.49,180l.11,0,0-.12s-.11-.47-.21-1.07l0-.13-.13,0a11.54,11.54,0,0,1-2.78.46c-1.95,0-2.83-1-2.86-3.41-.11-4.86-.1-9.23-.07-12.08,1.15,0,2.57,0,4.2.05l1.47,0v-.12s0-.41,0-1.13v-.13h-.13s-2.12,0-5.6,0c0-2.67.07-4.43.07-4.44v-.12l-1.47-.09v.13s-.07,1.81-.07,4.52l-2.45-.07v.13s0,.44,0,1.11v.13H395c0,3.89,0,8.34,0,12.22.07,3.11,1.48,4.69,4.19,4.69A12.08,12.08,0,0,0,402.49,180Z" />
			<path class="cls-1"
				d="M417.65,180.52c4,0,6.32-3.59,6.32-9.84,0-5.83-2.46-9.59-6.28-9.59s-6.28,3.81-6.28,9.7C411.4,177,413.68,180.52,417.65,180.52Zm0-18c3.23,0,4.7,4.21,4.7,8.12,0,5.13-1.86,8.44-4.73,8.44s-4.7-3.16-4.7-8.44C412.95,166.61,414.57,162.53,417.68,162.53Z" />
			<path class="cls-1"
				d="M435.22,179.22l0-.11s-.11-.47-.21-1.07l0-.15-.14,0a8.7,8.7,0,0,1-2.8.61c-1.84,0-2.79-1.19-2.83-3.55-.11-4.76-.1-9.07-.07-11.89,1.15,0,2.57,0,4.2.05l1.47,0v-.12s0-.41,0-1.13v-.13h-.13s-2.12,0-5.6,0c0-2.81.07-4.68.07-4.7v-.13h-.13s-.65,0-1.22,0h-.13V157s0,1.89-.07,4.73l-2.45-.07v.13s0,.4,0,1.11v.13h2.49c0,2.33,0,6.87,0,12,.07,3.12,1.56,4.84,4.19,4.84a9.24,9.24,0,0,0,3.25-.69Z" />
			<path class="cls-1"
				d="M448.95,180.41v-.11c0-.07.11-6.7,0-13.4-.11-3.84-1.49-5.63-4.33-5.63h-.06c-2.24,0-4.28,1.7-5.25,4.32,0-5.18,0-10.22,0-10.27v-.13h-.13c-.71,0-1.28,0-1.29,0h-.13v.13c.14,13.52.14,23.76.14,23.86v.13H438c.6,0,1.14,0,1.14,0h.13v-.12s0-4.86,0-8.39c0-5.06,2.66-8.08,5.17-8.08,2.09,0,2.89,1.26,3,4.66.11,6.72,0,12.86,0,12.92v.12h.12l.7,0c.38,0,.6,0,.61,0Z" />
			<path class="cls-1"
				d="M451.9,170.79c0,6.1,2.33,9.74,6.24,9.74,3.14,0,5.33-2.62,5.85-7l0-.13-1.51-.13,0,.12c-.47,3.69-2,5.72-4.34,5.72-2.8,0-4.49-2.72-4.66-7.46,6.58-.32,10.27-.35,10.31-.35h.12v-.12c.12-3.9-.68-7-2.27-8.59a4.65,4.65,0,0,0-3.47-1.43C454.37,161.13,451.9,164.92,451.9,170.79Zm1.59-.59c.13-3.84,1.6-7.67,4.62-7.67,2.57,0,4.2,2.79,4.27,7.28C456.58,170.13,454.34,170.19,453.49,170.2Z" />
			<path class="cls-1"
				d="M468.5,162.23h-.14c-.49,0-1.21,0-1.21,0H467v.13c.07,8.79,0,17.16,0,17.24v.13h.13c.82,0,1.37,0,1.38,0h.12v-.12s-.18-4.18-.11-8.41c.1-4.71,2.06-7.56,5.66-8.23l.1,0V161.4l-.14,0a7.19,7.19,0,0,0-5.76,4.69c0-2.09.07-3.72.07-3.73Z" />
			<path class="cls-1"
				d="M489.86,180.52c4,0,6.24-3.58,6.24-9.81a13.09,13.09,0,0,0-1.71-7.2,5.12,5.12,0,0,0-4.39-2.43,5.34,5.34,0,0,0-5,3.72c0-5,.07-9.41.07-9.46v-.12h-.12c-.75,0-1.26,0-1.27,0h-.13v.13c.11,17.12.07,25,.07,25.05v.12h.12c.58,0,1.21,0,1.24,0h.12v-.12C485,179.14,485,178,485,177A5.17,5.17,0,0,0,489.86,180.52Zm0-1.37c-2.94,0-4.7-3.1-4.7-8.3,0-5,1.86-8.3,4.73-8.3,3.06,0,4.66,4,4.66,8C494.56,175.95,492.8,179.16,489.86,179.16Z" />
			<path class="cls-1"
				d="M506.58,162.47V161h-.14a7.12,7.12,0,0,0-5.76,4.74c0-1.79.07-2.9.07-2.91v-.14h-.14c-.49,0-1.21,0-1.21,0h-.13v.13c.07,8.79,0,16.34,0,16.41v.13h.13c.82,0,1.37,0,1.38,0h.12v-.12s-.18-4.22-.11-8.45c.11-4.52,2.22-7.61,5.66-8.27Z" />
			<path class="cls-1"
				d="M518.78,180.38v-.12c0-.06.11-5.67-.07-13.18-.1-3.86-2-6-5.27-6s-5.23,2.33-5.38,6.24v.12h.12c.67,0,1.25.11,1.25.11l.13,0v-.13c.19-3.26,1.49-4.85,4-4.85,2.9,0,3.57,2.34,3.62,4.31l.07,1.71c-7.21.19-9.79,3.55-9.79,6.64a4.5,4.5,0,0,0,4.84,4.77,5.44,5.44,0,0,0,5.12-3.17c0,2.17-.1,3.42-.1,3.43v.14h.14l1.22,0Zm-6.28-1.8c-2.27,0-3.48-1.2-3.48-3.37,0-1.49.8-5,8.21-5.27,0,.88,0,1.62,0,2.71a6.36,6.36,0,0,1-1.63,4.66A4.44,4.44,0,0,1,512.51,178.58Z" />
			<path class="cls-1"
				d="M529,161.27c-2.71,0-4.49,2.07-5.35,4.21,0-1.71.08-3.31.08-3.32V162h-.14c-.67,0-1.25,0-1.25,0h-.13v.13c.07,10.1,0,16.85,0,16.92v.13h.13a11.78,11.78,0,0,1,1.21,0h.13v-.13c0-.06,0-6,0-8.67,0-4.19,2.37-7.72,5.17-7.72,2.11,0,3,1.35,3,4.66v13.22h.49c.23,0,.56,0,.94,0h.11v-.11c0-.12,0-11.69-.07-13.57C533.17,163,531.81,161.27,529,161.27Z" />
			<path class="cls-1"
				d="M547.37,164.83a5.47,5.47,0,0,0-5-3.78c-3.84,0-6.14,3.79-6.14,10.13,0,5.74,2.27,9.16,6.06,9.16a5.34,5.34,0,0,0,5-3.57c-.06,2.11-.12,3.56-.12,3.58v.13h.13c.85,0,1.39,0,1.4,0h.13v-.13c-.14-14.05,0-25.23,0-25.34v-.13h-.13c-.89,0-1.32,0-1.33,0h-.13l.05,3.28C547.32,161,547.36,163.22,547.37,164.83Zm-4.88,14c-3,0-4.7-2.93-4.7-8.26,0-4,1.68-8,4.48-8a3.8,3.8,0,0,1,2.79,1.16c1.41,1.42,2.15,4,2.13,7.53h0C547.19,175.81,545.3,178.87,542.49,178.87Z" />
			<path class="cls-1"
				d="M560.88,167.93c.75,0,1.23,0,1.23,0h.13v-.12c0-2.44-.5-4.25-1.62-5.39a5,5,0,0,0-3.69-1.36c-3.54,0-5.13,2.4-5.13,4.77,0,2.74,1.3,4.24,4.8,5.55,3.9,1.43,4.56,2.48,4.56,4.27,0,2-1.35,3.26-3.62,3.26a4,4,0,0,1-3-1c-.84-.86-1.22-2.24-1.16-4.23v-.12h-.12l-1.26-.07h-.13v.13c-.11,2.36.39,4.15,1.51,5.32a5.36,5.36,0,0,0,4.05,1.51c3.25,0,5.27-1.83,5.27-4.77,0-2.69-1.34-4.12-5.12-5.45-3-1.05-4.2-2.29-4.2-4.42s1.39-3.22,3.62-3.22c2.5,0,3.76,1.76,3.76,5.24v.12Z" />
			<path class="cls-1"
				d="M58.52,214.68H58.4v.12c-.29,4.2-1.71,6.33-4.23,6.33-3.12,0-4.77-2.86-4.77-8.26,0-5.22,1.78-8.33,4.77-8.33,2.48,0,3.82,1.92,4.09,5.86v.12h1.51v-.13c-.18-4.65-2.22-7.32-5.6-7.32-3.9,0-6.32,3.73-6.32,9.74,0,3.8.79,6.64,2.36,8.22a5.26,5.26,0,0,0,3.88,1.52c3.63,0,5.48-2.43,5.81-7.64v-.13h-.13Z" />
			<path class="cls-1"
				d="M67.8,203.09c-3.22,0-5.23,2.33-5.38,6.24v.12h.12c.67,0,1.25.11,1.25.11l.13,0v-.13c.19-3.26,1.49-4.85,4-4.85,2.9,0,3.57,2.34,3.62,4.31l.07,1.71c-7.21.19-9.79,3.55-9.79,6.64A4.5,4.5,0,0,0,66.65,222a5.44,5.44,0,0,0,5.12-3.17c0,2.17-.1,3.42-.1,3.43v.14h.14l1.22,0h.13v-.12c0-.06.11-5.67-.07-13.18C73,205.22,71.1,203.09,67.8,203.09Zm-.86,17.5h-.07c-2.27,0-3.48-1.2-3.48-3.37,0-1.49.8-5,8.21-5.27,0,.88,0,1.62,0,2.71A6.36,6.36,0,0,1,70,219.32,4.4,4.4,0,0,1,66.94,220.58Z" />
			<path class="cls-1"
				d="M83.32,203.27c-2.71,0-4.49,2.07-5.35,4.21,0-1.71.08-3.31.08-3.32V204h-.14c-.67,0-1.25,0-1.25,0h-.13v.13c.07,10.1,0,16.85,0,16.92v.13h.13a12,12,0,0,1,1.2,0H78v-.13c0-.06,0-6,0-8.67,0-4.19,2.37-7.72,5.17-7.72,2.11,0,3,1.35,3,4.66v13.22h.49c.23,0,.56,0,.94,0h.11v-.11c0-.12,0-11.69-.07-13.57C87.54,205,86.17,203.27,83.32,203.27Z" />
			<path class="cls-1"
				d="M103.58,203.09c-3.82,0-6.28,3.81-6.28,9.7,0,6.19,2.28,9.74,6.24,9.74s6.32-3.59,6.32-9.84C109.87,206.85,107.4,203.09,103.58,203.09Zm0,18c-2.94,0-4.7-3.16-4.7-8.44,0-4,1.63-8.12,4.73-8.12s4.7,4.21,4.7,8.12C108.28,217.77,106.42,221.09,103.55,221.09Z" />
			<path class="cls-1"
				d="M122.81,221.73s.55,0,1.3,0h.12v-.12c0-.1,0-10.28-.07-12.17-.08-3.82-1.45-5.59-4.3-5.59s-4.49,2.07-5.35,4.21c0-1.73.08-3.38.08-3.4v-.14h-.14c-.67,0-1.25,0-1.25,0h-.13v.13c.07,10.1,0,17.24,0,17.31v.13h.13a11.48,11.48,0,0,1,1.21,0h.13V222c0-.06,0-6.33,0-9,0-4.19,2.37-7.72,5.17-7.72,2.11,0,3,1.35,3,4.66v11.82Z" />
			<path class="cls-1"
				d="M129.49,196.8h-.12a13.09,13.09,0,0,0-1.35,0h-.12v.12c0,.09,0,9.07-.11,24.73v.12h.12s.52,0,1.34,0h.13v-.13s0-5.12.11-24.76Z" />
			<path class="cls-1"
				d="M144,203.15l-.14,0s-.52-.07-1.41-.14h-.11l0,.1s-1.23,5-4.52,16.49c-.46-1.6-2.19-7.63-4.6-15.53l0-.1-1.66.13,0,.15s1.7,5.14,5.39,17.78c-.07.28-.59,2.44-2.19,7.48l0,.13.13,0a7.09,7.09,0,0,1,1.16.42l.13.06,0-.13c0-.06,1.83-6,7.78-26.71Z" />
			<path class="cls-1"
				d="M158.2,222.35a5.34,5.34,0,0,0,5-3.57c-.06,2.11-.12,3.56-.12,3.58v.13h.13c.85,0,1.39,0,1.4,0h.13v-.13c-.14-14.05,0-25.23,0-25.34v-.13h-.13c-.89,0-1.32,0-1.32,0h-.13l.05,3.28c0,2.73.08,5,.09,6.58a5.47,5.47,0,0,0-5-3.78c-3.84,0-6.14,3.79-6.14,10.13C152.13,218.92,154.4,222.35,158.2,222.35Zm.18-1.47c-3,0-4.7-2.93-4.7-8.26,0-4,1.68-8,4.48-8a3.8,3.8,0,0,1,2.79,1.16c1.41,1.42,2.15,4,2.13,7.53h0C163.07,217.81,161.19,220.87,158.38,220.87Z" />
			<path class="cls-1"
				d="M175.61,205l.1,0V203.4l-.14,0a7.19,7.19,0,0,0-5.76,4.69c0-2.09.07-3.72.07-3.73v-.14h-.14c-.49,0-1.21,0-1.21,0h-.13v.13c.07,8.79,0,17.16,0,17.24v.13h.13c.82,0,1.37,0,1.37,0h.13v-.12s-.18-4.18-.11-8.41C170.05,208.48,172,205.63,175.61,205Z" />
			<path class="cls-1"
				d="M189.13,213.27v-.12c.12-3.9-.68-7-2.27-8.59a4.65,4.65,0,0,0-3.47-1.43c-3.82,0-6.28,3.79-6.28,9.66,0,6.1,2.33,9.74,6.24,9.74,3.14,0,5.33-2.62,5.85-7l0-.13-1.51-.13,0,.12c-.47,3.69-2,5.72-4.34,5.72-2.8,0-4.49-2.72-4.66-7.46,6.58-.32,10.27-.35,10.31-.35Zm-5.81-8.75c2.57,0,4.2,2.79,4.27,7.28-5.79.32-8,.38-8.89.39C178.83,208.36,180.3,204.53,183.32,204.53Z" />
			<path class="cls-1"
				d="M196.14,222a5.44,5.44,0,0,0,5.12-3.17c0,2.17-.1,3.42-.1,3.43v.14h.14l1.22,0h.13v-.12c0-.06.11-5.67-.07-13.18-.1-3.86-2-6-5.27-6s-5.23,2.33-5.38,6.24v.12H192c.67,0,1.25.11,1.25.11l.13,0v-.13c.19-3.26,1.49-4.85,4-4.85,2.9,0,3.57,2.34,3.62,4.31l.07,1.71c-7.21.19-9.79,3.55-9.79,6.64A4.5,4.5,0,0,0,196.14,222Zm.29-1.44h-.07c-2.27,0-3.48-1.2-3.48-3.37,0-1.49.8-5,8.21-5.27,0,.88,0,1.62,0,2.71a6.36,6.36,0,0,1-1.63,4.66A4.4,4.4,0,0,1,196.43,220.58Z" />
			<path class="cls-1"
				d="M226,222.46v-.13c0-.07,0-7-.07-12.42-.09-4.08-1.53-6.06-4.41-6.06a5.56,5.56,0,0,0-5,3.76c-.29-2.84-1.64-4.33-3.93-4.33s-4.15,1.69-5.16,4.36c0-1.88.07-3.24.07-3.26v-.12h-.12c-.79,0-1.3,0-1.3,0H206v.13c.11,9.93.11,16.71.11,16.77v.13h.13c.71,0,1.3,0,1.3,0h.13v-.12s-.14-4.79-.11-8.42c0-4.7,2.67-8,5.06-8,1.67,0,2.54,1.46,2.58,4.34.11,5.23.07,11.31.07,11.37v.13h.13c.64,0,1.3,0,1.3,0h.12v-.12s-.11-4.14-.07-7.88c0-4.09,2.07-7.18,4.81-7.18,1.93,0,2.86,1.45,2.93,4.56.11,5.16,0,12.41,0,12.49v.13h.13a11.76,11.76,0,0,1,1.28,0Z" />
			<path class="cls-1"
				d="M230.41,218.17c-1,0-1.6.77-1.6,1.92s.63,1.89,1.6,1.89,1.6-.75,1.6-2A1.63,1.63,0,0,0,230.41,218.17Z" />
			<path class="cls-1"
				d="M247.62,222.31c4.5,0,6.42-4,6.42-13.23A73.25,73.25,0,0,0,252.64,196l0-.12-1.54.21,0,.13a75.11,75.11,0,0,1,1.4,13.08c0,10.23-2.33,11.65-4.84,11.65-3.42,0-4.88-3.72-4.88-12.44a69.81,69.81,0,0,1,1-10.92l0-.12-.12,0c-.75-.11-1.3-.14-1.3-.14h-.11l0,.11a72.14,72.14,0,0,0-1,11.39C241.23,218.13,243.2,222.31,247.62,222.31Z" />
			<path class="cls-1"
				d="M263.75,204.71c2.11,0,3,1.35,3,4.66v13.22h.49c.23,0,.56,0,.94,0h.11v-.11c0-.12,0-11.69-.07-13.57-.08-3.82-1.45-5.59-4.3-5.59s-4.49,2.07-5.35,4.21c0-1.71.08-3.31.08-3.32V204h-.14c-.67,0-1.25,0-1.25,0h-.13v.13c.07,10.1,0,16.85,0,16.92v.13h.13a11.94,11.94,0,0,1,1.2,0h.14v-.13c0-.06,0-6,0-8.67C258.58,208.24,260.95,204.71,263.75,204.71Z" />
			<path class="cls-1"
				d="M273.52,196.8h-.12a13.09,13.09,0,0,0-1.35,0h-.12v.12c0,.09,0,9.07-.11,24.73v.12h.12s.52,0,1.34,0h.13v-.13s0-5.12.11-24.76Z" />
			<path class="cls-1"
				d="M283.19,222.52c3.14,0,5.33-2.62,5.85-7l0-.13-1.51-.13,0,.12c-.47,3.69-2,5.72-4.34,5.72-2.8,0-4.49-2.72-4.66-7.46,6.58-.32,10.27-.35,10.31-.35H289v-.12c.12-3.9-.68-7-2.27-8.59a4.65,4.65,0,0,0-3.47-1.43c-3.82,0-6.28,3.79-6.28,9.66C276.94,218.89,279.28,222.52,283.19,222.52Zm0-18c2.57,0,4.2,2.79,4.27,7.28-5.79.32-8,.38-8.89.39C278.66,208.36,280.13,204.53,283.15,204.53Z" />
			<path class="cls-1"
				d="M301.08,218.85c0,2.17-.1,3.42-.1,3.43v.14h.14l1.22,0h.13v-.12c0-.06.11-5.67-.07-13.18-.1-3.86-2-6-5.27-6s-5.23,2.33-5.38,6.24v.12h.12c.67,0,1.25.11,1.25.11l.13,0v-.13c.19-3.26,1.49-4.85,4-4.85,2.9,0,3.57,2.34,3.62,4.31l.07,1.71c-7.21.19-9.79,3.55-9.79,6.64A4.5,4.5,0,0,0,296,222,5.44,5.44,0,0,0,301.08,218.85Zm-4.83,1.73h-.07c-2.27,0-3.48-1.2-3.48-3.37,0-1.49.8-5,8.21-5.27,0,.88,0,1.62,0,2.71a6.36,6.36,0,0,1-1.63,4.66A4.4,4.4,0,0,1,296.25,220.58Z" />
			<path class="cls-1"
				d="M316,217.65c0-2.69-1.34-4.12-5.12-5.45-3-1.05-4.2-2.29-4.2-4.42s1.39-3.22,3.62-3.22c2.5,0,3.76,1.76,3.76,5.24v.12h.12c.75,0,1.23,0,1.23,0h.12v-.12c0-2.44-.5-4.25-1.62-5.39a5,5,0,0,0-3.69-1.36c-3.54,0-5.13,2.39-5.13,4.77,0,2.74,1.3,4.24,4.8,5.55,3.9,1.43,4.56,2.48,4.56,4.27,0,2-1.35,3.26-3.62,3.26a4,4,0,0,1-3-1c-.84-.86-1.22-2.24-1.16-4.23v-.12h-.12l-1.26-.07h-.13v.13c-.11,2.36.39,4.15,1.51,5.32a5.36,5.36,0,0,0,4.05,1.51C314,222.42,316,220.59,316,217.65Z" />
			<path class="cls-1"
				d="M320.25,197.18h-.13c-.71,0-1.28,0-1.28,0h-.13v.13c.14,13.52.14,23.76.14,23.86v.13H319c.6,0,1.14,0,1.14,0h.13v-.12s0-4.86,0-8.39c0-5.06,2.66-8.08,5.17-8.08,2.09,0,2.89,1.26,3,4.66.11,6.72,0,12.86,0,12.92v.12h.12l.7,0c.38,0,.6,0,.61,0h.11v-.11c0-.07.11-6.7,0-13.4-.11-3.84-1.49-5.63-4.33-5.63h-.06c-2.24,0-4.28,1.7-5.25,4.32,0-5.18,0-10.22,0-10.27Z" />
			<path class="cls-1"
				d="M350.7,203.15l-.14,0s-.52-.07-1.41-.14H349l0,.1s-1.23,5-4.52,16.49c-.46-1.6-2.19-7.63-4.6-15.53l0-.1-1.66.13,0,.15s1.7,5.14,5.39,17.78c-.07.28-.59,2.44-2.19,7.48l0,.13.13,0a7.09,7.09,0,0,1,1.16.42l.13.06,0-.13c0-.06,1.83-6,7.78-26.71Z" />
			<path class="cls-1"
				d="M358,222.52c4,0,6.32-3.59,6.32-9.84,0-5.83-2.46-9.59-6.28-9.59s-6.28,3.81-6.28,9.7C351.75,219,354,222.52,358,222.52Zm0-18c3.23,0,4.7,4.21,4.7,8.12,0,5.13-1.86,8.44-4.73,8.44s-4.7-3.16-4.7-8.44C353.29,208.61,354.92,204.53,358,204.53Z" />
			<path class="cls-1"
				d="M376.8,222.16h.12l.57,0,.74,0h.12V222c-.07-10.1,0-19,0-19.08v-.13h-1.55V203c0,.06.11,5.73.07,9.82,0,4.83-2.25,7.72-4.37,7.72-2.35,0-3.8-1.4-3.8-8.37a77.54,77.54,0,0,1,.43-7.8v-.13H369c-.68,0-1.22,0-1.23,0h-.11v.11a73.76,73.76,0,0,0-.47,7.86c0,6.78,1.54,9.81,5,9.81,2,0,3.79-1.39,4.76-3.75,0,2.19-.1,3.81-.1,3.83Z" />
			<path class="cls-1"
				d="M383.61,213.19c.1-4.71,2.06-7.56,5.66-8.23l.1,0V203.4l-.14,0a7.19,7.19,0,0,0-5.76,4.69c0-2.09.07-3.72.07-3.73v-.14h-.14c-.49,0-1.21,0-1.21,0h-.13v.13c.07,8.79,0,17.16,0,17.24v.13h.13c.82,0,1.37,0,1.38,0h.12v-.12S383.54,217.42,383.61,213.19Z" />
			<path class="cls-1"
				d="M411.14,212.72a13.09,13.09,0,0,0-1.71-7.2,5.12,5.12,0,0,0-4.39-2.43,5.34,5.34,0,0,0-5,3.72c0-5,.07-9.41.07-9.46v-.12H400c-.75,0-1.26,0-1.26,0h-.13v.13c.11,17.12.07,25,.07,25.05v.12h.12a12.24,12.24,0,0,0,1.24,0h.12v-.12c-.05-1.22-.09-2.39-.1-3.34a5.17,5.17,0,0,0,4.87,3.5C408.87,222.52,411.14,218.95,411.14,212.72Zm-6.24,8.44c-2.94,0-4.7-3.1-4.7-8.3,0-5,1.86-8.3,4.73-8.3,3.06,0,4.66,4,4.66,8C409.6,217.95,407.84,221.16,404.9,221.16Z" />
			<path class="cls-1"
				d="M421.62,204.47V203l-.14,0a7.12,7.12,0,0,0-5.76,4.74c0-1.79.07-2.9.07-2.91v-.14h-.14c-.49,0-1.21,0-1.21,0h-.13v.13c.07,8.79,0,16.34,0,16.41v.13h.13c.82,0,1.37,0,1.37,0H416v-.12s-.18-4.22-.11-8.45c.11-4.52,2.22-7.61,5.66-8.27Z" />
			<path class="cls-1"
				d="M433.82,222.38v-.12c0-.06.11-5.67-.07-13.18-.1-3.86-2-6-5.27-6s-5.23,2.33-5.38,6.24v.12h.12c.67,0,1.25.11,1.25.11l.13,0v-.13c.19-3.26,1.49-4.85,4-4.85,2.9,0,3.57,2.34,3.62,4.31l.07,1.71c-7.21.19-9.79,3.55-9.79,6.64a4.5,4.5,0,0,0,4.84,4.77,5.44,5.44,0,0,0,5.12-3.17c0,2.17-.1,3.42-.1,3.43v.14h.14l1.22,0Zm-6.21-1.8h-.07c-2.27,0-3.48-1.2-3.48-3.37,0-1.49.8-5,8.21-5.27,0,.88,0,1.62,0,2.71a6.36,6.36,0,0,1-1.63,4.66A4.4,4.4,0,0,1,427.62,220.58Z" />
			<path class="cls-1"
				d="M446.94,222.6h.37c.23,0,.56,0,.94,0h.11v-.11c0-.12,0-11.69-.07-13.57-.08-3.82-1.45-5.59-4.3-5.59s-4.49,2.07-5.35,4.21c0-1.71.08-3.31.08-3.32V204h-.14c-.67,0-1.25,0-1.25,0h-.13v.13c.07,10.1,0,16.85,0,16.92v.13h.13c.63,0,1.2,0,1.21,0h.13v-.13c0-.06,0-6,0-8.67,0-4.19,2.37-7.72,5.17-7.72,2.11,0,3,1.35,3,4.66v13.22Z" />
			<path class="cls-1"
				d="M457.35,222.35a5.34,5.34,0,0,0,5-3.57c-.06,2.11-.12,3.56-.12,3.58v.13h.13c.85,0,1.39,0,1.4,0h.13v-.13c-.14-14.05,0-25.23,0-25.34v-.13h-.13c-.89,0-1.32,0-1.33,0h-.13l.05,3.28c0,2.73.08,5,.09,6.58a5.47,5.47,0,0,0-5-3.78c-3.84,0-6.14,3.79-6.14,10.13C451.29,218.92,453.55,222.35,457.35,222.35Zm.18-1.47c-3,0-4.7-2.93-4.7-8.26,0-4,1.68-8,4.48-8a3.8,3.8,0,0,1,2.79,1.16c1.41,1.42,2.15,4,2.13,7.53h0C462.23,217.81,460.34,220.87,457.53,220.87Z" />
			<path class="cls-1"
				d="M467.11,202.25l-.13.09.12.1a3.67,3.67,0,0,1,.55.69l.07.1.1-.06a5,5,0,0,0,2.51-4.53c0-1.37-.61-2.21-1.6-2.21s-1.53.79-1.53,2a1.79,1.79,0,0,0,1.36,1.9A4.24,4.24,0,0,1,467.11,202.25Z" />
			<path class="cls-1"
				d="M481.38,217.65c0-2.69-1.34-4.12-5.12-5.45-3-1.05-4.2-2.29-4.2-4.42s1.39-3.22,3.62-3.22c2.5,0,3.76,1.76,3.76,5.24v.12h.12c.75,0,1.23,0,1.23,0h.12v-.12c0-2.44-.5-4.25-1.62-5.39a5,5,0,0,0-3.69-1.36c-3.54,0-5.13,2.39-5.13,4.77,0,2.74,1.3,4.24,4.8,5.55,3.9,1.43,4.56,2.48,4.56,4.27,0,2-1.35,3.26-3.62,3.26a4,4,0,0,1-3-1c-.84-.86-1.22-2.24-1.16-4.23v-.12h-.12l-1.26-.07h-.13v.13c-.11,2.36.39,4.15,1.51,5.32a5.36,5.36,0,0,0,4.05,1.51C479.36,222.42,481.38,220.59,481.38,217.65Z" />
			<path class="cls-1"
				d="M497,222.49c4,0,6.28-3.46,6.28-9.74,0-6-2.38-9.7-6.21-9.7a5.29,5.29,0,0,0-4.88,3.73c0-.58,0-1.39,0-2.84v-.13h-.13s-.55,0-1.23,0h-.12V204c0,.13,0,13.21,0,25.59v.13h.13s.51,0,1.43,0h.13v-.13s-.17-3.68-.25-10.27A5.19,5.19,0,0,0,497,222.49Zm.07-18a3.31,3.31,0,0,1,2.39,1.07c1.44,1.45,2.26,4.18,2.23,7.48h0c0,4.94-1.77,8-4.63,8-3,0-4.81-3-4.81-7.94C492.29,207.91,494.17,204.53,497.09,204.53Z" />
			<path class="cls-1"
				d="M512.21,203.63c-3.84,0-6.32,3.74-6.32,9.52,0,8.63,4.86,9.3,6.35,9.3,3.89,0,6.21-3.5,6.21-9.38S516.07,203.63,512.21,203.63Zm0,1.44c2.9,0,4.7,3.11,4.7,8.12,0,4.78-1.83,7.87-4.66,7.87s-4.77-3-4.77-7.87C507.48,209.15,509.11,205.07,512.18,205.07Z" />
			<path class="cls-1"
				d="M530.31,203.55h-.11s-.48,0-1.9,0h-.1l0,.09s-1.25,5-3.63,15.38c-.32-1.3-1.29-5.4-3.14-15.12l0-.12-.12,0s-.51.07-1.25.11h-.14l0,.14c0,.06,1.22,6.14,3.64,17l0,.08h.08a15.69,15.69,0,0,0,1.64.11h.1l0-.1s.91-4.33,3.87-15.84c.34,1.49,1.47,6.44,3.84,16.74l0,.1h.1s.8,0,1.73-.11h.09l0-.09c0-.06,1.36-6.51,4.1-18.93l0-.15h-.16s-.51,0-1.25-.07h-.11l0,.11c0,.05-1.11,5.33-3.62,16.67-.38-1.58-1.59-6.74-3.73-16Z" />
			<path class="cls-1"
				d="M552.47,213.27v-.12c.12-3.9-.68-7-2.27-8.59a4.65,4.65,0,0,0-3.47-1.43c-3.82,0-6.28,3.79-6.28,9.66,0,6.1,2.33,9.74,6.24,9.74,3.14,0,5.33-2.62,5.85-7l0-.13-1.51-.13,0,.12c-.47,3.69-2,5.72-4.34,5.72-2.8,0-4.49-2.72-4.66-7.46,6.58-.32,10.27-.35,10.31-.35Zm-5.81-8.75c2.57,0,4.2,2.79,4.27,7.28-5.79.32-8,.38-8.89.39C542.17,208.36,543.65,204.53,546.67,204.53Z" />
			<path class="cls-1"
				d="M557,208.11c0-2.09.07-3.72.07-3.73v-.14h-.14c-.49,0-1.21,0-1.21,0h-.13v.13c.07,8.79,0,17.16,0,17.24v.13h.13c.82,0,1.37,0,1.38,0h.12v-.12s-.18-4.18-.11-8.41c.1-4.71,2.06-7.56,5.66-8.23l.1,0V203.4l-.14,0A7.19,7.19,0,0,0,557,208.11Z" />
			<path class="cls-1"
				d="M88.77,259.25A4.5,4.5,0,0,0,93.62,264a5.44,5.44,0,0,0,5.12-3.17c0,2.17-.1,3.42-.1,3.43v.14h.14l1.22,0h.12v-.12c0-.06.11-5.67-.07-13.18-.1-3.86-2-6-5.27-6s-5.23,2.33-5.38,6.24v.12h.12c.67,0,1.25.11,1.25.11l.13,0v-.13c.19-3.26,1.49-4.85,4-4.85,2.9,0,3.57,2.34,3.62,4.31l.07,1.71C91.35,252.81,88.77,256.16,88.77,259.25Zm5.13,3.33h-.07c-2.27,0-3.48-1.2-3.48-3.37,0-1.49.8-5,8.21-5.27,0,.88,0,1.62,0,2.71A6.36,6.36,0,0,1,97,261.32,4.4,4.4,0,0,1,93.9,262.58Z" />
			<path class="cls-1"
				d="M113.11,251.37v13.22h.49c.23,0,.56,0,.94,0h.11v-.11c0-.12,0-11.69-.07-13.57-.08-3.82-1.45-5.59-4.3-5.59s-4.49,2.07-5.35,4.21c0-1.71.08-3.31.08-3.32V246h-.14c-.67,0-1.25,0-1.25,0h-.13v.13c.07,10.1,0,16.85,0,16.92v.13h.13a11.6,11.6,0,0,1,1.2,0h.14v-.13c0-.06,0-6,0-8.67,0-4.19,2.37-7.72,5.17-7.72C112.25,246.71,113.11,248.06,113.11,251.37Z" />
			<path class="cls-1"
				d="M130.13,239.06v-.13H130c-.89,0-1.32,0-1.32,0h-.13l.05,3.28c0,2.73.08,5,.09,6.58a5.47,5.47,0,0,0-5-3.78c-3.84,0-6.14,3.79-6.14,10.13,0,5.74,2.27,9.16,6.06,9.16a5.34,5.34,0,0,0,5-3.57c-.06,2.11-.12,3.56-.12,3.58v.13h.13c.85,0,1.39,0,1.4,0h.13v-.13C130,250.35,130.13,239.17,130.13,239.06Zm-6.32,23.81c-3,0-4.7-2.93-4.7-8.26,0-4,1.68-8,4.48-8a3.8,3.8,0,0,1,2.79,1.16c1.41,1.42,2.15,4,2.13,7.53h0C128.52,259.81,126.63,262.87,123.82,262.87Z" />
			<path class="cls-1"
				d="M142,261.25a5.19,5.19,0,0,0,4.8,3.24c4,0,6.28-3.46,6.28-9.74,0-6-2.38-9.7-6.21-9.7a5.29,5.29,0,0,0-4.88,3.73c0-.58,0-1.39,0-2.84v-.13h-.13s-.55,0-1.23,0h-.12V246c0,.13,0,13.21,0,25.59v.13h.13s.51,0,1.43,0h.13v-.13S142.06,267.84,142,261.25Zm4.87-14.72a3.31,3.31,0,0,1,2.39,1.07c1.44,1.45,2.26,4.18,2.23,7.48h0c0,4.94-1.77,8-4.63,8-3,0-4.81-3-4.81-7.94C142.05,249.91,143.94,246.53,146.86,246.53Z" />
			<path class="cls-1"
				d="M168.22,255.08c0-5.83-2.39-9.45-6.24-9.45s-6.32,3.74-6.32,9.52c0,8.63,4.86,9.3,6.35,9.3C165.9,264.45,168.22,260.95,168.22,255.08Zm-6.28-8c2.9,0,4.7,3.11,4.7,8.12,0,4.78-1.83,7.87-4.66,7.87s-4.77-3-4.77-7.87C157.24,251.15,158.88,247.07,161.94,247.07Z" />
			<path class="cls-1"
				d="M172,257.54l-1.26-.07h-.13v.13c-.11,2.36.39,4.15,1.51,5.32a5.36,5.36,0,0,0,4.05,1.51c3.25,0,5.27-1.83,5.27-4.77,0-2.69-1.34-4.12-5.12-5.45-3-1.05-4.2-2.29-4.2-4.42s1.39-3.22,3.62-3.22c2.5,0,3.76,1.76,3.76,5.24v.12h.12c.75,0,1.23,0,1.23,0h.12v-.12c0-2.44-.5-4.25-1.62-5.39a5,5,0,0,0-3.69-1.36c-3.54,0-5.13,2.39-5.13,4.77,0,2.74,1.3,4.24,4.8,5.55,3.9,1.43,4.56,2.48,4.56,4.27,0,2-1.35,3.26-3.62,3.26a4,4,0,0,1-3-1c-.84-.86-1.22-2.24-1.16-4.23v-.12Z" />
			<path class="cls-1"
				d="M194.21,259.47c0-2.64-1.33-3.94-5.27-5.16-2.86-.9-4-2.06-4-4.13s1.31-3.19,3.58-3.19c2.5,0,3.69,1.65,3.76,5.21v.12h.12c.75,0,1.23,0,1.23,0h.13v-.12c0-4.43-1.79-6.68-5.31-6.68-3,0-5.09,1.89-5.09,4.7s1.36,4.18,4.84,5.3c3.74,1.19,4.45,2.3,4.45,3.95,0,2-1.37,3.22-3.58,3.22a4,4,0,0,1-3-1.07A4.87,4.87,0,0,1,185,258v-.12h-.12c-.68,0-1.26,0-1.27,0h-.12V258a6.12,6.12,0,0,0,1.43,4.68A5.54,5.54,0,0,0,189,264.2C192.17,264.2,194.21,262.34,194.21,259.47Z" />
			<path class="cls-1"
				d="M197.6,263.77h.13c.81,0,1.25,0,1.25,0h.13v-.13c-.14-11.49-.11-17.82-.11-17.89v-.13h-.13c-.67,0-1.21,0-1.22,0h-.13v.13c.14,13.06.07,17.84.07,17.89Z" />
			<path class="cls-1"
				d="M198.27,239.83c-.82,0-1.28.58-1.28,1.64s.49,1.53,1.24,1.53,1.28-.61,1.28-1.6S199.05,239.83,198.27,239.83Z" />
			<path class="cls-1"
				d="M215.63,254.72a13.08,13.08,0,0,0-1.71-7.2,5.12,5.12,0,0,0-4.39-2.43,5.34,5.34,0,0,0-5,3.72c0-5,.07-9.41.07-9.46v-.12h-.12c-.75,0-1.26,0-1.26,0h-.13v.13c.11,17.12.07,25,.07,25.05v.12h.12c.58,0,1.21,0,1.24,0h.12v-.12c-.05-1.22-.09-2.39-.1-3.34a5.17,5.17,0,0,0,4.87,3.5C213.36,264.52,215.63,260.95,215.63,254.72Zm-6.24,8.44c-2.94,0-4.7-3.1-4.7-8.3,0-5,1.86-8.3,4.73-8.3,3.06,0,4.66,4,4.66,8C214.09,259.95,212.33,263.16,209.39,263.16Z" />
			<path class="cls-1"
				d="M219.45,263.38h.13c.81,0,1.25,0,1.25,0H221v-.13c-.14-11.49-.11-17-.11-17v-.13h-.13c-.67,0-1.25,0-1.25,0h-.13v.13c.14,13.06.11,17,.11,17Z" />
			<path class="cls-1"
				d="M220.08,240.3c-.79,0-1.28.61-1.28,1.6s.51,1.57,1.28,1.57,1.28-.61,1.28-1.6S220.9,240.3,220.08,240.3Z" />
			<path class="cls-1"
				d="M225.4,238.79h-.12v.12c0,.09,0,9.07-.11,24.73v.12h.12s.52,0,1.34,0h.13v-.13s0-5.12.11-24.76v-.12h-.12A12.74,12.74,0,0,0,225.4,238.79Z" />
			<path class="cls-1"
				d="M231.29,263.77h.13c.81,0,1.25,0,1.25,0h.13v-.13c-.14-11.49-.11-17.82-.11-17.89v-.13h-.13c-.67,0-1.21,0-1.21,0h-.13v.13c.14,13.06.07,17.84.07,17.89Z" />
			<path class="cls-1"
				d="M232,239.83c-.82,0-1.28.58-1.28,1.64s.49,1.53,1.24,1.53,1.28-.61,1.28-1.6S232.75,239.83,232,239.83Z" />
			<path class="cls-1"
				d="M245.39,263.22l0-.11s-.11-.47-.21-1.07l0-.15-.14,0a8.7,8.7,0,0,1-2.8.61c-1.84,0-2.79-1.19-2.83-3.55-.11-4.76-.1-9.07-.07-11.89,1.15,0,2.57,0,4.2.05l1.47,0v-.12s0-.41,0-1.13v-.13h-.13s-2.12,0-5.6,0c0-2.81.07-4.68.07-4.7v-.13h-.13s-.65,0-1.22,0h-.13V241s0,1.89-.07,4.73l-2.45-.07v.13s0,.4,0,1.11v.13h2.49c0,2.33,0,6.87,0,12,.07,3.12,1.56,4.84,4.19,4.84a9.24,9.24,0,0,0,3.25-.69Z" />
			<path class="cls-1"
				d="M249.33,271.62l.13,0a7.09,7.09,0,0,1,1.16.42l.13.06,0-.13c0-.06,1.83-6,7.78-26.71l0-.14-.14,0s-.52-.07-1.41-.14H257l0,.1s-1.23,5-4.52,16.49c-.46-1.6-2.19-7.63-4.6-15.53l0-.1-1.66.13,0,.15s1.7,5.14,5.39,17.78c-.07.28-.59,2.44-2.19,7.48Z" />
			<path class="cls-1"
				d="M262.87,263.13l0,.08H263a15.69,15.69,0,0,0,1.64.11h.1l0-.1s.91-4.33,3.87-15.84c.34,1.49,1.47,6.44,3.84,16.74l0,.1h.1s.8,0,1.73-.11h.09l0-.09c0-.06,1.36-6.51,4.1-18.93l0-.15h-.16s-.51,0-1.25-.07H277l0,.11c0,.05-1.11,5.33-3.62,16.67-.38-1.58-1.59-6.74-3.73-16l0-.1h-.11s-.48,0-1.9,0h-.1l0,.09s-1.25,5-3.63,15.38c-.32-1.3-1.29-5.4-3.14-15.12l0-.12-.12,0s-.51.07-1.25.11h-.14l0,.14C259.25,246.16,260.45,252.24,262.87,263.13Z" />
			<path class="cls-1"
				d="M281.82,239.83c-.82,0-1.28.58-1.28,1.64S281,243,281.78,243s1.28-.61,1.28-1.6S282.61,239.83,281.82,239.83Z" />
			<path class="cls-1"
				d="M281.15,263.77h.13c.81,0,1.25,0,1.25,0h.13v-.13c-.14-11.49-.11-17.82-.11-17.89v-.13h-.13c-.67,0-1.21,0-1.21,0h-.13v.13c.14,13.06.07,17.84.07,17.89Z" />
			<path class="cls-1"
				d="M295.14,264l.11,0,0-.12s-.11-.47-.21-1.07l0-.13-.13,0a11.54,11.54,0,0,1-2.78.46c-1.95,0-2.83-1-2.86-3.41-.11-4.86-.1-9.23-.07-12.08,1.15,0,2.57,0,4.2.05l1.47,0v-.12s0-.41,0-1.13v-.13h-.13s-2.12,0-5.6,0c0-2.67.07-4.43.07-4.44v-.12l-1.47-.09v.13s-.07,1.81-.07,4.52l-2.45-.07v.13s0,.44,0,1.11v.13h2.49c0,3.89,0,8.34,0,12.22.07,3.11,1.48,4.69,4.19,4.69A12.08,12.08,0,0,0,295.14,264Z" />
			<path class="cls-1"
				d="M307.43,264.41h.12l.7,0c.38,0,.6,0,.61,0H309v-.11c0-.07.11-6.7,0-13.4-.11-3.84-1.49-5.63-4.33-5.63h-.06c-2.24,0-4.28,1.7-5.25,4.32,0-5.18,0-10.22,0-10.27v-.13h-.13c-.71,0-1.28,0-1.28,0h-.13v.13c.14,13.52.14,23.76.14,23.86v.13H298c.6,0,1.14,0,1.14,0h.13v-.12s0-4.86,0-8.39c0-5.06,2.66-8.08,5.17-8.08,2.09,0,2.89,1.26,3,4.66.11,6.72,0,12.86,0,12.92Z" />
			<path class="cls-1"
				d="M324.88,264.52c3.63,0,5.48-2.43,5.81-7.64v-.13h-.13l-1.26-.07h-.12v.12c-.29,4.2-1.71,6.33-4.23,6.33-3.12,0-4.77-2.86-4.77-8.26,0-5.22,1.78-8.33,4.77-8.33,2.48,0,3.82,1.92,4.09,5.86v.12h1.51v-.13c-.18-4.65-2.22-7.32-5.6-7.32-3.9,0-6.32,3.73-6.32,9.74,0,3.8.79,6.64,2.36,8.22A5.26,5.26,0,0,0,324.88,264.52Z" />
			<path class="cls-1"
				d="M338.59,245.09c-3.22,0-5.23,2.33-5.38,6.24v.12h.12c.67,0,1.25.11,1.25.11l.13,0v-.13c.19-3.26,1.49-4.85,4-4.85,2.9,0,3.57,2.34,3.62,4.31l.07,1.71c-7.21.19-9.79,3.55-9.79,6.64a4.5,4.5,0,0,0,4.84,4.77,5.44,5.44,0,0,0,5.12-3.17c0,2.17-.1,3.42-.1,3.43v.14h.14l1.22,0h.13v-.12c0-.06.11-5.67-.07-13.18C343.76,247.22,341.89,245.09,338.59,245.09Zm-.86,17.5h-.07c-2.27,0-3.48-1.2-3.48-3.37,0-1.49.8-5,8.21-5.27,0,.88,0,1.62,0,2.71a6.36,6.36,0,0,1-1.63,4.66A4.4,4.4,0,0,1,337.73,262.58Z" />
			<path class="cls-1"
				d="M355.67,262.76l0-.13-.13,0a11.54,11.54,0,0,1-2.78.46c-1.95,0-2.83-1-2.86-3.41-.11-4.86-.1-9.23-.07-12.08,1.15,0,2.57,0,4.2.05l1.47,0v-.12s0-.41,0-1.13v-.13h-.13s-2.12,0-5.6,0c0-2.67.07-4.43.07-4.44v-.12l-1.47-.09v.13s-.07,1.81-.07,4.52l-2.45-.07v.13s0,.44,0,1.11v.13h2.49c0,3.89,0,8.34,0,12.22.07,3.11,1.48,4.69,4.19,4.69a12.08,12.08,0,0,0,3.24-.54l.11,0,0-.12S355.78,263.36,355.67,262.76Z" />
			<path class="cls-1"
				d="M363.72,264.38c3.54,0,5.5-2.46,5.81-7.32v-.13h-.13c-.71,0-1.26,0-1.26,0H368V257c-.22,3.85-1.73,6-4.23,6-3,0-4.77-2.87-4.77-7.87s1.83-8.15,4.77-8.15c2.43,0,3.84,1.83,4.09,5.28v.13H368l1.22-.07h.13v-.12c-.19-4.2-2.26-6.71-5.52-6.71-3.92,0-6.35,3.67-6.35,9.59,0,3.55.78,6.24,2.32,7.79A5.32,5.32,0,0,0,363.72,264.38Z" />
			<path class="cls-1"
				d="M379.24,245.27h-.06c-2.24,0-4.28,1.7-5.25,4.32,0-5.18,0-10.22,0-10.27v-.13h-.13c-.71,0-1.28,0-1.29,0h-.13v.13c.14,13.52.14,23.76.14,23.86v.13h.13c.6,0,1.14,0,1.14,0h.13v-.12s0-4.86,0-8.39c0-5.06,2.66-8.08,5.17-8.08,2.09,0,2.89,1.26,3,4.66.11,6.72,0,12.86,0,12.92v.12h.12l.7,0c.38,0,.6,0,.61,0h.11v-.11c0-.07.11-6.7,0-13.4C383.46,247.06,382.08,245.27,379.24,245.27Z" />
			<path class="cls-1"
				d="M388.4,271.62l.13,0a7.09,7.09,0,0,1,1.16.42l.13.06,0-.13c0-.06,1.83-6,7.78-26.71l0-.14-.14,0s-.52-.07-1.41-.14H396l0,.1s-1.23,5-4.52,16.49c-.46-1.6-2.19-7.63-4.6-15.53l0-.1-1.66.13,0,.15s1.7,5.14,5.39,17.78c-.07.28-.59,2.44-2.19,7.48Z" />
			<path class="cls-1"
				d="M416.46,256.9h-.12V257c-.22,3.85-1.73,6-4.23,6-3,0-4.77-2.87-4.77-7.87s1.83-8.15,4.77-8.15c2.43,0,3.84,1.83,4.09,5.28v.13h.13l1.22-.07h.13v-.12c-.19-4.2-2.26-6.71-5.52-6.71-3.92,0-6.35,3.67-6.35,9.59,0,3.55.78,6.24,2.32,7.79a5.32,5.32,0,0,0,3.92,1.55c3.54,0,5.5-2.46,5.81-7.32v-.13h-.13C417,256.9,416.46,256.9,416.46,256.9Z" />
			<path class="cls-1"
				d="M426.61,245.63c-3.84,0-6.32,3.74-6.32,9.52,0,8.63,4.86,9.3,6.35,9.3,3.89,0,6.21-3.5,6.21-9.38S430.46,245.63,426.61,245.63Zm0,1.44c2.9,0,4.7,3.11,4.7,8.12,0,4.78-1.83,7.87-4.66,7.87s-4.77-3-4.77-7.87C421.87,251.15,423.51,247.07,426.57,247.07Z" />
			<path class="cls-1"
				d="M445.28,262.38v.13h.13c.64,0,1.3,0,1.3,0h.13v-.12s-.11-4.14-.07-7.88c0-4.09,2.07-7.18,4.81-7.18,1.93,0,2.86,1.45,2.93,4.56.11,5.16,0,12.41,0,12.49v.13h.13a12.1,12.1,0,0,1,1.28,0H456v-.13c0-.07,0-7-.07-12.42-.09-4.08-1.53-6.06-4.41-6.06a5.56,5.56,0,0,0-5,3.76c-.29-2.84-1.64-4.33-3.93-4.33s-4.15,1.69-5.16,4.36c0-1.88.07-3.24.07-3.26v-.12h-.12c-.79,0-1.3,0-1.3,0H436v.13c.11,9.93.11,16.71.11,16.77v.13h.13c.71,0,1.3,0,1.3,0h.13v-.12s-.14-4.79-.11-8.42c0-4.7,2.67-8,5.06-8,1.67,0,2.54,1.46,2.58,4.34C445.31,256.24,445.28,262.32,445.28,262.38Z" />
			<path class="cls-1"
				d="M477.82,263.49h.13a12.13,12.13,0,0,1,1.28,0h.13v-.13c0-.05,0-5.32-.07-10.77-.09-4.08-1.53-6.06-4.41-6.06a5.56,5.56,0,0,0-4.95,3.74c-.25-3-1.61-4.64-3.94-4.64-2.18,0-4.15,1.69-5.16,4.36,0-1.72.07-2.88.07-2.9V247h-.12c-.79,0-1.3,0-1.3,0h-.13v.13c.11,9.93.11,16.67.11,16.74v.13h.13c.72,0,1.3,0,1.3,0H461v-.12c0-.05-.14-5.11-.11-8.74,0-4.7,2.67-8,5.06-8,1.67,0,2.54,1.46,2.58,4.34.11,5.23.07,12.52.07,12.59v.13h.13c.64,0,1.3,0,1.3,0h.13v-.12s-.11-5-.07-8.78c0-4.09,2.07-7.18,4.81-7.18,1.93,0,2.86,1.45,2.93,4.56.11,5.16,0,10.77,0,10.83Z" />
			<path class="cls-1"
				d="M492.87,257.37c-.47,3.69-2,5.72-4.34,5.72-2.8,0-4.49-2.72-4.66-7.46,6.58-.32,10.27-.35,10.31-.35h.12v-.12c.12-3.9-.68-7-2.27-8.59a4.65,4.65,0,0,0-3.47-1.43c-3.82,0-6.28,3.79-6.28,9.66,0,6.1,2.33,9.74,6.24,9.74,3.14,0,5.33-2.62,5.85-7l0-.13-1.51-.13Zm-4.38-10.84c2.57,0,4.2,2.79,4.27,7.28-5.79.32-8,.38-8.89.39C484,250.36,485.47,246.53,488.49,246.53Z" />
			<path class="cls-1"
				d="M504.61,247l.1,0V245.4l-.14,0a7.19,7.19,0,0,0-5.76,4.69c0-2.09.07-3.72.07-3.73v-.14h-.14c-.49,0-1.21,0-1.21,0h-.13v.13c.07,8.79,0,17.16,0,17.24v.13h.13c.82,0,1.37,0,1.37,0h.13v-.12s-.18-4.18-.11-8.41C499.05,250.48,501,247.63,504.61,247Z" />
			<path class="cls-1"
				d="M512.43,246.53c2.48,0,3.82,1.92,4.09,5.86v.12H518v-.13c-.18-4.65-2.22-7.32-5.6-7.32-3.9,0-6.32,3.73-6.32,9.74,0,3.8.79,6.64,2.36,8.22a5.26,5.26,0,0,0,3.88,1.52c3.63,0,5.48-2.43,5.81-7.64v-.13h-.13l-1.26-.07h-.12v.12c-.29,4.2-1.71,6.33-4.23,6.33-3.12,0-4.77-2.86-4.77-8.26C507.66,249.64,509.45,246.53,512.43,246.53Z" />
			<path class="cls-1"
				d="M521.63,263.77h.13c.81,0,1.25,0,1.25,0h.13v-.13c-.14-11.49-.11-17.82-.11-17.89v-.13h-.13c-.67,0-1.21,0-1.21,0h-.13v.13c.14,13.06.07,17.84.07,17.89Z" />
			<path class="cls-1"
				d="M522.3,239.83c-.82,0-1.28.58-1.28,1.64s.49,1.53,1.24,1.53,1.28-.61,1.28-1.6S523.09,239.83,522.3,239.83Z" />
			<path class="cls-1"
				d="M537.5,264.38v-.12c0-.06.11-5.67-.07-13.18-.1-3.86-2-6-5.27-6s-5.23,2.33-5.38,6.24v.12h.12c.67,0,1.25.11,1.25.11l.13,0v-.13c.19-3.26,1.49-4.85,4-4.85,2.9,0,3.57,2.34,3.62,4.31l.07,1.71c-7.21.19-9.79,3.55-9.79,6.64A4.5,4.5,0,0,0,531,264a5.44,5.44,0,0,0,5.12-3.17c0,2.17-.1,3.42-.1,3.43v.14h.14l1.22,0Zm-6.21-1.8h-.07c-2.27,0-3.48-1.2-3.48-3.37,0-1.49.8-5,8.21-5.27,0,.88,0,1.62,0,2.71a6.36,6.36,0,0,1-1.63,4.66A4.4,4.4,0,0,1,531.3,262.58Z" />
			<path class="cls-1"
				d="M542.8,238.8h-.12a12.75,12.75,0,0,0-1.35,0h-.12v.12c0,.09,0,9.07-.11,24.73v.12h.12s.52,0,1.34,0h.13v-.13s0-5.12.11-24.76Z" />
			<path class="cls-1"
				d="M555,251.93c.75,0,1.23,0,1.23,0h.13v-.12c0-2.44-.5-4.25-1.62-5.39a5,5,0,0,0-3.69-1.36c-3.54,0-5.13,2.39-5.13,4.77,0,2.74,1.3,4.24,4.8,5.55,3.9,1.43,4.56,2.48,4.56,4.27,0,2-1.35,3.26-3.62,3.26a4,4,0,0,1-3-1c-.84-.86-1.22-2.24-1.16-4.23v-.12h-.12l-1.26-.07H546v.13c-.11,2.36.39,4.15,1.51,5.32a5.36,5.36,0,0,0,4.05,1.51c3.25,0,5.27-1.83,5.27-4.77,0-2.69-1.34-4.12-5.12-5.45-3-1.05-4.2-2.29-4.2-4.42s1.39-3.22,3.62-3.22c2.5,0,3.76,1.76,3.76,5.24v.12Z" />
			<path class="cls-1"
				d="M558.8,266l-.12.08.09.11a7.93,7.93,0,0,1,.53.71l.07.1.1-.07a5.18,5.18,0,0,0,2.76-4.5c0-1.34-.63-2.25-1.56-2.25A1.68,1.68,0,0,0,559,262a1.93,1.93,0,0,0,1.36,2A4,4,0,0,1,558.8,266Z" />
			<path class="cls-1"
				d="M100.47,287.13h-.1l0,.1c0,.05-1.44,5.26-4.6,16.1-.43-1.32-2-6.16-4.66-15.42l0-.1h-.11s-.51.07-1.32.11h-.16l.05.16s1.59,4.89,5.36,17.49l0,.08H95s.45,0,1.37.07h.09l0-.09c0-.06,1.88-5.76,5.47-18.29l0-.16h-.17S101.35,287.2,100.47,287.13Z" />
			<path class="cls-1"
				d="M105.73,287.72v-.13h-.13c-.67,0-1.21,0-1.22,0h-.13v.13c.14,13.06.07,17.84.07,17.89v.13h.13c.81,0,1.25,0,1.25,0h.13v-.13C105.7,294.11,105.73,287.78,105.73,287.72Z" />
			<path class="cls-1"
				d="M105,281.83c-.82,0-1.28.58-1.28,1.64S104.21,285,105,285s1.28-.61,1.28-1.6S105.78,281.83,105,281.83Z" />
			<path class="cls-1"
				d="M111.46,305.72v-.12s-.18-4.18-.11-8.41c.1-4.71,2.06-7.56,5.66-8.23l.1,0V287.4l-.14,0a7.19,7.19,0,0,0-5.76,4.69c0-2.09.07-3.72.07-3.73v-.14h-.14c-.49,0-1.21,0-1.21,0h-.13v.13c.07,8.79,0,17.16,0,17.24v.13H110c.82,0,1.37,0,1.38,0Z" />
			<path class="cls-1"
				d="M118,301.25a4.5,4.5,0,0,0,4.84,4.77,5.44,5.44,0,0,0,5.12-3.17c0,2.17-.1,3.42-.1,3.43v.14H128l1.22,0h.12v-.12c0-.06.11-5.67-.07-13.18-.1-3.86-2-6-5.27-6s-5.23,2.33-5.38,6.24v.12h.12c.67,0,1.25.11,1.25.11l.13,0v-.13c.19-3.26,1.49-4.85,4-4.85,2.9,0,3.57,2.34,3.62,4.31l.07,1.71C120.55,294.81,118,298.16,118,301.25Zm5.13,3.33H123c-2.27,0-3.48-1.2-3.48-3.37,0-1.49.8-5,8.21-5.27,0,.88,0,1.62,0,2.71a6.36,6.36,0,0,1-1.63,4.66A4.4,4.4,0,0,1,123.1,304.58Z" />
			<path class="cls-1"
				d="M132.91,305.76H133s.52,0,1.34,0h.13v-.13s0-5.12.11-24.76v-.12h-.12a12.75,12.75,0,0,0-1.35,0H133v.12c0,.09,0,9.07-.11,24.73Z" />
			<path class="cls-1"
				d="M154.29,287.13h-.1l0,.1c0,.05-1.44,5.26-4.6,16.1-.43-1.32-2-6.16-4.66-15.42l0-.1h-.11s-.51.07-1.32.11h-.16l.05.16s1.59,4.89,5.36,17.49l0,.08h.08s.45,0,1.37.07h.09l0-.09c0-.06,1.88-5.76,5.47-18.29l0-.16h-.17S155.17,287.2,154.29,287.13Z" />
			<path class="cls-1"
				d="M158.15,305.77h.13c.81,0,1.25,0,1.25,0h.13v-.13c-.14-11.49-.11-17.82-.11-17.89v-.13h-.13c-.67,0-1.21,0-1.22,0h-.13v.13c.14,13.06.07,17.84.07,17.89Z" />
			<path class="cls-1"
				d="M158.81,281.83c-.82,0-1.28.58-1.28,1.64S158,285,158.78,285s1.28-.61,1.28-1.6S159.6,281.83,158.81,281.83Z" />
			<path class="cls-1"
				d="M174.29,302.78c-.06,2.11-.12,3.56-.12,3.58v.13h.13c.85,0,1.39,0,1.4,0h.13v-.13c-.14-14.05,0-25.23,0-25.34v-.13h-.13c-.89,0-1.32,0-1.32,0h-.13l.05,3.28c0,2.73.08,5,.09,6.58a5.47,5.47,0,0,0-5-3.78c-3.84,0-6.14,3.79-6.14,10.13,0,5.74,2.27,9.16,6.06,9.16A5.34,5.34,0,0,0,174.29,302.78Zm-4.82,2.09c-3,0-4.7-2.93-4.7-8.26,0-4,1.68-8,4.48-8a3.8,3.8,0,0,1,2.79,1.16c1.41,1.42,2.15,4,2.13,7.53h0C174.17,301.81,172.28,304.87,169.47,304.87Z" />
			<path class="cls-1"
				d="M185.34,306.38c3.21,0,5.34-2.45,5.85-6.73l0-.14h-.14c-.85,0-1.24,0-1.25,0h-.12l0,.12c-.45,3.46-2,5.36-4.34,5.36-2.76,0-4.45-2.53-4.66-7,6.57-.21,10.27-.21,10.31-.21h.12v-.12c.12-3.84-.69-6.87-2.29-8.52a4.63,4.63,0,0,0-3.45-1.44c-3.76,0-6.28,3.74-6.28,9.3C179.1,302.88,181.43,306.38,185.34,306.38Zm0-17.28c3.06,0,4.21,3.7,4.26,7.21-5.68.19-8.2.21-8.89.21C180.82,292.92,182.31,289.1,185.31,289.1Z" />
			<path class="cls-1"
				d="M200.07,306.52c4,0,6.32-3.59,6.32-9.84,0-5.83-2.46-9.59-6.28-9.59s-6.28,3.81-6.28,9.7C193.82,303,196.1,306.52,200.07,306.52Zm0-18c3.23,0,4.7,4.21,4.7,8.12,0,5.13-1.86,8.44-4.73,8.44s-4.7-3.16-4.7-8.44C195.37,292.61,197,288.53,200.1,288.53Z" />
			<path class="cls-1"
				d="M219.56,301.65c0-2.69-1.34-4.12-5.12-5.45-3-1.05-4.2-2.29-4.2-4.42s1.39-3.22,3.62-3.22c2.5,0,3.76,1.76,3.76,5.24v.12h.12c.75,0,1.23,0,1.23,0h.12v-.12c0-2.44-.5-4.25-1.62-5.39a5,5,0,0,0-3.69-1.36c-3.54,0-5.13,2.39-5.13,4.77,0,2.74,1.3,4.24,4.8,5.55,3.9,1.43,4.56,2.48,4.56,4.27,0,2-1.35,3.26-3.62,3.26a4,4,0,0,1-3-1c-.84-.86-1.22-2.24-1.16-4.23v-.12h-.12l-1.26-.07h-.13v.13c-.11,2.36.39,4.15,1.51,5.32a5.36,5.36,0,0,0,4.05,1.51C217.54,306.42,219.56,304.59,219.56,301.65Z" />
			<path class="cls-1"
				d="M237.88,306.42H238l1.22,0h.12v-.12c0-.06.11-5.67-.07-13.18-.1-3.86-2-6-5.27-6s-5.23,2.33-5.38,6.24v.12h.12c.67,0,1.25.11,1.25.11l.13,0v-.13c.19-3.26,1.49-4.85,4-4.85,2.9,0,3.57,2.34,3.62,4.31l.07,1.71c-7.21.19-9.79,3.55-9.79,6.64a4.5,4.5,0,0,0,4.84,4.77,5.44,5.44,0,0,0,5.12-3.17c0,2.17-.1,3.42-.1,3.43Zm-4.73-1.84h-.07c-2.27,0-3.48-1.2-3.48-3.37,0-1.49.8-5,8.21-5.27,0,.88,0,1.62,0,2.71a6.36,6.36,0,0,1-1.63,4.66A4.4,4.4,0,0,1,233.15,304.58Z" />
			<path class="cls-1"
				d="M252.36,293.37v13.22h.49c.23,0,.56,0,.94,0h.11v-.11c0-.12,0-11.69-.07-13.57-.08-3.82-1.45-5.59-4.3-5.59s-4.49,2.07-5.35,4.21c0-1.71.08-3.31.08-3.32V288h-.14c-.67,0-1.25,0-1.25,0h-.13v.13c.07,10.1,0,16.85,0,16.92v.13h.13a11.61,11.61,0,0,1,1.2,0h.14v-.13c0-.06,0-6,0-8.67,0-4.19,2.37-7.72,5.17-7.72C251.5,288.71,252.36,290.06,252.36,293.37Z" />
			<path class="cls-1"
				d="M267.89,302.78c-.06,2.11-.12,3.56-.12,3.58v.13h.13c.85,0,1.39,0,1.4,0h.13v-.13c-.14-14.05,0-25.23,0-25.34v-.13h-.13c-.89,0-1.32,0-1.32,0h-.13l.05,3.28c0,2.73.08,5,.09,6.58a5.47,5.47,0,0,0-5-3.78c-3.84,0-6.14,3.79-6.14,10.13,0,5.74,2.27,9.16,6.06,9.16A5.34,5.34,0,0,0,267.89,302.78Zm-4.82,2.09c-3,0-4.7-2.93-4.7-8.26,0-4,1.68-8,4.48-8a3.8,3.8,0,0,1,2.79,1.16c1.41,1.42,2.15,4,2.13,7.53h0C267.77,301.81,265.88,304.87,263.07,304.87Z" />
			<path class="cls-1"
				d="M280.53,299.54l-1.26-.07h-.13v.13c-.11,2.36.39,4.15,1.51,5.32a5.36,5.36,0,0,0,4.05,1.51c3.25,0,5.27-1.83,5.27-4.77,0-2.69-1.34-4.12-5.12-5.45-3-1.05-4.2-2.29-4.2-4.42s1.39-3.22,3.62-3.22c2.5,0,3.76,1.76,3.76,5.24v.12h.12c.75,0,1.23,0,1.23,0h.13v-.12c0-2.44-.5-4.25-1.62-5.39a5,5,0,0,0-3.69-1.36c-3.54,0-5.13,2.39-5.13,4.77,0,2.74,1.3,4.24,4.8,5.55,3.9,1.43,4.56,2.48,4.56,4.27,0,2-1.35,3.26-3.62,3.26a4,4,0,0,1-3-1c-.84-.86-1.22-2.24-1.16-4.23v-.12Z" />
			<path class="cls-1"
				d="M301.12,305.22l0-.11s-.11-.47-.21-1.07l0-.15-.14,0a8.7,8.7,0,0,1-2.8.61c-1.84,0-2.79-1.19-2.83-3.55-.11-4.76-.1-9.07-.07-11.89,1.15,0,2.57,0,4.2.05l1.47,0v-.12s0-.41,0-1.13v-.13h-.13s-2.12,0-5.6,0c0-2.81.07-4.68.07-4.7v-.13H295s-.65,0-1.22,0h-.13V283s0,1.89-.07,4.73l-2.45-.07v.13s0,.4,0,1.11v.13h2.49c0,2.33,0,6.87,0,12,.07,3.12,1.56,4.84,4.19,4.84a9.24,9.24,0,0,0,3.25-.69Z" />
			<path class="cls-1"
				d="M304.23,305.77h.13c.81,0,1.25,0,1.25,0h.13v-.13c-.14-11.49-.11-17.82-.11-17.89v-.13h-.13c-.67,0-1.21,0-1.21,0h-.13v.13c.14,13.06.07,17.84.07,17.89Z" />
			<path class="cls-1"
				d="M304.9,281.83c-.82,0-1.28.58-1.28,1.64s.49,1.53,1.24,1.53,1.28-.61,1.28-1.6S305.69,281.83,304.9,281.83Z" />
			<path class="cls-1"
				d="M321.37,298.89v-.13h-.13l-1.26-.07h-.12v.12c-.29,4.2-1.71,6.33-4.23,6.33-3.12,0-4.77-2.86-4.77-8.26,0-5.22,1.78-8.33,4.77-8.33,2.48,0,3.82,1.92,4.09,5.86v.12h1.51v-.13c-.18-4.65-2.22-7.32-5.6-7.32-3.9,0-6.32,3.73-6.32,9.74,0,3.8.79,6.64,2.36,8.22a5.26,5.26,0,0,0,3.88,1.52C319.19,306.52,321,304.1,321.37,298.89Z" />
			<path class="cls-1"
				d="M333.81,306.42h.08l1.4-.07h.2l-.1-.18s-2.19-3.91-6.33-11.16c.37-.47,2.64-3.35,6.07-7.64l.16-.2H335a13.65,13.65,0,0,1-1.57-.11h-.08l0,.06s-2.3,3.4-7.55,9.77c0-1.41,0-3,0-4.91,0-2.89,0-6.39,0-10.66v-.13h-.13a12.1,12.1,0,0,1-1.28,0h-.13v.13c0,.08.18,8,.14,23.86v.13h.13s.58,0,1.29,0h.14v-.14s-.07-1.28-.11-6.28l2.24-2.78c.76,1.21,2.72,4.55,5.73,10.21Z" />
			<path class="cls-1"
				d="M339,313.62l.13,0a7.09,7.09,0,0,1,1.16.42l.13.06,0-.13c0-.06,1.83-6,7.78-26.71l0-.14-.14,0s-.52-.07-1.41-.14h-.11l0,.1s-1.23,5-4.52,16.49c-.46-1.6-2.19-7.63-4.6-15.53l0-.1-1.66.13,0,.15s1.7,5.14,5.39,17.78c-.07.28-.59,2.44-2.19,7.48Z" />
			<path class="cls-1"
				d="M357.57,299.54l-1.26-.07h-.13v.13c-.11,2.36.39,4.15,1.51,5.32a5.36,5.36,0,0,0,4.05,1.51c3.25,0,5.27-1.83,5.27-4.77,0-2.69-1.34-4.12-5.12-5.45-3-1.05-4.2-2.29-4.2-4.42s1.39-3.22,3.62-3.22c2.5,0,3.76,1.76,3.76,5.24v.12h.12c.75,0,1.23,0,1.23,0h.13v-.12c0-2.44-.5-4.25-1.62-5.39a5,5,0,0,0-3.69-1.36c-3.54,0-5.13,2.39-5.13,4.77,0,2.74,1.3,4.24,4.8,5.55,3.9,1.43,4.56,2.48,4.56,4.27,0,2-1.35,3.26-3.62,3.26a4,4,0,0,1-3-1c-.84-.86-1.22-2.24-1.16-4.23v-.12Z" />
			<path class="cls-1"
				d="M375.38,306.52c4,0,6.32-3.59,6.32-9.84,0-5.83-2.46-9.59-6.28-9.59s-6.28,3.81-6.28,9.7C369.14,303,371.42,306.52,375.38,306.52Zm0-18c3.23,0,4.7,4.21,4.7,8.12,0,5.13-1.86,8.44-4.73,8.44s-4.7-3.16-4.7-8.44C370.69,292.61,372.31,288.53,375.42,288.53Z" />
			<path class="cls-1"
				d="M396.35,299.06v-.13h-.13c-.71,0-1.26,0-1.27,0h-.12V299c-.22,3.85-1.73,6-4.23,6-3,0-4.77-2.87-4.77-7.87s1.83-8.15,4.77-8.15c2.43,0,3.84,1.83,4.09,5.28v.13h.13l1.22-.07h.13v-.12c-.19-4.2-2.26-6.71-5.52-6.71-3.92,0-6.35,3.67-6.35,9.59,0,3.55.78,6.24,2.32,7.79a5.32,5.32,0,0,0,3.92,1.55C394.08,306.38,396,303.92,396.35,299.06Z" />
			<path class="cls-1"
				d="M399.81,305.77h.13c.81,0,1.25,0,1.25,0h.13v-.13c-.14-11.49-.11-17.82-.11-17.89v-.13h-.13c-.67,0-1.21,0-1.21,0h-.13v.13c.14,13.06.07,17.84.07,17.89Z" />
			<path class="cls-1"
				d="M400.48,281.83c-.82,0-1.28.58-1.28,1.64s.49,1.53,1.24,1.53,1.28-.61,1.28-1.6S401.27,281.83,400.48,281.83Z" />
			<path class="cls-1"
				d="M414.21,306.42h.14l1.22,0h.13v-.12c0-.06.11-5.67-.07-13.18-.1-3.86-2-6-5.27-6s-5.23,2.33-5.38,6.24v.12h.12c.67,0,1.25.11,1.25.11l.13,0v-.13c.19-3.26,1.49-4.85,4-4.85,2.9,0,3.57,2.34,3.62,4.31l.07,1.71c-7.21.19-9.79,3.55-9.79,6.64a4.5,4.5,0,0,0,4.84,4.77,5.44,5.44,0,0,0,5.12-3.17c0,2.17-.1,3.42-.1,3.43Zm-4.8-1.84c-2.27,0-3.48-1.2-3.48-3.37,0-1.49.8-5,8.21-5.27,0,.88,0,1.62,0,2.71a6.36,6.36,0,0,1-1.63,4.66A4.46,4.46,0,0,1,409.41,304.58Z" />
			<path class="cls-1"
				d="M420.87,305.81v-.13s0-5.12.11-24.76v-.12h-.12a12.74,12.74,0,0,0-1.35,0h-.12v.12c0,.09,0,9.07-.11,24.73v.12h.12s.52,0,1.34,0Z" />
			<path class="cls-1"
				d="M436.55,296.2c-3-1.05-4.2-2.29-4.2-4.42s1.39-3.22,3.62-3.22c2.5,0,3.76,1.76,3.76,5.24v.12h.12c.75,0,1.23,0,1.23,0h.12v-.12c0-2.44-.5-4.25-1.62-5.39a5,5,0,0,0-3.69-1.36c-3.54,0-5.13,2.39-5.13,4.77,0,2.74,1.3,4.24,4.8,5.55,3.9,1.43,4.56,2.48,4.56,4.27,0,2-1.35,3.26-3.62,3.26a4,4,0,0,1-3-1c-.84-.86-1.22-2.24-1.16-4.23v-.12h-.12l-1.26-.07h-.13v.13c-.11,2.36.39,4.15,1.51,5.32a5.36,5.36,0,0,0,4.05,1.51c3.25,0,5.27-1.83,5.27-4.77C441.68,299,440.34,297.53,436.55,296.2Z" />
			<path class="cls-1"
				d="M454.1,293.37c.11,6.72,0,12.86,0,12.92v.12h.12l.7,0c.38,0,.6,0,.61,0h.11v-.11c0-.07.11-6.7,0-13.4-.11-3.84-1.49-5.63-4.33-5.63h-.06c-2.24,0-4.28,1.7-5.25,4.32,0-5.18,0-10.22,0-10.27v-.13h-.13c-.71,0-1.28,0-1.28,0h-.13v.13c.14,13.52.14,23.76.14,23.86v.13h.13c.6,0,1.14,0,1.14,0h.13v-.12s0-4.86,0-8.39c0-5.06,2.66-8.08,5.17-8.08C453.22,288.71,454,290,454.1,293.37Z" />
			<path class="cls-1"
				d="M464.84,287.09c-3.82,0-6.28,3.81-6.28,9.7,0,6.19,2.28,9.74,6.24,9.74s6.32-3.59,6.32-9.84C471.12,290.85,468.66,287.09,464.84,287.09Zm0,18c-2.94,0-4.7-3.16-4.7-8.44,0-4,1.63-8.12,4.73-8.12s4.7,4.21,4.7,8.12C469.54,301.77,467.68,305.09,464.81,305.09Z" />
			<path class="cls-1"
				d="M481.5,289l.1,0V287.4l-.14,0a7.19,7.19,0,0,0-5.76,4.69c0-2.09.07-3.72.07-3.73v-.14h-.14c-.49,0-1.21,0-1.21,0h-.13v.13c.07,8.79,0,17.16,0,17.24v.13h.13c.82,0,1.37,0,1.37,0H476v-.12s-.18-4.18-.11-8.41C475.94,292.48,477.9,289.63,481.5,289Z" />
			<path class="cls-1"
				d="M492.69,304l0-.15-.14,0a8.7,8.7,0,0,1-2.8.61c-1.84,0-2.79-1.19-2.83-3.55-.11-4.76-.1-9.07-.07-11.89,1.15,0,2.57,0,4.2.05l1.47,0v-.12s0-.41,0-1.13v-.13h-.13s-2.12,0-5.6,0c0-2.81.07-4.68.07-4.7v-.13h-.13s-.65,0-1.22,0h-.13V283s0,1.89-.07,4.73l-2.45-.07v.13s0,.4,0,1.11v.13h2.49c0,2.33,0,6.87,0,12,.07,3.12,1.56,4.84,4.19,4.84a9.24,9.24,0,0,0,3.25-.69l.1,0,0-.11S492.79,304.64,492.69,304Z" />
			<path class="cls-1"
				d="M496,299.9c-.68,0-1.26,0-1.26,0h-.13V300a6.12,6.12,0,0,0,1.43,4.68,5.54,5.54,0,0,0,4.13,1.54c3.16,0,5.2-1.86,5.2-4.73,0-2.64-1.33-3.94-5.27-5.16-2.86-.9-4-2.06-4-4.13s1.31-3.19,3.58-3.19c2.5,0,3.69,1.65,3.76,5.21v.12h.12c.75,0,1.23,0,1.23,0h.13v-.12c0-4.43-1.79-6.68-5.31-6.68-3,0-5.09,1.89-5.09,4.7s1.36,4.18,4.84,5.3c3.74,1.19,4.45,2.3,4.45,3.95,0,2-1.37,3.22-3.58,3.22a4,4,0,0,1-3-1.07,4.87,4.87,0,0,1-1.11-3.63v-.12Z" />
			<path class="cls-1"
				d="M520.1,306.52a12.08,12.08,0,0,0,3.24-.54l.11,0,0-.12s-.11-.47-.21-1.07l0-.13-.13,0a11.54,11.54,0,0,1-2.78.46c-1.95,0-2.83-1-2.86-3.41-.11-4.86-.1-9.23-.07-12.08,1.15,0,2.57,0,4.2.05l1.47,0v-.12s0-.41,0-1.13v-.13h-.13s-2.12,0-5.6,0c0-2.67.07-4.43.07-4.44v-.12l-1.47-.09v.13s-.07,1.81-.07,4.52l-2.45-.07v.13s0,.44,0,1.11v.13h2.49c0,3.89,0,8.34,0,12.22C516,304.95,517.39,306.52,520.1,306.52Z" />
			<path class="cls-1"
				d="M535.63,306.41h.12l.7,0c.38,0,.6,0,.61,0h.11v-.11c0-.07.11-6.7,0-13.4-.11-3.84-1.49-5.63-4.33-5.63h-.06c-2.24,0-4.28,1.7-5.25,4.32,0-5.18,0-10.22,0-10.27v-.13h-.13c-.71,0-1.28,0-1.29,0H526v.13c.14,13.52.14,23.76.14,23.86v.13h.13c.6,0,1.14,0,1.14,0h.13v-.12s0-4.86,0-8.39c0-5.06,2.66-8.08,5.17-8.08,2.09,0,2.89,1.26,3,4.66.11,6.72,0,12.86,0,12.92Z" />
			<path class="cls-1"
				d="M539.6,301.25a4.5,4.5,0,0,0,4.84,4.77,5.44,5.44,0,0,0,5.12-3.17c0,2.17-.1,3.42-.1,3.43v.14h.14l1.22,0h.13v-.12c0-.06.11-5.67-.07-13.18-.1-3.86-2-6-5.27-6s-5.23,2.33-5.38,6.24v.12h.12c.67,0,1.25.11,1.25.11l.13,0v-.13c.19-3.26,1.49-4.85,4-4.85,2.9,0,3.57,2.34,3.62,4.31l.07,1.71C542.17,294.81,539.6,298.16,539.6,301.25Zm5.13,3.33h-.07c-2.27,0-3.48-1.2-3.48-3.37,0-1.49.8-5,8.21-5.27,0,.88,0,1.62,0,2.71a6.36,6.36,0,0,1-1.63,4.66A4.4,4.4,0,0,1,544.73,304.58Z" />
			<path class="cls-1"
				d="M562.64,303.89l-.14,0a8.7,8.7,0,0,1-2.8.61c-1.84,0-2.79-1.19-2.83-3.55-.11-4.76-.1-9.07-.07-11.89,1.15,0,2.57,0,4.2.05l1.47,0v-.12s0-.41,0-1.13v-.13h-.13s-2.12,0-5.6,0c0-2.81.07-4.68.07-4.7v-.13h-.13s-.65,0-1.22,0h-.13V283s0,1.89-.07,4.73l-2.45-.07v.13s0,.4,0,1.11v.13h2.49c0,2.33,0,6.87,0,12,.07,3.12,1.56,4.84,4.19,4.84a9.24,9.24,0,0,0,3.25-.69l.1,0,0-.11s-.11-.47-.21-1.07Z" />
			<path class="cls-1"
				d="M128.76,328.87h-.11l0,.11c0,.05-1.11,5.33-3.62,16.67-.38-1.58-1.59-6.74-3.73-16l0-.1h-.11s-.48,0-1.9,0h-.1l0,.09s-1.25,5-3.63,15.38c-.32-1.3-1.29-5.4-3.14-15.12l0-.12-.12,0s-.51.07-1.25.11h-.14l0,.14c0,.06,1.22,6.14,3.64,17l0,.08h.08a15.69,15.69,0,0,0,1.64.11h.1l0-.1s.91-4.33,3.87-15.84c.34,1.49,1.47,6.44,3.84,16.74l0,.1h.1s.8,0,1.73-.11H126l0-.09c0-.06,1.36-6.51,4.1-18.93l0-.15H130S129.5,328.94,128.76,328.87Z" />
			<path class="cls-1"
				d="M134.17,329.72v-.13H134c-.67,0-1.21,0-1.21,0h-.13v.13c.14,13.06.07,17.84.07,17.89v.13h.13c.81,0,1.25,0,1.25,0h.13v-.13C134.13,336.11,134.17,329.78,134.17,329.72Z" />
			<path class="cls-1"
				d="M133.43,323.83c-.82,0-1.28.58-1.28,1.64s.49,1.53,1.24,1.53,1.28-.61,1.28-1.6S134.22,323.83,133.43,323.83Z" />
			<path class="cls-1"
				d="M138.72,322.79h-.12v.12c0,.09,0,9.07-.11,24.73v.12h.12s.52,0,1.34,0h.13v-.13s0-5.12.11-24.76v-.12h-.12A12.74,12.74,0,0,0,138.72,322.79Z" />
			<path class="cls-1"
				d="M144.48,322.36h-.12v.12c0,.1,0,10-.11,25.59v.11l.11,0a10.59,10.59,0,0,0,1.35.07h.13v-.13c0-.06,0-6,.11-25.66v-.12h-.12A12.4,12.4,0,0,0,144.48,322.36Z" />
			<path class="cls-1"
				d="M166.64,341.37c-.47,3.69-2,5.72-4.34,5.72-2.8,0-4.49-2.72-4.66-7.46,6.58-.32,10.27-.35,10.31-.35h.12v-.12c.12-3.9-.68-7-2.27-8.59a4.65,4.65,0,0,0-3.47-1.43c-3.82,0-6.28,3.79-6.28,9.66,0,6.1,2.33,9.74,6.24,9.74,3.14,0,5.33-2.62,5.85-7l0-.13-1.51-.13Zm-4.38-10.84c2.57,0,4.2,2.79,4.27,7.28-5.79.32-8,.38-8.89.39C157.77,334.36,159.24,330.53,162.26,330.53Z" />
			<path class="cls-1"
				d="M176,338.79l.13-.22c.71-1.19,2.58-4.35,5.52-9.14l.1-.17-.19,0s-.62-.07-1.44-.15H180l0,.07s-1.62,3.08-4.78,8.31c-.51-.89-1.65-3-3.79-7l-.36-.66H171s-.44,0-1.43,0h-.22l.11.19s1.19,2.08,4.93,8.72c-.5,1-2,3.76-4.83,8.46l-.12.2h.24s.62,0,1.58,0h.08l0-.07s.88-1.89,3.85-7.19c.77,1.26,2.39,4.05,4.78,8.38l0,.07h.08s.62-.07,1.47-.11h.22l-.12-.18S179.8,345.29,176,338.79Z" />
			<path class="cls-1"
				d="M190.38,329.05a5.29,5.29,0,0,0-4.88,3.73c0-.58,0-1.39,0-2.84v-.13h-.13s-.55,0-1.23,0h-.12V330c0,.13,0,13.21,0,25.59v.13h.13s.51,0,1.43,0h.13v-.13s-.17-3.68-.25-10.27a5.19,5.19,0,0,0,4.8,3.24c4,0,6.28-3.46,6.28-9.74C196.59,332.77,194.21,329.05,190.38,329.05Zm0,1.47a3.31,3.31,0,0,1,2.39,1.07c1.44,1.45,2.26,4.18,2.23,7.48h0c0,4.94-1.77,8-4.63,8-3,0-4.81-3-4.81-7.94C185.57,333.91,187.46,330.53,190.38,330.53Z" />
			<path class="cls-1"
				d="M204.64,329.09c-3.22,0-5.23,2.33-5.38,6.24v.12h.12c.67,0,1.25.11,1.25.11l.13,0v-.13c.19-3.26,1.49-4.85,4-4.85,2.9,0,3.57,2.34,3.62,4.31l.07,1.71c-7.21.19-9.79,3.55-9.79,6.64a4.5,4.5,0,0,0,4.84,4.77,5.44,5.44,0,0,0,5.12-3.17c0,2.17-.1,3.42-.1,3.43v.14h.14l1.22,0H210v-.12c0-.06.11-5.67-.07-13.18C209.81,331.22,207.93,329.09,204.64,329.09Zm-.86,17.5h-.07c-2.27,0-3.48-1.2-3.48-3.37,0-1.49.8-5,8.21-5.27,0,.88,0,1.62,0,2.71a6.36,6.36,0,0,1-1.63,4.66A4.4,4.4,0,0,1,203.77,346.58Z" />
			<path class="cls-1"
				d="M220.15,329.27c-2.71,0-4.49,2.07-5.35,4.21,0-1.71.08-3.31.08-3.32V330h-.14c-.67,0-1.25,0-1.25,0h-.13v.13c.07,10.1,0,16.85,0,16.92v.13h.13a11.94,11.94,0,0,1,1.2,0h.14v-.13c0-.06,0-6,0-8.67,0-4.19,2.37-7.72,5.17-7.72,2.11,0,3,1.35,3,4.66v13.22h.49c.23,0,.56,0,.94,0h.11v-.11c0-.12,0-11.69-.07-13.57C224.37,331,223,329.27,220.15,329.27Z" />
			<path class="cls-1"
				d="M240,323.06v-.13h-.13c-.89,0-1.32,0-1.32,0h-.13l.05,3.28c0,2.73.08,5,.09,6.58a5.47,5.47,0,0,0-5-3.78c-3.84,0-6.14,3.79-6.14,10.13,0,5.74,2.27,9.16,6.06,9.16a5.34,5.34,0,0,0,5-3.57c-.06,2.11-.12,3.56-.12,3.58v.13h.13c.85,0,1.39,0,1.4,0H240v-.13C239.9,334.35,240,323.17,240,323.06Zm-6.32,23.81c-3,0-4.7-2.93-4.7-8.26,0-4,1.68-8,4.48-8a3.8,3.8,0,0,1,2.79,1.16c1.41,1.42,2.15,4,2.13,7.53h0C238.39,343.81,236.5,346.87,233.69,346.87Z" />
			<path class="cls-1"
				d="M255.47,329.41c-3.18,0-5,2-5.38,5.8v.12l.12,0c.67.11,1.21.25,1.21.25l.14,0,0-.14c.39-3.19,1.63-4.61,4-4.61s3.54,1.53,3.62,4.31l.07,1.6c-6.13.16-9.79,2.61-9.79,6.57a4.52,4.52,0,0,0,4.84,4.91,5.58,5.58,0,0,0,5.12-3.3c0,2.25-.1,3.69-.1,3.71v.13h.13c.9,0,1.22,0,1.24,0h.11v-.11c0-.06.11-5.78-.07-13.29C260.64,331.53,258.77,329.41,255.47,329.41Zm3.83,11.25a6.59,6.59,0,0,1-1.73,4.92,4.23,4.23,0,0,1-3,1.25h-.06c-2.31,0-3.48-1.22-3.48-3.51,0-3.21,3-5.12,8.21-5.27C259.3,339,259.3,339.54,259.3,340.66Z" />
			<path class="cls-1"
				d="M271,329.81c-2.71,0-4.49,2.07-5.35,4.21,0-1.73.08-3.38.08-3.4v-.14h-.14c-.67,0-1.25,0-1.25,0h-.13v.13c.07,10.1,0,17.24,0,17.31v.13h.13a11.19,11.19,0,0,1,1.21,0h.13V348c0-.06,0-6.33,0-9,0-4.19,2.37-7.72,5.17-7.72,2.11,0,3,1.35,3,4.66v11.82h.13s.55,0,1.3,0h.12v-.12c0-.1,0-10.28-.07-12.17C275.2,331.59,273.83,329.81,271,329.81Z" />
			<path class="cls-1"
				d="M290.83,322.59v-.13h-.13c-.89,0-1.32,0-1.32,0h-.13l.17,10.79a5.46,5.46,0,0,0-5-3.7c-3.81,0-6.17,3.74-6.17,9.77,0,5.37,2.38,8.84,6.06,8.84a5.45,5.45,0,0,0,5-3.61c-.06,2.21-.12,3.75-.12,3.76v.13h.13c.85,0,1.39,0,1.4,0h.13v-.13C290.73,334.35,290.83,322.71,290.83,322.59Zm-6.32,24.13c-2.94,0-4.7-3-4.7-7.94,0-4.47,1.92-7.72,4.55-7.72a3.87,3.87,0,0,1,2.84,1.15c1.33,1.34,2,3.81,2,7.14h0C289.22,343.7,287.29,346.73,284.52,346.73Z" />
			<path class="cls-1"
				d="M311.43,341.37c-.47,3.69-2,5.72-4.34,5.72-2.8,0-4.49-2.72-4.66-7.46,6.58-.32,10.27-.35,10.31-.35h.12v-.12c.12-3.9-.68-7-2.27-8.59a4.65,4.65,0,0,0-3.47-1.43c-3.82,0-6.28,3.79-6.28,9.66,0,6.1,2.33,9.74,6.24,9.74,3.14,0,5.33-2.62,5.85-7l0-.13-1.51-.13Zm-4.38-10.84c2.57,0,4.2,2.79,4.27,7.28-5.79.32-8,.38-8.89.39C302.56,334.36,304,330.53,307.05,330.53Z" />
			<path class="cls-1"
				d="M322.79,329.27c-2.71,0-4.49,2.07-5.35,4.21,0-1.71.08-3.31.08-3.32V330h-.14c-.67,0-1.25,0-1.25,0H316v.13c.07,10.1,0,16.85,0,16.92v.13h.13c.63,0,1.2,0,1.21,0h.13v-.13c0-.06,0-6,0-8.67,0-4.19,2.37-7.72,5.17-7.72,2.11,0,3,1.35,3,4.66v13.22h.49c.23,0,.56,0,.94,0h.11v-.11c0-.12,0-11.69-.07-13.57C327,331,325.64,329.27,322.79,329.27Z" />
			<path class="cls-1"
				d="M337.24,347.66c-3.77-.53-4.46-1-4.46-1.78a1.71,1.71,0,0,1,.94-1.37,5.65,5.65,0,0,0,1.75.24c3.62,0,5.78-2.87,5.78-7.68,0-1.34-.22-4.63-2.28-6.62,1.83-4,3.15-6.73,3.17-6.76l.06-.12-1.54-.64,0,.12c-1.25,3.13-2.22,5.36-2.64,6.32l-.11.25a5.31,5.31,0,0,0-2.39-.57c-3.92,0-5.71,4.1-5.71,7.9,0,3.41,1,5.83,2.8,7a2.66,2.66,0,0,0-1.36,2.12c0,.69.33,1.6,1.82,2.2-2.33.93-3.66,2.55-3.66,4.46,0,2.56,2.2,4.16,5.74,4.16,4.36,0,7.65-2.25,7.65-5.24C342.75,349.47,341,348.23,337.24,347.66Zm-1.78-17.1c3.12,0,4.23,3.3,4.23,6.39,0,4.07-1.5,6.32-4.23,6.32S331.3,341,331.3,337C331.3,333.13,333,330.56,335.46,330.56Zm5.63,21.18c0,1.81-2.16,3.69-5.78,3.69-2.76,0-4.34-1-4.34-2.79,0-1.58,1.47-3,4-3.8l.6.09C338.42,349.35,341.09,349.74,341.09,351.75Z" />
			<path class="cls-1"
				d="M348.78,329.09c-3.22,0-5.23,2.33-5.38,6.24v.12h.12c.67,0,1.25.11,1.25.11l.13,0v-.13c.19-3.26,1.49-4.85,4-4.85,2.9,0,3.57,2.34,3.62,4.31l.07,1.71c-7.21.19-9.79,3.55-9.79,6.64a4.5,4.5,0,0,0,4.84,4.77,5.44,5.44,0,0,0,5.12-3.17c0,2.17-.1,3.42-.1,3.43v.14h.14l1.22,0h.13v-.12c0-.06.11-5.67-.07-13.18C353.95,331.22,352.08,329.09,348.78,329.09Zm-.86,17.5h-.07c-2.27,0-3.48-1.2-3.48-3.37,0-1.49.8-5,8.21-5.27,0,.88,0,1.62,0,2.71a6.36,6.36,0,0,1-1.63,4.66A4.4,4.4,0,0,1,347.92,346.58Z" />
			<path class="cls-1"
				d="M364.06,347.52c-3.37-.41-4-.92-4-1.68a2,2,0,0,1,.84-1.45,6.08,6.08,0,0,0,1.59.2c3.56,0,5.78-2.82,5.78-7.36,0-2.89-.88-5.26-2.43-6.52,1.37-4,2.44-6.65,2.45-6.68l0-.12-.12,0-1.33-.43-.12,0,0,.12c-1,3.22-1.76,5.54-2.11,6.49a5.42,5.42,0,0,0-2.12-.43c-3.36,0-5.71,3.1-5.71,7.54,0,3.28,1,5.66,2.89,6.75a2.78,2.78,0,0,0-1.2,2.18,2.24,2.24,0,0,0,1.54,2.12c-2.31.89-3.63,2.47-3.63,4.36,0,2.44,2.28,4,5.81,4,4.44,0,7.54-2.12,7.54-5.16C369.71,349.16,368,348,364.06,347.52Zm-1.71,7.59c-2.7,0-4.37-1-4.37-2.65,0-.92.52-2.63,4-3.72l.57.07c3,.36,5.52.67,5.52,2.65S365.66,355.11,362.35,355.11Zm.11-24c2.61,0,4.23,2.32,4.23,6.07s-1.54,6-4.23,6-4.16-2.28-4.16-6S360,331.1,362.46,331.1Z" />
			<path class="cls-1"
				d="M381.19,341.47h-.12l0,.12c-.45,3.46-2,5.36-4.34,5.36-2.76,0-4.45-2.53-4.66-7,6.57-.21,10.27-.21,10.31-.21h.12v-.12c.12-3.84-.69-6.87-2.29-8.52a4.63,4.63,0,0,0-3.45-1.44c-3.76,0-6.28,3.74-6.28,9.3,0,5.87,2.33,9.38,6.24,9.38,3.21,0,5.34-2.45,5.85-6.73l0-.14h-.14C381.59,341.51,381.19,341.47,381.19,341.47Zm-4.51-10.37c3.06,0,4.21,3.7,4.26,7.21-5.68.19-8.2.21-8.89.21C372.18,334.92,373.67,331.1,376.68,331.1Z" />
			<path class="cls-1"
				d="M401.45,329h-.11l0,.1s-1.23,5-4.52,16.49c-.46-1.6-2.19-7.63-4.6-15.53l0-.1-1.66.13,0,.15s1.7,5.14,5.39,17.78c-.07.28-.59,2.44-2.19,7.48l0,.13.13,0a7.09,7.09,0,0,1,1.16.42l.13.06,0-.13c0-.06,1.83-6,7.78-26.71l0-.14-.14,0S402.35,329.05,401.45,329Z" />
			<path class="cls-1"
				d="M410.33,329.09c-3.82,0-6.28,3.81-6.28,9.7,0,6.19,2.28,9.74,6.24,9.74s6.32-3.59,6.32-9.84C416.62,332.85,414.15,329.09,410.33,329.09Zm0,18c-2.94,0-4.7-3.16-4.7-8.44,0-4,1.63-8.12,4.73-8.12s4.7,4.21,4.7,8.12C415,343.77,413.17,347.09,410.3,347.09Z" />
			<path class="cls-1"
				d="M430.62,329v-.13h-1.55V329c0,.06.11,5.73.07,9.82,0,4.83-2.25,7.72-4.37,7.72-2.35,0-3.8-1.4-3.8-8.37a77.54,77.54,0,0,1,.43-7.8v-.13h-.13c-.68,0-1.22,0-1.22,0h-.12v.11a73.76,73.76,0,0,0-.47,7.86c0,6.78,1.54,9.81,5,9.81,2,0,3.79-1.39,4.76-3.75,0,2.19-.1,3.81-.1,3.83v.12h.12l.57,0,.74,0h.12V348C430.58,337.94,430.62,329.05,430.62,329Z" />
			<path class="cls-1"
				d="M435.77,334.11c0-2.09.07-3.72.07-3.73v-.14h-.14c-.49,0-1.21,0-1.21,0h-.13v.13c.07,8.79,0,17.16,0,17.24v.13h.13c.82,0,1.37,0,1.38,0H436v-.12s-.18-4.18-.11-8.41c.1-4.71,2.06-7.56,5.66-8.23l.1,0V329.4l-.14,0A7.19,7.19,0,0,0,435.77,334.11Z" />
			<path class="cls-1"
				d="M455.95,329.09c-3.22,0-5.23,2.33-5.38,6.24v.12h.12c.67,0,1.25.11,1.25.11l.13,0v-.13c.19-3.26,1.49-4.85,4-4.85,2.9,0,3.57,2.34,3.62,4.31l.07,1.71c-7.21.19-9.79,3.55-9.79,6.64a4.5,4.5,0,0,0,4.84,4.77,5.44,5.44,0,0,0,5.12-3.17c0,2.17-.1,3.42-.1,3.43v.14h.14l1.22,0h.12v-.12c0-.06.11-5.67-.07-13.18C461.12,331.22,459.25,329.09,455.95,329.09Zm-.86,17.5H455c-2.27,0-3.48-1.2-3.48-3.37,0-1.49.8-5,8.21-5.27,0,.88,0,1.62,0,2.71a6.36,6.36,0,0,1-1.63,4.66A4.4,4.4,0,0,1,455.08,346.58Z" />
			<path class="cls-1"
				d="M475.65,329.86v-.12h-.12c-.75,0-1.29,0-1.31,0h-.12v.12s.11,4.58.07,8.63c0,3.71-1.67,7.54-4.37,7.54-2.28,0-3.8-1.34-3.8-7.9a75.29,75.29,0,0,1,.43-8.16l0-.14h-.14c-.71,0-1.25,0-1.25,0h-.12v.12a80,80,0,0,0-.43,8.22c0,6.29,1.63,9.34,5,9.34,2.1,0,3.8-1.33,4.76-3.69,0,2.09-.09,3.51-.1,3.53v.12h.12c.69,0,1.3,0,1.3,0h.13v-.12C475.62,337.25,475.65,329.94,475.65,329.86Z" />
			<path class="cls-1"
				d="M491.57,323.06v-.13h-.13c-.89,0-1.32,0-1.32,0H490l.05,3.28c0,2.73.08,5,.09,6.58a5.47,5.47,0,0,0-5-3.78c-3.84,0-6.14,3.79-6.14,10.13,0,5.74,2.27,9.16,6.06,9.16a5.34,5.34,0,0,0,5-3.57c-.06,2.11-.12,3.56-.12,3.58v.13h.13c.85,0,1.39,0,1.4,0h.13v-.13C491.46,334.35,491.57,323.17,491.57,323.06Zm-6.32,23.81c-3,0-4.7-2.93-4.7-8.26,0-4,1.68-8,4.48-8a3.8,3.8,0,0,1,2.79,1.16c1.41,1.42,2.15,4,2.13,7.53h0C489.95,343.81,488.06,346.87,485.25,346.87Z" />
			<path class="cls-1"
				d="M497.29,329.72v-.13h-.13c-.67,0-1.21,0-1.22,0h-.13v.13c.14,13.06.07,17.84.07,17.89v.13H496c.81,0,1.25,0,1.25,0h.13v-.13C497.26,336.11,497.29,329.78,497.29,329.72Z" />
			<path class="cls-1"
				d="M496.55,323.83c-.82,0-1.28.58-1.28,1.64s.49,1.53,1.24,1.53,1.28-.61,1.28-1.6S497.34,323.83,496.55,323.83Z" />
			<path class="cls-1"
				d="M511.55,341.37c-.47,3.69-2,5.72-4.34,5.72-2.8,0-4.49-2.72-4.66-7.46,6.58-.32,10.27-.35,10.31-.35H513v-.12c.12-3.9-.68-7-2.27-8.59a4.65,4.65,0,0,0-3.47-1.43c-3.82,0-6.28,3.79-6.28,9.66,0,6.1,2.33,9.74,6.24,9.74,3.14,0,5.33-2.62,5.85-7l0-.13-1.51-.13Zm-4.38-10.84c2.57,0,4.2,2.79,4.27,7.28-5.79.32-8,.38-8.89.39C502.68,334.36,504.15,330.53,507.17,330.53Z" />
			<path class="cls-1"
				d="M517.43,347.23h.13v-.13c0-.06,0-6,0-8.67,0-4.19,2.37-7.72,5.17-7.72,2.11,0,3,1.35,3,4.66v13.22h.49c.23,0,.56,0,.94,0h.11v-.11c0-.12,0-11.69-.07-13.57-.08-3.82-1.45-5.59-4.3-5.59s-4.49,2.07-5.35,4.21c0-1.71.08-3.31.08-3.32V330h-.14c-.67,0-1.25,0-1.25,0h-.13v.13c.07,10.1,0,16.85,0,16.92v.13h.13C516.85,347.19,517.42,347.23,517.43,347.23Z" />
			<path class="cls-1"
				d="M542.26,340.76h-.13l-1.26-.07h-.12v.12c-.29,4.2-1.71,6.33-4.23,6.33-3.12,0-4.77-2.86-4.77-8.26,0-5.22,1.78-8.33,4.77-8.33,2.48,0,3.82,1.92,4.09,5.86v.12h1.51v-.13c-.18-4.65-2.22-7.32-5.6-7.32-3.9,0-6.32,3.73-6.32,9.74,0,3.8.79,6.64,2.36,8.22a5.26,5.26,0,0,0,3.88,1.52c3.63,0,5.48-2.43,5.81-7.64Z" />
			<path class="cls-1"
				d="M550.95,348.38c3.21,0,5.34-2.45,5.85-6.73l0-.14h-.14c-.85,0-1.24,0-1.24,0h-.12l0,.12c-.45,3.46-2,5.36-4.34,5.36-2.76,0-4.45-2.53-4.66-7,6.57-.21,10.27-.21,10.31-.21h.12v-.12c.12-3.84-.69-6.87-2.29-8.52A4.63,4.63,0,0,0,551,329.7c-3.76,0-6.28,3.74-6.28,9.3C544.71,344.88,547,348.38,550.95,348.38Zm0-17.28c3.06,0,4.21,3.7,4.26,7.21-5.68.19-8.2.21-8.89.21C546.42,334.92,547.91,331.1,550.91,331.1Z" />
			<path class="cls-1"
				d="M559.14,346.1c0,1.15.63,1.89,1.6,1.89s1.6-.75,1.6-2a1.63,1.63,0,0,0-1.6-1.85C559.79,344.17,559.14,344.94,559.14,346.1Z" />
			<path class="cls-1"
				d="M512.83,386.77a62.15,62.15,0,0,0-12.74.11,2.59,2.59,0,0,0-2.16,2.05c-.11.38.05.49.43.43a68.28,68.28,0,0,1,12.47-1.13,2.29,2.29,0,0,0,2.16-1.08C513.1,387,513.1,386.77,512.83,386.77Z" />
			<path class="cls-1"
				d="M538.59,387.47c-1.24,7.72-5.29,11.66-9.83,11.77-5.94.11-9.67-6.26-9.5-15.44.22-12.42,7.29-21.17,11.34-21.33,4.48-.16,6.37,8.7,4.81,15-.11.54,0,.54.43.43,1.46-.43,2.75-2.38,2.92-5.4.22-3.67-1.3-11.66-8.26-11.56-6.32.11-14.09,10.26-14,23.76.05,11.18,7,16.42,13.34,16.09,4.91-.27,9.29-3.78,9.61-11.12a3.57,3.57,0,0,0-.38-2.32C538.81,387.09,538.64,387.2,538.59,387.47Z" />
			<path class="cls-1"
				d="M581.84,403.45a93,93,0,0,1,0-19.77c0-.21,0-.38-.43-.27-.81.16-1.3.7-1.62,1.94a65.8,65.8,0,0,0-.76,6.7c-.38,3.83-1.19,5.45-2.05,5.62-.54.11-1.08-.43-1.51-1.51-1.13-2.81-.65-9.56.05-13.07.05-.38,0-.38-.38-.32-.7.11-1.19.87-1.4,1.73a32.49,32.49,0,0,0-.84,9,2.24,2.24,0,0,1-2.61,1.62,16.82,16.82,0,0,0-3-5.08,3.92,3.92,0,0,0-1.3-1,108.56,108.56,0,0,1,2.81-19.22c.11-.43.11-.43-.27-.38-.59.11-1.19.65-1.67,2.11-1.67,5.19-2.92,14.8-3.13,21.28,0,.27,0,.54,0,.81-1.43,3-4.1,4.4-5.86,3.78-.76-.27-1.46-1.57-1.67-3.56a6.55,6.55,0,0,0,5.67-5.08c.54-2.32.11-4.27-1.62-5.51-2.11-1.51-5.13.76-6.16,6.59a10.48,10.48,0,0,0,0,4.2c-.51,1.81-1.36,3-2,2.82-1.46-.43-1.51-6.1-1.46-10a3.6,3.6,0,0,0-1.08-3c-.92-.7-1.57-.49-2.11.48a40.8,40.8,0,0,0-3.19,9.29c-.27-8.15.27-19.6,1.3-25.33.05-.27.16-.49-.32-.32a2.42,2.42,0,0,0-1.46,2.05c-1.4,6.1-2,19.38-1.46,26.73.16,1.95,1.08,2.48,1.89,2.76.32.11.49,0,.54-.43a42.9,42.9,0,0,1,3.24-13.12c.22-.43.32-.22.38.16a51.87,51.87,0,0,0,.32,7.88c.43,3,1.78,3.67,3.19,4.16s2.5-.18,3-2.08a5.54,5.54,0,0,0,2.57,2.51,4.92,4.92,0,0,0,6.26-2.22c0,5.46.72,11,3.78,13.13,2,1.35,3.19.38,3.73-1.4a20,20,0,0,0-.22-11.12,3,3,0,0,0,2.26-1.12,6.75,6.75,0,0,0,1,2.58,2.22,2.22,0,0,0,3.19.54,5.38,5.38,0,0,0,1.89-2.59c.05,2.32.16,4.75.38,7.13.32,3.83.11,6.1-1.08,6.91-1.57,1.08-4.1-.6-5.29-5.56-.11-.49-.43-.43-.59-.11a5.18,5.18,0,0,0-.11,3.35c.76,3.51,3.51,5.83,6.53,3.46C580.87,410.15,582.27,407.72,581.84,403.45Zm-25.7-12.37c.38-4.1,2.38-7.07,3.4-6.8,1.35.38.65,7.78-3.46,8.64A10.79,10.79,0,0,1,556.14,391.09Zm12.1,17.23c-1.78-1.08-2.38-8.1-2.38-15a7.63,7.63,0,0,0,3.08,3.19C570.34,401.83,569.64,409.18,568.23,408.31Z" />
		</g>
	</g>
</svg>