<svg xmlns="http://www.w3.org/2000/svg" viewBox="0 0 1280 720">
	<defs>
		<style>.cls-1{fill:#0b6d76;}.cls-2{fill:#2d8189;}.cls-3{fill:#005d66;}.cls-4{fill:#18757e;}.cls-5,.cls-7,.cls-8{fill:#63a1a8;}.cls-6{fill:#5599a0;}.cls-7{opacity:0.4;}.cls-8{opacity:0.14;}.cls-9{fill:#82b4b9;}.cls-10{fill:#005259;}
		</style>
	</defs>
	<title>bkgd_animation</title>
	<g id="Layer_2" data-name="Layer 2">
		<g id="ButtonText">
			<path class="cls-1"
				d="M673.43,125c-9.57.56-13-6.7-11.39-19.67l-44-7,28,47.14,43.29,5.23c.2-12.12.32-19.55.32-19.55S686.53,124.21,673.43,125Z" />
			<path class="cls-1"
				d="M448.72,66.35l-.08-2.56C393,52.57,321.49,34.36,239,4.86v21l-10.76,3.74q11.66,3,24,6C331,54.77,396.14,63.51,448.72,66.35Z" />
			<polygon class="cls-1"
				points="605.49 96.32 621.85 142.54 643.46 145.15 616.13 98.01 605.49 96.32" />
			<path class="cls-1"
				d="M679.6,110.34c8.47,2.31,22.34,0,23.11,10.79.16,2.28-.05,14-.5,31.13l6.69.81,1.81-40-34.64-5.5A5.41,5.41,0,0,0,679.6,110.34Z" />
			<path class="cls-1"
				d="M599,66.29l9.16,15.44h.69l3.29-.64.2-1s-2.11-3.66,1.85-4.88,1.19,4.88,1.19,4.88l.12.36,1.86-.36,2.11,1.42v.33l39.14,4.94-1.34-9.36-17.63,2.06-3.18-6.68s12.83,0,24.62-11.44l-43,.74C612.72,63.28,602.19,65.61,599,66.29Z" />
			<path class="cls-1"
				d="M621.73,51l-.5,9.85,40.92-.59a47.64,47.64,0,0,0,3.21-3.68L798.61,29,617.13,45.22a7.24,7.24,0,0,1-.39,2.08l.42,2.87,2.19-.56Z" />
			<path class="cls-1"
				d="M500.26,71c33.35,5.24,60.26,7.93,79.63,9.31l-8.42-10.22-10.18,2.23-.5-7.34a538.59,538.59,0,0,1-61,4.41l.07,1.55Z" />
			<path class="cls-1"
				d="M599.06,78.16l1.18,3.33q3.66.14,6.43.2l-7.85-13.55Z" />
			<path class="cls-1" d="M599.5,83.57l0-.11h-.27v.18Z" />
			<path class="cls-1" d="M587.68,85.78l-.06-2.91-3-.19,2.83,3.16Z" />
			<path class="cls-1" d="M573.09,69.78l9.64,10.77,4.85.31-.29-14.18Z" />
			<path class="cls-1"
				d="M530.35,93.31c12.94-.77,24.47-1.72,34.67-2.78a4.07,4.07,0,0,1-.3-4.34c1.32-2.44,3.3-2.64,3.43-.41a8,8,0,0,1-.92,4.06l.35.41.41,0v-.57l3.4.49h.76L585,86.53l-3.34-4.05c-19.55-1.34-47.19-4-81.69-9.45l.61,14.55Z" />
			<path class="cls-1"
				d="M428.64,108.9l21.49,2.32L449.68,97q-10.51-.11-21.73-.39Z" />
			<path class="cls-1"
				d="M675.3,105.15l35.54,5.14.65-14.39-16.27-2.3H676.93C676.19,95.74,674.6,101,675.3,105.15Z" />
			<path class="cls-1"
				d="M569.87,109.34v-4.47a24.83,24.83,0,0,1,4.75-1.38v-2.89l1.72-.41,1.72,2.44.26-2.23,1.58-.2-.64,2.78a24.34,24.34,0,0,1,8.69,1.28l-.13-7.92L562.61,99.8l-.4-6.91.41-.11q-11.18,1.12-24.44,2l3.36.65,3.54,37.8,26.68,3.23V109.64Z" />
			<polygon class="cls-1"
				points="605.02 94.99 615.23 96.46 612.35 91.5 604.3 92.96 605.02 94.99" />
			<polygon class="cls-1"
				points="599.48 95.37 600.58 139.97 619.16 142.21 603.68 96.03 599.48 95.37" />
			<path class="cls-1"
				d="M213.08,79.74l-9.82-1.22-1.52,13.22,173.82,21-.8-18.27C328.47,91.93,274.86,87.3,213.08,79.74Z" />
			<path class="cls-1"
				d="M695.77,353.79s1.87,12.16-7.87,19.71l11.11-2.1L703.29,277l-4.95.92C697,319.87,695.77,353.79,695.77,353.79Z" />
			<path class="cls-1"
				d="M619.22,90.25l-5.4,1,3.27,5.5,45.23,6.54a95.55,95.55,0,0,1,2.05-9.67h-4.79l-.73-5.13-39.41-5.56Z" />
			<path class="cls-1"
				d="M374.67,92.48,374,78l38.6-5.13,14.83,15.16.37,6.59q11.25.28,21.78.39l-.83-26.59q-21.1-1.14-43.33-3.48c-47.89-5-99.63-14.26-153.77-27.38q-13.81-3.35-26.84-6.78L216,33.9l-2,10-7,2-3.52,30.63,9.85,1.22C275,85.3,328.47,89.92,374.67,92.48Z" />
			<polygon class="cls-1"
				points="599.45 94.18 603.24 94.73 602.74 93.24 599.44 93.84 599.45 94.18" />
			<path class="cls-1"
				d="M615.63,43.31l.17.26c.67,0,1.19.25,1.31,1.16l.06-.49L805.85,27.47,938.31,0H479.59c46,22.28,77.84,33,97.42,38.1C602,44.64,614.61,44.67,615.63,43.31Z" />
			<path class="cls-1"
				d="M448.57,61.74l-.94-29.84,22.07-3.15L498.64,41.9l1.07,25.46a531.66,531.66,0,0,0,62.5-4.53,2.35,2.35,0,0,1,.52-1.44c1.19-1.42,4-.81,4-.81l-.32,1.1,6.3-.09,14.46-3.71L587,50s5.54-6.71,11.61-1.63v6.53l13.54-3.48.71-1.64a10.74,10.74,0,0,1-.4-3.81l-.07-.23C606.31,46,567.5,45.42,475,0H239V2.74C321.44,32.26,392.93,50.5,448.57,61.74Z" />
			<path class="cls-1"
				d="M1280,595.61c-71.38,17.15-159.73-16.09-159.73-16.09s-36.27,25.38-74,11.56c-59.93-22-18.49-69.34-18.49-69.34L900.71,585.69,698.86,476.29l-2.31-44.68h47l-.86-14.69L652,398.9l37-8-51.78-7.84-1.54-11.56L648,365.35s33.9,0,36.21-16.95c.81-5.91,1.71-34.1,2.54-68.32l-99.51,18.56L579,300.9C327,370.28,61,573.85,0,622.41V720H1280Z" />
			<path class="cls-2" d="M499.8,69.44q-4.44.08-8.94.09,4.62.77,9,1.45Z" />
			<path class="cls-2"
				d="M530.35,93.31l-29.79-5.73L500,73h0q-10-1.57-21.21-3.54-14.67-.2-30-1L449.62,95C481.12,95.38,507.87,94.64,530.35,93.31Z" />
			<path class="cls-2"
				d="M538.18,94.81c-20.55,1.4-45,2.31-73.63,2.31-4.83,0-9.8,0-14.87-.08l.44,14.18-21.49-2.32L428,96.66q-24.81-.62-53.19-2.16l.8,18.27,169.54,20.5-3.54-37.8Z" />
			<path class="cls-2"
				d="M412.64,72.9,374,78l.63,14.45q28.4,1.57,53.17,2.17l-.37-6.59Z" />
			<path class="cls-2"
				d="M448.72,66.35q8.62.47,16.79.73-8.17-1.53-16.87-3.29Z" />
			<path class="cls-2"
				d="M499.71,67.36,498.64,41.9,469.71,28.75,447.64,31.9l.94,29.84q15.74,3.18,29.76,5.64Q489.47,67.55,499.71,67.36Z" />
			<path class="cls-2" d="M587.46,85.84l-2.83-3.16-3-.2L585,86.53Z" />
			<polygon class="cls-2"
				points="572.67 61.59 572.68 61.59 566.38 61.68 566.2 62.29 572.67 61.59" />
			<polygon class="cls-2"
				points="605.49 96.32 616.13 98.01 615.23 96.46 605.02 94.99 605.49 96.32" />
			<path class="cls-2" d="M618,98.31l44,7q.12-1,.28-2l-45.23-6.54Z" />
			<path class="cls-2"
				d="M676.07,107.54l34.64,5.5.13-2.76-35.54-5.14A8.07,8.07,0,0,0,676.07,107.54Z" />
			<polygon class="cls-2"
				points="711.59 93.6 695.22 93.6 711.49 95.89 711.59 93.6" />
			<path class="cls-2"
				d="M621.2,61.39l-3.15.7,43-.74q.53-.51,1.06-1.06l-40.92.59Z" />
			<path class="cls-2" d="M568,90.21l.26,0,3.14-.05-3.4-.49Z" />
			<polygon class="cls-2"
				points="619.44 82.91 658.85 88.47 658.61 86.77 619.48 81.83 619.44 82.91" />
			<path class="cls-2"
				d="M617.13,45.22,798.61,29l7.24-1.5L617.17,44.24l-.06.49h0A3.55,3.55,0,0,1,617.13,45.22Z" />
			<path class="cls-2" d="M571.47,70.14l8.42,10.22,2.84.2-9.64-10.77Z" />
			<polygon class="cls-2"
				points="599.48 95.37 603.68 96.03 603.24 94.73 599.45 94.18 599.48 95.37" />
			<path class="cls-2" d="M600,83.48l-.51,0,0,.11Z" />
			<path class="cls-2" d="M598.77,66.34l0,1.8,7.85,13.55,1.52,0L599,66.29Z" />
			<path class="cls-2" d="M599.14,81.45l1.1,0-1.18-3.33Z" />
			<polygon class="cls-2"
				points="617.09 96.73 613.82 91.23 612.35 91.5 615.23 96.46 616.13 98.01 643.46 145.15 646 145.46 618.03 98.31 617.09 96.73" />
			<polygon class="cls-2"
				points="605.02 94.99 604.3 92.96 602.74 93.24 603.24 94.73 603.68 96.03 619.16 142.21 621.85 142.54 605.49 96.32 605.02 94.99" />
			<path class="cls-2"
				d="M587.46,85.84l-2.48.69-12.84,3.58,19.78-.33,17.36-6c-2.39,0-5.51-.12-9.31-.27l-.48.09-.31.06v-.18c-3.35-.14-7.22-.33-11.57-.59l.06,2.91Z" />
			<path class="cls-2"
				d="M571.47,70.14l1.62-.36,14.2-3.11.29,14.18c4.35.26,8.21.45,11.56.59l-.08-3.29-.25-10,0-1.8.25-.05c3.16-.68,13.7-3,19-4.2l3.15-.7,0-.51.5-9.85-2.38-1.42-2.19.56,1.24,8.48L566,64.32c-1.72.25-3.48.47-5.22.7l.5,7.34Z" />
			<path class="cls-2"
				d="M568.15,85.78c-.13-2.23-2.11-2-3.43.41a4.07,4.07,0,0,0,.3,4.34l2.56-.27-.35-.41A8,8,0,0,0,568.15,85.78Z" />
			<path class="cls-2"
				d="M615.79,56.92,612.49,46a10.74,10.74,0,0,0,.4,3.81l-.71,1.64-13.54,3.48V48.4C592.56,43.32,587,50,587,50l.12,7.85-14.46,3.71h0Z" />
			<path class="cls-2"
				d="M565.75,62.34l.45,0,.18-.61.32-1.1s-2.77-.61-4,.81a2.35,2.35,0,0,0-.52,1.44Z" />
			<path class="cls-2"
				d="M599.45,94.18v-.34l3.3-.6L604.3,93l8.05-1.46,1.47-.27,5.4-1,.22-7.34,0-1.07v-.33l-2.11-1.42-1.86.36-.12-.36s2.77-6.1-1.19-4.88-1.85,4.88-1.85,4.88l-.2,1-3.29.64c4,.07,6.12,0,6.21,0l1.85.46-24.82,9.54-23.75.39-5.75.6-.41.11.4,6.91,25.21-3.45.13,7.92a24.34,24.34,0,0,0-8.69-1.28l.64-2.78-1.58.2-.26,2.23-1.72-2.44-1.72.41v2.89a24.83,24.83,0,0,0-4.75,1.38v4.47l1.91.3v26.84l28.8,3.48-1.09-44.6Z" />
			<path class="cls-2"
				d="M617.11,44.73h0c-.12-.91-.64-1.21-1.31-1.16l.51.76.44,3a7.24,7.24,0,0,0,.39-2.08A3.55,3.55,0,0,0,617.11,44.73Z" />
			<path class="cls-2"
				d="M374.76,94.49q28.41,1.57,53.19,2.16,11.23.28,21.73.39c5.07.05,10,.08,14.87.08,28.68,0,53.08-.92,73.63-2.31q13.28-.9,24.44-2l5.75-.6,23.75-.39,24.82-9.54-1.85-.46c-.09,0-2.21,0-6.21,0h-.69l-1.52,0q-2.78-.07-6.43-.2l-1.1,0c-3.35-.14-7.21-.33-11.56-.59l-4.85-.31-2.84-.2C560.52,79,533.61,76.28,500.26,71l-.39-.06q-4.39-.69-9-1.45l-2.88,0q-4.59,0-9.24-.07,11.18,2,21.21,3.54h0c34.5,5.42,62.14,8.11,81.69,9.45l3,.2,3,.19c4.35.26,8.22.45,11.57.59h.27l.51,0c3.8.15,6.92.23,9.31.27l-17.36,6-19.78.33h-.76l-3.14.05-.26,0-.41,0-2.56.27c-10.2,1.06-21.73,2-34.67,2.78-22.48,1.33-49.23,2.07-80.73,1.74q-10.53-.11-21.78-.39Q403,94,374.67,92.48c-46.2-2.56-99.7-7.18-161.34-14.73l-9.85-1.22-.23,2,9.82,1.22C274.86,87.3,328.47,91.93,374.76,94.49Z" />
			<path class="cls-2"
				d="M465.51,67.08q6.55.21,12.82.3-14-2.48-29.76-5.64C392.93,50.5,321.44,32.26,239,2.74V4.86c82.49,29.5,154,47.71,209.64,58.93Q457.33,65.55,465.51,67.08Z" />
			<path class="cls-2"
				d="M612.42,45.78l.07.23,3.3,10.91-43.13,4.67-6.47.7-.45,0-3.54.49a531.66,531.66,0,0,1-62.5,4.53q-10.25.18-21.38,0-6.27-.09-12.82-.3-8.18-.26-16.79-.73C396.14,63.51,331,54.77,252.19,35.67q-12.28-3-24-6l-3.39,1.18q13,3.42,26.84,6.78C305.83,50.73,357.56,59.94,405.46,65q22.22,2.34,43.33,3.48,15.28.83,30,1,4.65.06,9.24.07l2.88,0q4.5,0,8.94-.09a538.59,538.59,0,0,0,61-4.41c1.74-.23,3.5-.45,5.22-.7l52.4-5.67-1.24-8.48-.42-2.87-.44-3-.51-.76-.17-.26c-1,1.36-13.6,1.33-38.62-5.2C557.43,33,525.55,22.28,479.59,0H475C567.5,45.42,606.31,46,612.42,45.78Z" />
			<path class="cls-2"
				d="M697.72,399.85l-2.87-24.26,4-1.1.14-3.09-11.11,2.1a27.24,27.24,0,0,1-11.39,4.94,215.07,215.07,0,0,1-39.29,4.62L689,390.9l-37,8,90.68,18-.28-4.7Z" />
			<path class="cls-3"
				d="M587.25,298.63,0,408.17V622.41c61-48.56,327-252.13,579-321.5Z" />
			<path class="cls-3"
				d="M1254.13,552.09c-9.53,20.4-32.43,37.44-77.62,33.59-36.21-3.08-47-10-47-10a103.58,103.58,0,0,1-14.42-18.86c-3.83.48-8,.86-12.54,1.14-50.85,3.08-67.8-29.28-67.8-29.28l-4.49-36.35-32.74-9.45v.18l-139.19,61-159.48-67.8,201.85,109.4,127.12-63.94s-41.44,47.36,18.49,69.34c37.69,13.82,74-11.56,74-11.56s88.34,33.24,159.73,16.09V558.36c-5.11-1.26-11.47-2.87-18.89-4.79Z" />
			<polygon class="cls-3"
				points="203.26 78.52 203.49 76.54 207 45.9 214 43.9 216 33.9 224.84 30.83 228.24 29.65 239 25.9 239 4.86 239 2.74 239 0 0 0 0 67.35 201.74 91.75 203.26 78.52" />
			<path class="cls-3"
				d="M686.75,280.07c1.09-45,2.06-100.51,2.54-129.38L646,145.46l-2.55-.31-21.6-2.61-2.69-.32L600.57,140l-28.8-3.48-26.68-3.23-169.54-20.5-173.82-21L0,67.35V408.17L587.25,298.63Z" />
			<path class="cls-3"
				d="M698.34,277.91l4.95-.92,5.61-123.93-6.69-.81C701.38,184.34,699.75,235.28,698.34,277.91Z" />
			<path class="cls-3"
				d="M1112.37,0h-4.48l3,134.94C1111.41,94.74,1112.17,33.77,1112.37,0Z" />
			<path class="cls-3"
				d="M1123.54,171.9v-3.46l3.3-.94V159a19.13,19.13,0,0,1,5.44-1.74l2-52.41L1134.75,0h-17.52L1116,172Z" />
			<path class="cls-3"
				d="M798.61,29,665.36,56.61a47.64,47.64,0,0,1-3.21,3.68q-.53.54-1.06,1.06c-11.79,11.43-24.62,11.44-24.62,11.44l3.18,6.68,17.63-2.06,1.34,9.36.24,1.69.73,5.13h4.79q.61-2.34,1.36-4.83l11.56,3.85s-.14.36-.36,1h34.66l-.1,2.3-.65,14.39-.12,2.76-1.81,40L703.29,277,699,371.41l-.14,3.09-4,1.1,2.87,24.26,44.68,12.36-1.17-19.9h40.06l-3.08-30.82,50.85-10L825,97.9l177-18.29,7.4,1.06-3.76,308.71,5.31,2a78.37,78.37,0,0,1-1.68-9.37s.8-12.69,30.64-19.54l-.14-.27s8.41-6.91,30.13-10.87a3.59,3.59,0,0,1,.69-2.17c1.14-1.14,12.24-3.6,23.45-5.51l1.33-9s26.34-7.11,48.08-4.18c0,0,4.6,3.35,5.44,5s0,16.31,0,16.31,48.5,4.6,64.39,25.92l.84,13.8a16.85,16.85,0,0,1-10.45,9.2l-4.18,27.6S1227.08,417,1230,422c0,0,0,6.27-.42,13.38,0,0,20.07,2.51,28.85,21.32,0,0-11.51-3.08-21.41-1.44a37,37,0,0,1,1.12,5.69h-.48c.37,1.83.48,3,.48,3s-7.49,0-15,.38a9.59,9.59,0,0,0-.68,5.75s36.94,2,57.52,22.27V0H1146.28l-2,154.31,6.12,1.88-.47,7.07,5.18,4.71,1.13,5.25,14.42.87-.13,2.28c1.23,0,2-.08,2-.39,0-1.41.47,111.64.47,111.64l-21.67,11.31-49-10.83-.64-16.61-9.72-1.29-6.12-93.74,17.9-4.24,1.37,0C1104.8,155,1102.77,48.94,1101.43,0H938.31L805.85,27.47ZM753.69,236.92,751,141.14l46.17-.83.1,7.65h0l.53,40.24h.25v5.2h-.18l.52,39.49h.07l.06,9.92Z" />
			<path class="cls-3"
				d="M1280,558.36v-.79l-18.89-4C1268.53,555.49,1274.89,557.1,1280,558.36Z" />
			<path class="cls-3"
				d="M998.58,389.07l-1.05,93.81,32.74,9.45-11.54-93.39c-5.25-3-7.31-5.4-7.31-5.4s-.2-.88-.49-2.16l-5.31-2,3.76-308.71-7.4-1.06-3.45,309.46Z" />
			<path class="cls-3"
				d="M1096.21,358.4h0q7.26.26,13.59.86c-.18-4.29-1.1-8.21-3.82-8.55-6.16-.77-28.51,2.31-28.51,2.31l2.45,5.26,2.8,0C1087.5,358.19,1092,358.25,1096.21,358.4Z" />
			<path class="cls-3"
				d="M1118.35,341.46c1.36,1.36,2.46,11.32,3.13,19.25l1.49.24.23,0,1.86.33.17,0,1.86.35h.07a110,110,0,0,1,19.37,5.52l0,0,1.23.5.05,0,1.19.51,0,0a59.7,59.7,0,0,1,11.31,6.36l0,0,.64.48.06,0,.6.46.06,0,.56.45.07.06.53.44.06,0,.51.44,0,0,.5.45h0a35.6,35.6,0,0,1,2.83,2.9l0,0,.25.29.06.08.22.26.07.08.2.25.06.08.18.22.07.09.16.2.06.08.16.21h0l.26.33.05.07.09.11.08.1.07.08.07.09.06.07.06.07.07.08,0,0a3,3,0,0,1,.63,1.76,12.18,12.18,0,0,1,.06,1.63c0,.4,0,.81-.06,1.25q0,.32-.06.66c-.09.89-.21,1.82-.36,2.75l-.11.69c-.12.69-.25,1.38-.38,2l-.13.64c-.35,1.68-.69,3.1-.88,3.85l-.15.59v0h0v0h0v0h0l0,0h0l0,0h0l0,.06h0l0,.07h0l-.06.07h0c-.66.76-3.05,2.48-11.66,4.46-3.76,15.76-11.2,48.41-11.8,62.1,0,.29,0,.57.07.83.21,1.79.61,4.36,1.14,7.45,19.09-4.25,37.38-.6,37.38-.6a78,78,0,0,0,11.82-6.55l9-8.85s-12.33-13.87-10-20.8c0,0,12.33-8.47,18.49-7.7l3.53,9.18.48.85c1.19.17,8.79,1.39,13.87,5.38l2.07-1a11.7,11.7,0,0,1,.84,1.11,33.74,33.74,0,0,1,4.27,9.72c9.91-1.64,21.41,1.44,21.41,1.44-8.78-18.82-28.85-21.32-28.85-21.32.42-7.11.42-13.38.42-13.38-2.93-5-30.52,6.27-30.52,6.27l4.18-27.6a16.85,16.85,0,0,0,10.45-9.2l-.84-13.8c-15.89-21.32-64.39-25.92-64.39-25.92s.84-14.63,0-16.31-5.44-5-5.44-5c-21.74-2.93-48.08,4.18-48.08,4.18l-1.33,9C1105.54,341.69,1117.18,340.29,1118.35,341.46Z" />
			<path class="cls-3"
				d="M1223.16,464.34c-5.36.27-10.71.75-13.36,1.55,8.93,7.28,49.91,32.07,49.91,57.47,0,.62,0,1.25,0,1.88,0,.37,0,.75,0,1.12a61.12,61.12,0,0,1-5.59,25.73l7,1.48,18.89,4V492.36c-20.58-20.23-57.52-22.27-57.52-22.27A9.59,9.59,0,0,1,1223.16,464.34Z" />
			<path class="cls-3"
				d="M1069.89,351.34c-21.72,4-30.13,10.87-30.13,10.87l.14.27a178.31,178.31,0,0,1,30.6-3.88A32.31,32.31,0,0,1,1069.89,351.34Z" />
			<path class="cls-3"
				d="M687.9,373.51c9.74-7.56,7.87-19.71,7.87-19.71s1.18-33.92,2.57-75.88c1.41-42.64,3-93.57,3.87-125.66.44-17.1.66-28.85.5-31.13-.77-10.79-14.64-8.47-23.11-10.79a5.41,5.41,0,0,1-3.52-2.8,8.07,8.07,0,0,1-.78-2.39c-.7-4.12.89-9.4,1.63-11.55.21-.61.36-1,.36-1l-11.56-3.85q-.75,2.49-1.36,4.83a95.55,95.55,0,0,0-2.05,9.67q-.16,1-.28,2c-1.57,13,1.82,20.23,11.39,19.67,13.1-.77,16.18,6.16,16.18,6.16s-.11,7.43-.32,19.55c-.48,28.87-1.45,84.34-2.54,129.38-.83,34.22-1.73,62.42-2.54,68.32C681.91,365.35,648,365.35,648,365.35l-12.33,6.16,1.54,11.56a215.07,215.07,0,0,0,39.29-4.62A27.24,27.24,0,0,0,687.9,373.51Z" />
			<polygon class="cls-2"
				points="899.94 482.45 893.77 447.01 741.23 392.31 742.4 412.21 742.68 416.91 743.54 431.6 899.94 482.45" />
			<path class="cls-2"
				d="M852.17,490.93c-.77,1.54-155.62-59.32-155.62-59.32l2.31,44.68,159.48,67.8Z" />
			<polygon class="cls-2"
				points="937.69 401.56 778.21 361.5 781.29 392.31 940.77 439.31 937.69 401.56" />
			<polygon class="cls-1"
				points="998.58 389.07 998.55 389.07 998.55 389.23 937.69 401.56 940.77 439.31 893.77 447.01 899.94 482.45 852.17 490.93 858.33 544.08 997.52 483.05 997.53 482.88 998.58 389.07" />
			<path class="cls-4"
				d="M1102.55,555c-50.85,3.08-67.8-29.28-67.8-29.28l-1.45-11.74a62,62,0,0,0,10.28,1.56c-2.26-22.59-8.17-88.2-1.38-93.2,8.22-6.06,7.79,20.33,7.79,20.33s-1.73-17.74-5.62-16.44c-3,1,.49,62.35,2.2,89.45a74.26,74.26,0,0,0,14.4-1.06c-2.35-30.33-5.57-83.23.27-87.53,8.22-6.06,7.79,20.33,7.79,20.33s-1.73-17.74-5.62-16.44c-2.63.88-.62,50.75,1,83a88.21,88.21,0,0,0,15.45-4.89c-2.19-31.76-4.34-77.09,1-81,8.22-6.06,7.79,20.33,7.79,20.33s-1.73-17.74-5.62-16.44c-2.38.79-1,42.88.48,75.51A110.09,110.09,0,0,0,1097,499.9a14.69,14.69,0,0,1,.19-1.9c-1.3-29.81-1.83-65.63,2.9-69.11,8.22-6.06,7.79,20.33,7.79,20.33s-1.73-17.74-5.62-16.44c-1.92.64-1.87,27.74-1.32,55,4.21-7.28,12.93-16.2,31.08-21.9l5-49s-72.73,7.69-117-10.85l-.85-6.88-.4-.23,11.54,93.39,4.49,36.35s16.95,32.36,67.8,29.28c4.55-.28,8.71-.66,12.54-1.14q-.82-1.36-1.62-2.81C1110.1,554.39,1106.47,554.71,1102.55,555Z" />
			<path class="cls-4"
				d="M1144.09,466.29c.6-13.69,8-46.34,11.8-62.1l-.75.17C1150.87,422.47,1143.46,455.8,1144.09,466.29Z" />
			<path class="cls-1"
				d="M1137,416.9l-5,49c-18.14,5.7-26.87,14.62-31.08,21.9.56,28,1.64,56.16,1.64,56.16l-3-5.19s-1.38-18.75-2.35-40.77a14.69,14.69,0,0,0-.19,1.9,110.09,110.09,0,0,1-13.58,7.56c.92,20.77,1.87,37.71,1.87,37.71l-3-5.19s-1.23-13.4-2.44-30.94a88.21,88.21,0,0,1-15.45,4.89c.76,15.46,1.42,26.86,1.42,26.86l-3-5.19s-.82-8.63-1.78-21a74.26,74.26,0,0,1-14.4,1.06c.49,7.7.82,12.64.82,12.64l-3-5.19s-.31-2.85-.79-7.59a62,62,0,0,1-10.28-1.56l1.45,11.74s16.95,32.36,67.8,29.28c3.91-.24,7.55-.56,10.92-.94-8-14.48-14.13-34.37-4-53.84,8-15.44,22.13-22.55,35.81-25.6-.53-3.09-.93-5.66-1.14-7.45,0-.26-.05-.54-.07-.83-.62-10.49,6.78-43.82,11-61.93-9.64,2.15-26.62,4.59-56.51,6.47-45.2,2.85-68.72-5.6-79.49-11.67L1020,406C1064.27,424.59,1137,416.9,1137,416.9Z" />
			<path class="cls-2"
				d="M1018.73,398.94l.4.23c10.77,6.07,34.29,14.53,79.49,11.67,29.9-1.89,46.87-4.33,56.51-6.47l.75-.17c8.61-2,11-3.69,11.66-4.46-1.28,1.48-9,6.49-55.62,10.16,1-4.05,2.13-9.65,2.11-13.52-7.63.43-16.17.8-25.68,1.14-62.67,2.19-74.69-13.85-74.69-13.85s-4.11-18,51-20.77q3.38-.17,6.62-.29c-.26-1.19-.54-2.58-.79-4a178.31,178.31,0,0,0-30.6,3.88c-29.84,6.85-30.64,19.54-30.64,19.54a78.37,78.37,0,0,0,1.68,9.37c.28,1.28.49,2.16.49,2.16S1013.48,395.92,1018.73,398.94Z" />
			<path class="cls-2" d="M1161.14,375.23l.6.46Z" />
			<path class="cls-2" d="M1168,381.94l.16.2Z" />
			<path class="cls-2"
				d="M1149.1,368.31a59.69,59.69,0,0,1,11.31,6.36A59.7,59.7,0,0,0,1149.1,368.31Z" />
			<path class="cls-2" d="M1160.44,374.7l.64.48Z" />
			<path class="cls-2" d="M1161.8,375.74l.56.45Z" />
			<path class="cls-2" d="M1168.41,382.43l.26.33Z" />
			<path class="cls-2" d="M1162.43,376.25l.53.44Z" />
			<path class="cls-2" d="M1167.78,381.63l.18.22Z" />
			<path class="cls-2" d="M1168.25,382.22l.16.21Z" />
			<path class="cls-2" d="M1123.19,361l1.86.33Z" />
			<path class="cls-2" d="M1168.72,382.82l.09.11Z" />
			<path class="cls-2"
				d="M1127.16,361.72a110.07,110.07,0,0,1,19.37,5.52A110,110,0,0,0,1127.16,361.72Z" />
			<path class="cls-2" d="M1125.23,361.36l1.86.35Z" />
			<path class="cls-2" d="M1121.48,360.72h0l1.49.24Z" />
			<path class="cls-2" d="M1167.71,399.53l0,.06Z" />
			<path class="cls-2" d="M1146.58,367.26l1.23.5Z" />
			<path class="cls-2" d="M1167.52,381.3l.2.25Z" />
			<path class="cls-2" d="M1147.87,367.79l1.19.51Z" />
			<path class="cls-2" d="M1167.23,381l.22.26Z" />
			<path class="cls-2"
				d="M1166.89,380.55a35.6,35.6,0,0,0-2.83-2.9A35.58,35.58,0,0,1,1166.89,380.55Z" />
			<path class="cls-2" d="M1167.79,399.35v0l.15-.59-.15.59Z" />
			<path class="cls-2" d="M1167.61,399.66l-.06.07Z" />
			<path class="cls-2"
				d="M1109.84,359.27h0q-6.34-.6-13.59-.86C1101.09,358.57,1105.61,358.87,1109.84,359.27Z" />
			<path class="cls-2" d="M1163.56,377.21l.5.45Z" />
			<path class="cls-2" d="M1168.88,383l.07.08Z" />
			<path class="cls-2" d="M1167.76,399.42l0,0Z" />
			<path class="cls-2" d="M1167.66,399.59l0,.07Z" />
			<path class="cls-2" d="M1166.92,380.59l.25.29Z" />
			<path class="cls-2"
				d="M1095.52,362.45l.69-4.05c-4.23-.15-8.71-.21-13.45-.17l-2.8,0,1.9,4.08C1086.68,362.3,1091.22,362.33,1095.52,362.45Z" />
			<path class="cls-2" d="M1163,376.73l.51.44Z" />
			<path class="cls-2" d="M1169.14,383.35l.07.08Z" />
			<path class="cls-2"
				d="M1169.33,392.2c-.12.69-.25,1.38-.38,2C1169.09,393.57,1169.22,392.89,1169.33,392.2Z" />
			<path class="cls-2" d="M1169,383.2l.06.07Z" />
			<path class="cls-2" d="M1167.78,399.38v0Z" />
			<path class="cls-2" d="M1167.74,399.47l0,0Z" />
			<path class="cls-2" d="M1167.79,399.35v0Z" />
			<path class="cls-2"
				d="M1168.83,394.87c-.35,1.68-.69,3.1-.88,3.85C1168.14,398,1168.48,396.55,1168.83,394.87Z" />
			<path class="cls-4"
				d="M1096.21,358.4h0l-.69,4.05q7.66.21,14.31.76c.05-1.29.07-2.63,0-3.94-4.23-.4-8.75-.69-13.59-.87Z" />
			<path class="cls-4"
				d="M1167.61,399.66h0l0-.07h0l0-.06h0l0,0h0l0,0h0v0h0v0h0v0l.15-.59c.19-.76.53-2.17.88-3.85l.13-.64c.13-.65.26-1.34.38-2l.11-.69c.15-.93.27-1.86.36-2.75q0-.33.06-.66c0-.43.05-.85.06-1.25a12.18,12.18,0,0,0-.06-1.63,3,3,0,0,0-.63-1.76l0,0-.07-.08-.06-.07-.06-.07-.07-.09-.07-.08-.08-.1-.09-.11-.05-.07-.26-.33h0l-.16-.21-.06-.08-.16-.2-.07-.09-.18-.22-.06-.08-.2-.25-.07-.08-.22-.26-.06-.08-.25-.29,0,0a35.58,35.58,0,0,0-2.83-2.9h0l-.5-.45,0,0-.51-.44-.06,0-.53-.44-.07-.06-.56-.45-.06,0-.6-.46-.06,0-.64-.48,0,0a59.69,59.69,0,0,0-11.31-6.36l0,0-1.19-.51-.05,0-1.23-.5,0,0a110.07,110.07,0,0,0-19.37-5.52h-.07l-1.86-.35-.17,0-1.86-.33-.23,0-1.49-.24c.11,1.34.21,2.62.3,3.79,24.1,3.4,36.16,10.22,41.64,16.61,7.42,8.66-6.67,12.85-49.38,15.26,0,3.86-1.13,9.47-2.11,13.52,46.6-3.67,54.34-8.68,55.62-10.16h0Z" />
			<path class="cls-4"
				d="M1208.1,464c0,.34.61,1,1.7,1.85,2.64-.81,8-1.28,13.36-1.55,7.5-.38,15-.38,15-.38s-.11-1.17-.48-3C1233.88,461,1208.1,461.19,1208.1,464Z" />
			<path class="cls-4"
				d="M1209,436.9l16,11,4.84-2.42c-5.08-4-12.68-5.21-13.87-5.38l.65,1.14S1208.24,435.41,1209,436.9Z" />
			<path class="cls-4"
				d="M1197.31,447.07a1.3,1.3,0,0,1,.45.43c1.86,1.3,7.93,5,7.93,5l5.1-3.64s-1.46-2.55-6.92-8.74-5.1-4.37-3.64-4.74,10.2-5.1,10.2-5.1l5.06,8.94-3.53-9.18c-6.16-.77-18.49,7.7-18.49,7.7-2.31,6.93,10,20.8,10,20.8s-4.1-9-5.73-11.07C1197.29,447.17,1197.09,447,1197.31,447.07Z" />
			<path class="cls-4"
				d="M1207,460.51l9-7.6-8.13,3.64C1206.95,456.78,1206.79,458.4,1207,460.51Z" />
			<path class="cls-4"
				d="M1176.51,582.69c-36.21-3.08-47-10-47-10a90.07,90.07,0,0,1-7.28-8.43c20.76,5.2,62.83,11.23,85.76-1.34,31-17,26-56,26-56l-26-29-4.44-12.44c-2.89-1-12.45,5.3-12.45,5.3l3.38-3.33a78,78,0,0,1-11.82,6.55s-18.3-3.66-37.38.6c-13.68,3-27.76,10.16-35.81,25.6-10.14,19.47-4.05,39.36,4,53.84q.8,1.44,1.62,2.81a103.58,103.58,0,0,0,14.42,18.86s10.79,6.93,47,10c45.19,3.85,68.09-13.2,77.62-33.59a61.12,61.12,0,0,0,5.59-25.73c0-.37,0-.75,0-1.12C1258.85,553.43,1239,588,1176.51,582.69Zm-31.31-105c8-1.82,37.55-2.47,36.07-2.19-34.61,6.56-44.45,14.57-45.18,16.76s3.28,7.29,3.28,7.29c-7.65,1.82-28.42,12-28.42,12C1119,486.06,1137.19,479.5,1145.2,477.68Z" />
			<path class="cls-5"
				d="M852.17,490.93l47.77-8.47L743.54,431.6h-47S851.4,492.47,852.17,490.93Z" />
			<polygon class="cls-5"
				points="940.77 439.31 781.29 392.31 741.23 392.31 893.77 447.01 940.77 439.31" />
			<polygon class="cls-5"
				points="998.55 389.23 982.42 385.64 982.42 385.71 982.01 385.62 982.03 389.75 834.42 357.76 844.75 355.37 844.74 354.97 829.06 351.48 778.21 361.5 937.69 401.56 998.55 389.23" />
			<path class="cls-4"
				d="M839.8,110.85l143-7.4-.09,1.86,0,15.29h0v52l.13,22.54h-.13v42.24l.17,17.76-.17,0v13.27l-.18,0V274h.18v2.38l-.18,0v10.87l.37-.06-.18,3.66h-.19l-.1,94.78,16.13,3.59v-.16L1002,79.62,825,97.9l4.06,253.58L844.74,355Z" />
			<polygon class="cls-5"
				points="844.76 356.24 844.75 355.37 834.42 357.76 982.03 389.75 982.01 385.62 847.06 356.08 844.76 356.24" />
			<polygon class="cls-6"
				points="783.5 188.2 797.8 188.2 797.27 147.96 782.23 148.19 783.5 188.2" />
			<path class="cls-6"
				d="M772.46,186.75l4,.19s-5.53-5.23-4-7.1c1.31-1.59,6,4,7.31,5.7l-1.17-37.28-21.49.33,1.46,39.62h14Z" />
			<polygon class="cls-6"
				points="758.72 192.37 760.07 228.91 781.2 231.1 780 192.93 758.72 192.37" />
			<polygon class="cls-6"
				points="784.87 231.48 798.4 232.88 797.87 193.39 783.65 193.02 784.87 231.48" />
			<polygon class="cls-4"
				points="798.4 232.88 784.87 231.48 784.93 233.52 781.27 233.52 781.2 231.1 760.07 228.91 758.72 192.37 755.64 192.28 755.03 188.2 758.57 188.2 757.11 148.57 778.6 148.25 778.52 145.84 782.19 146.96 782.23 148.19 797.27 147.96 797.27 147.96 797.17 140.31 751 141.13 753.69 236.92 798.53 242.81 798.46 232.89 798.4 232.88" />
			<polygon class="cls-4"
				points="780 192.93 781.2 231.1 781.27 233.52 784.93 233.52 784.87 231.48 783.65 193.02 780 192.93" />
			<path class="cls-4"
				d="M780.14,186l-.09,2.19h3.44l-1.27-40,0-1.23-3.66-1.11.08,2.4,1.17,37.28Z" />
			<polygon class="cls-4"
				points="780.05 188.2 779.99 189.93 772.62 189.93 772.53 188.2 758.57 188.2 755.03 188.2 755.64 192.28 758.72 192.37 780 192.93 783.65 193.02 797.87 193.39 798.05 193.4 798.05 188.2 797.8 188.2 783.5 188.2 780.05 188.2" />
			<path class="cls-4"
				d="M779.77,185.53c-1.35-1.69-6-7.29-7.31-5.7-1.54,1.87,4,7.1,4,7.1l-4-.19.07,1.45.08,1.73H780l.07-1.73.09-2.19Z" />
			<path class="cls-1"
				d="M1231.91,444.45l-2.07,1L1225,447.9l-16-11c.76,1.49,7,16,7,16l-9,7.6a70.85,70.85,0,0,0,2.68,11.34s-4-2.91-5.47-5.83a1.11,1.11,0,0,0-.67-.56L1208,477.9l26,29s5,39-26,56c-22.93,12.57-65,6.55-85.76,1.34a90.07,90.07,0,0,0,7.28,8.43s10.79,6.93,47,10c62.44,5.31,82.33-29.25,83.17-57.45,0-.63,0-1.26,0-1.88,0-25.4-41-50.19-49.91-57.47-1.09-.89-1.7-1.52-1.7-1.85,0-2.86,25.78-3.06,29.57-3.08h.48a37,37,0,0,0-1.12-5.69,33.74,33.74,0,0,0-4.27-9.72A11.7,11.7,0,0,0,1231.91,444.45Z" />
			<path class="cls-2"
				d="M1197.31,447.07c-.22-.07,0,.1.45.43A1.3,1.3,0,0,0,1197.31,447.07Z" />
			<path class="cls-2"
				d="M1203.56,465.46a1.11,1.11,0,0,1,.67.56c1.46,2.91,5.47,5.83,5.47,5.83a70.85,70.85,0,0,1-2.68-11.34c-.22-2.11-.06-3.73.86-4l8.13-3.64s-6.24-14.51-7-16,7.62,4.34,7.62,4.34l-.65-1.14-.48-.85-5.06-8.94s-8.74,4.74-10.2,5.1-1.82-1.46,3.64,4.74,6.92,8.74,6.92,8.74l-5.1,3.64s-6.08-3.74-7.93-5c1.63,2.09,5.73,11.07,5.73,11.07l-9,8.85-3.38,3.33S1200.66,464.49,1203.56,465.46Z" />
			<path class="cls-2"
				d="M1139.37,499.54s-4-5.1-3.28-7.29,10.57-10.2,45.18-16.76c1.48-.28-28.06.36-36.07,2.19S1119,486.06,1111,511.56C1111,511.56,1131.72,501.36,1139.37,499.54Z" />
			<path class="cls-2"
				d="M1094.19,370.19l1.33-7.74c-4.3-.12-8.84-.16-13.65-.1l1,2.23-10.79,1.54s-.38-1.45-.83-3.5q-3.24.12-6.62.29c-55.12,2.8-51,20.77-51,20.77s12,16,74.69,13.85c9.5-.33,18-.71,25.68-1.14a12.31,12.31,0,0,0-.17-2.14C1112.77,388.41,1094.19,370.19,1094.19,370.19Z" />
			<path class="cls-7"
				d="M1094.19,370.19l1.33-7.74c-4.3-.12-8.84-.16-13.65-.1l1,2.23-10.79,1.54s-.38-1.45-.83-3.5q-3.24.12-6.62.29c-55.12,2.8-51,20.77-51,20.77s12,16,74.69,13.85c9.5-.33,18-.71,25.68-1.14a12.31,12.31,0,0,0-.17-2.14C1112.77,388.41,1094.19,370.19,1094.19,370.19Z" />
			<path class="cls-4"
				d="M1163.42,381.12c-5.48-6.39-17.54-13.21-41.64-16.61.27,3.64.42,6.23.42,6.23h-13.1a72.8,72.8,0,0,0,.72-7.53q-6.65-.54-14.31-.76l-1.33,7.74s18.58,18.22,19.68,24a12.31,12.31,0,0,1,.17,2.14C1156.75,394,1170.84,389.78,1163.42,381.12Z" />
			<path class="cls-7"
				d="M1163.42,381.12c-5.48-6.39-17.54-13.21-41.64-16.61.27,3.64.42,6.23.42,6.23h-13.1a72.8,72.8,0,0,0,.72-7.53q-6.65-.54-14.31-.76l-1.33,7.74s18.58,18.22,19.68,24a12.31,12.31,0,0,1,.17,2.14C1156.75,394,1170.84,389.78,1163.42,381.12Z" />
			<path class="cls-2"
				d="M1070.5,358.6c.25,1.43.53,2.83.79,4,.45,2.06.83,3.5.83,3.5l10.79-1.54-1-2.23-1.9-4.08-2.45-5.26s22.34-3.08,28.51-2.31c2.71.34,3.63,4.27,3.82,8.55h0c.06,1.31,0,2.65,0,3.94a72.8,72.8,0,0,1-.72,7.53h13.1s-.15-2.59-.42-6.23c-.09-1.17-.19-2.45-.3-3.79h0c-.67-7.93-1.76-17.89-3.13-19.25-1.17-1.17-12.81.23-24.31,2.19-11.22,1.92-22.31,4.37-23.45,5.51a3.59,3.59,0,0,0-.69,2.17A32.31,32.31,0,0,0,1070.5,358.6Z" />
			<path class="cls-4"
				d="M1044.37,426.19c3.89-1.3,5.62,16.44,5.62,16.44s.43-26.39-7.79-20.33c-6.79,5-.88,70.61,1.38,93.2,1,.07,2,.11,3,.14C1044.86,488.54,1041.34,427.2,1044.37,426.19Z" />
			<path class="cls-8"
				d="M1044.37,426.19c3.89-1.3,5.62,16.44,5.62,16.44s.43-26.39-7.79-20.33c-6.79,5-.88,70.61,1.38,93.2,1,.07,2,.11,3,.14C1044.86,488.54,1041.34,427.2,1044.37,426.19Z" />
			<path class="cls-1"
				d="M1047.4,528.28s-.34-4.94-.82-12.64c-1,0-2-.07-3-.14.47,4.74.79,7.59.79,7.59Z" />
			<path class="cls-8"
				d="M1047.4,528.28s-.34-4.94-.82-12.64c-1,0-2-.07-3-.14.47,4.74.79,7.59.79,7.59Z" />
			<path class="cls-4"
				d="M1063.4,430.95c3.89-1.3,5.62,16.44,5.62,16.44s.43-26.39-7.79-20.33c-5.83,4.3-2.62,57.2-.27,87.53q1.67-.28,3.39-.65C1062.78,481.69,1060.77,431.82,1063.4,430.95Z" />
			<path class="cls-8"
				d="M1063.4,430.95c3.89-1.3,5.62,16.44,5.62,16.44s.43-26.39-7.79-20.33c-5.83,4.3-2.62,57.2-.27,87.53q1.67-.28,3.39-.65C1062.78,481.69,1060.77,431.82,1063.4,430.95Z" />
			<path class="cls-1"
				d="M1065.78,540.79s-.66-11.41-1.42-26.86q-1.73.37-3.39.65c1,12.39,1.78,21,1.78,21Z" />
			<path class="cls-8"
				d="M1065.78,540.79s-.66-11.41-1.42-26.86q-1.73.37-3.39.65c1,12.39,1.78,21,1.78,21Z" />
			<path class="cls-4"
				d="M1082.94,431.95c3.89-1.3,5.62,16.44,5.62,16.44s.43-26.39-7.79-20.33c-5.29,3.9-3.15,49.23-1,81,1.19-.5,2.39-1,3.6-1.58C1082,474.83,1080.56,432.74,1082.94,431.95Z" />
			<path class="cls-8"
				d="M1082.94,431.95c3.89-1.3,5.62,16.44,5.62,16.44s.43-26.39-7.79-20.33c-5.29,3.9-3.15,49.23-1,81,1.19-.5,2.39-1,3.6-1.58C1082,474.83,1080.56,432.74,1082.94,431.95Z" />
			<path class="cls-1"
				d="M1085.29,545.17s-.94-16.94-1.87-37.71c-1.21.56-2.41,1.09-3.6,1.58,1.21,17.54,2.44,30.94,2.44,30.94Z" />
			<path class="cls-8"
				d="M1085.29,545.17s-.94-16.94-1.87-37.71c-1.21.56-2.41,1.09-3.6,1.58,1.21,17.54,2.44,30.94,2.44,30.94Z" />
			<path class="cls-4"
				d="M1102.25,432.78c3.89-1.3,5.62,16.44,5.62,16.44s.43-26.39-7.79-20.33c-4.73,3.48-4.2,39.3-2.9,69.11a29.56,29.56,0,0,1,3.74-10.2C1100.38,460.52,1100.33,433.42,1102.25,432.78Z" />
			<path class="cls-8"
				d="M1102.25,432.78c3.89-1.3,5.62,16.44,5.62,16.44s.43-26.39-7.79-20.33c-4.73,3.48-4.2,39.3-2.9,69.11a29.56,29.56,0,0,1,3.74-10.2C1100.38,460.52,1100.33,433.42,1102.25,432.78Z" />
			<path class="cls-1"
				d="M1099.53,538.77l3,5.19s-1.08-28.18-1.64-56.16a29.56,29.56,0,0,0-3.74,10.2C1098.15,520,1099.53,538.77,1099.53,538.77Z" />
			<path class="cls-8"
				d="M1099.53,538.77l3,5.19s-1.08-28.18-1.64-56.16a29.56,29.56,0,0,0-3.74,10.2C1098.15,520,1099.53,538.77,1099.53,538.77Z" />
			<path class="cls-9"
				d="M979.49,287.61c1.42-.15,2.49-.29,3-.37V276.38c-.43,0-1.71-.15-3.47-.24Z" />
			<path class="cls-9"
				d="M926.25,187.95l-.15-7.52-1.66,5.48A20.28,20.28,0,0,1,926.25,187.95Z" />
			<path class="cls-9"
				d="M979.62,290.89l.71,18.81c-2.93,1.65-3.66-.73-3.66-.73l-.44-18.15c-2-.08-4.36-.23-6.7-.52l.37,11.9s-1.28,1.46-3.29-.18l-.38-12.22a31,31,0,0,1-4.93-1.29l-.92,23c-3.66,2.56-4.21-.37-4.21-.37l1.56-24.56a4.54,4.54,0,0,1-1.93-4,5.6,5.6,0,0,1,2.44-4l1-15.08L947,260.93l-1.36,35.24-90.53,30.09,1,29.22-9,.6L982,385.62l.4.09v-.07l.1-94.78C982.12,290.87,981.08,290.89,979.62,290.89Z" />
			<path class="cls-9"
				d="M969.1,276.3l.36,11.69a62,62,0,0,0,6.7-.09L975.87,276A63.45,63.45,0,0,0,969.1,276.3Z" />
			<path class="cls-9" d="M979,274c1.81,0,3.11,0,3.55,0v-5.56l-3.79-.8Z" />
			<path class="cls-9"
				d="M969.05,274.89c2.34-.37,4.69-.59,6.77-.72l-.17-7.18-6.88-1.46Z" />
			<path class="cls-9"
				d="M965.46,264.84l-3.19-.67-.5,12.55a29.61,29.61,0,0,1,4-1.2Z" />
			<path class="cls-9"
				d="M961.72,278l-.33,8.38a16.39,16.39,0,0,0,4.78,1.31l-.34-10.94A18,18,0,0,0,961.72,278Z" />
			<path class="cls-9"
				d="M848.14,113.6l2.47,75.76A67.61,67.61,0,0,1,874,191.58l-.22,2.42H871.1v20.46s8.58-2.2,19.14,2.42v-6.6l11.22-5.5L903.65,193s2.33-.33,6-.6l.14-2.55,3.74-.44a5.49,5.49,0,0,1,3.29-5.56l-19.94-38.5-.83.5-.58-.9a22.42,22.42,0,0,1,2.92-1.67c.48-.08.26,1.35.26,1.35l-.81.08,19.79,38.79.08,0c2-.72,4,.19,5.6,1.5L926,176.3l-.91-45.92,57.58-9.78,0-15.29-.09,1.9Z" />
			<polygon class="cls-4"
				points="982.71 172.65 982.71 120.6 982.69 120.6 982.65 160.5 982.71 172.65" />
			<polygon class="cls-7"
				points="982.71 172.65 982.71 120.6 982.69 120.6 982.65 160.5 982.71 172.65" />
			<polygon class="cls-4"
				points="982.54 268.45 982.71 268.49 982.71 255.22 982.55 255.26 982.54 268.45" />
			<polygon class="cls-7"
				points="982.54 268.45 982.71 268.49 982.71 255.22 982.55 255.26 982.54 268.45" />
			<path class="cls-4" d="M982.57,236.49l.14,0V195.17h-.1Z" />
			<path class="cls-7" d="M982.57,236.49l.14,0V195.17h-.1Z" />
			<path class="cls-9"
				d="M926,176.3l10-32.38h-1s.22-2,1.32-1.11c.66.53.47.35,1.53.69.69.22.56.4.56.4s.19.93-.55.77l-1-.21-10.9,36,.15,7.52c.73.94,1.17,1.65,1.17,1.65l3.08.88v2.17a57.57,57.57,0,0,1,15,3.55s5.47,18.6.48,34.42l8.44.23.55,7.14-7.14,1.1L947,260.93l12.25,2.59.62-9.81,2.38-.37v-1.46c-3.48-.37-4-1.28-4-1.28l-.37-11c9-6.06,23.25-3.44,24.75-3.14l0-41.32-31.47-3.29h0l-7.87-.82h0l-.29-15-.6-30.81h0l12.33-.91,27.84-2,0,5.29h0l.07,12.89,0-39.9-57.58,9.78Z" />
			<path class="cls-7"
				d="M926,176.3l10-32.38h-1s.22-2,1.32-1.11c.66.53.47.35,1.53.69.69.22.56.4.56.4s.19.93-.55.77l-1-.21-10.9,36,.15,7.52c.73.94,1.17,1.65,1.17,1.65l3.08.88v2.17a57.57,57.57,0,0,1,15,3.55s5.47,18.6.48,34.42l8.44.23.55,7.14-7.14,1.1L947,260.93l12.25,2.59.62-9.81,2.38-.37v-1.46c-3.48-.37-4-1.28-4-1.28l-.37-11c9-6.06,23.25-3.44,24.75-3.14l0-41.32-31.47-3.29h0l-7.87-.82h0l-.29-15-.6-30.81h0l12.33-.91,27.84-2,0,5.29h0l.07,12.89,0-39.9-57.58,9.78Z" />
			<path class="cls-9"
				d="M965.21,256.59c-1.58-.06-2.63-.13-2.63-.13l-.31,7.71,3.19.67Z" />
			<path class="cls-7"
				d="M965.21,256.59c-1.58-.06-2.63-.13-2.63-.13l-.31,7.71,3.19.67Z" />
			<polygon class="cls-9"
				points="978.31 256.27 978.74 267.65 982.54 268.45 982.55 255.26 978.31 256.27" />
			<polygon class="cls-7"
				points="978.31 256.27 978.74 267.65 982.54 268.45 982.55 255.26 978.31 256.27" />
			<path class="cls-9"
				d="M975.65,267l-.26-10.72a52.43,52.43,0,0,1-6.9.38l.27,8.89Z" />
			<path class="cls-7"
				d="M975.65,267l-.26-10.72a52.43,52.43,0,0,1-6.9.38l.27,8.89Z" />
			<path class="cls-5"
				d="M847.06,356.08l9-.6-1-29.22-.14,0-1-16.41-2.64-81.84h.42l-1.29-38.69.2,0-2.47-75.76,134.47-6.39.09-1.9.09-1.86-143,7.4L844.74,355v.4l0,.86Z" />
			<path class="cls-5"
				d="M954.94,238l-.55-7.14-8.44-.23,0,.13L851.74,229l0-.92h-.42l2.64,81.84,91.68-13.72L947,260.93l.84-21.85Z" />
			<polygon class="cls-5"
				points="853.92 309.89 854.94 326.31 855.08 326.26 945.6 296.17 853.92 309.89" />
			<path class="cls-6"
				d="M945.91,230.74l0-.13c5-15.81-.48-34.42-.48-34.42a57.57,57.57,0,0,0-15-3.55v.69l-20.9.44.08-1.41c-3.7.27-6,.6-6,.6l-2.19,11.81-11.22,5.5v6.6c-10.56-4.62-19.14-2.42-19.14-2.42V194h2.64l.22-2.42a67.61,67.61,0,0,0-23.35-2.22l-.2,0,1.29,38.69,0,.92ZM944,223.22c0-.9.4-1.63.89-1.63s.89.73.89,1.63-.4,1.63-.89,1.63S944,224.12,944,223.22Zm1.22-2.52c-.49,0-.89-.73-.89-1.63s.4-1.63.89-1.63.89.73.89,1.63S945.7,220.7,945.2,220.7Zm-.24-6.1c-.9,0-1.63-1.53-1.63-3.42s.73-3.42,1.63-3.42,1.63,1.53,1.63,3.42S945.86,214.6,945,214.6Zm-.81-15.29c.9,0,1.63,1.53,1.63,3.42s-.73,3.42-1.63,3.42-1.63-1.53-1.63-3.42S943.25,199.31,944.15,199.31Zm-29.36-4.81c21.34-1.25,26.14,3.53,26.14,3.53,3.74,13.14.22,28.36.22,28.36-12.76,2.92-26.36-.37-26.36-.37C908.63,210.8,914.79,194.5,914.79,194.5Z" />
			<path class="cls-5"
				d="M941.15,226.39s3.52-15.22-.22-28.36c0,0-4.8-4.78-26.14-3.53,0,0-6.16,16.3,0,31.52C914.79,226,928.39,229.31,941.15,226.39Z" />
			<path class="cls-6"
				d="M923.34,184.94c-1.65-1.31-3.62-2.22-5.6-1.5l-.08,0,3.82,7.48Z" />
			<path class="cls-6"
				d="M930.5,193.34v-2.86l-3.08-.88s-.44-.71-1.17-1.65a20.28,20.28,0,0,0-1.81-2l-1.91,6.31-.43-.27.08.1-1,.08-4.3-8.31a5.49,5.49,0,0,0-3.29,5.56l-3.74.44-.14,2.55-.08,1.41Z" />
			<path class="cls-6"
				d="M921.79,191.57l.32.38.43.27,1.91-6.31,1.66-5.48,10.9-36,1,.21c.74.16.55-.77.55-.77s.14-.18-.56-.4c-1.06-.34-.87-.16-1.53-.69-1.1-.88-1.32,1.11-1.32,1.11h1L926,176.3l-2.68,8.63-1.87,6Z" />
			<path class="cls-6"
				d="M921.15,192.13l1-.08-.08-.1-.32-.38-.31-.61-3.82-7.48-19.79-38.79.81-.08s.22-1.43-.26-1.35a22.42,22.42,0,0,0-2.92,1.67l.58.9.83-.5,19.94,38.5Z" />
			<ellipse class="cls-5" cx="944.15" cy="202.73" rx="1.63" ry="3.42" />
			<ellipse class="cls-5" cx="944.96" cy="211.18" rx="1.63" ry="3.42" />
			<ellipse class="cls-5" cx="945.2" cy="219.07" rx="0.89" ry="1.63" />
			<ellipse class="cls-5" cx="944.88" cy="223.22" rx="0.89" ry="1.63" />
			<path class="cls-6"
				d="M976.67,309s.73,2.38,3.66.73l-.71-18.81c-1,0-2.12,0-3.39-.07Z" />
			<path class="cls-6"
				d="M958.37,282.43c.08,1.83,1.24,3.1,3,4l.33-8.38C959.63,279,958.28,280.38,958.37,282.43Z" />
			<path class="cls-6"
				d="M956.18,311.16s.55,2.93,4.21.37l.92-23a12.54,12.54,0,0,1-3.56-1.89Z" />
			<path class="cls-6"
				d="M975.87,276l.29,11.85c1.23-.08,2.36-.18,3.34-.28l-.43-11.48C978.12,276.09,977,276.06,975.87,276Z" />
			<path class="cls-6"
				d="M982.57,236.49c-1.5-.3-15.74-2.92-24.75,3.14l.37,11s.55.91,4,1.28v1.46l-2.38.37-.62,9.81-1,15.08a14.21,14.21,0,0,1,3.52-1.89l.5-12.55.31-7.71s1,.08,2.63.13l-.07-2.15,3.29.37.06,1.84a52.43,52.43,0,0,0,6.9-.38l.26,10.72.17,7.18c1.16-.07,2.23-.11,3.16-.14l-.24-6.39-.43-11.38,4.24-1,.17,0,.17,0-.17-17.76v-.9Z" />
			<path class="cls-6"
				d="M966.6,302c2,1.65,3.29.18,3.29.18l-.37-11.9c-1.11-.14-2.22-.3-3.3-.5Z" />
			<path class="cls-6"
				d="M965.83,276.76l.34,10.94c1.06.15,2.17.24,3.29.29l-.36-11.69C968,276.41,966.88,276.56,965.83,276.76Z" />
			<path class="cls-6"
				d="M965.79,275.51c1.07-.24,2.17-.45,3.27-.62l-.29-9.35-.27-8.89-.06-1.84-3.29-.37.07,2.15.25,8.25Z" />
			<path class="cls-6"
				d="M979,274c-.94,0-2,.07-3.16.14-2.08.13-4.42.35-6.77.72-1.1.17-2.2.38-3.27.62a29.61,29.61,0,0,0-4,1.2,14.21,14.21,0,0,0-3.52,1.89,5.6,5.6,0,0,0-2.44,4,4.54,4.54,0,0,0,1.93,4,12.54,12.54,0,0,0,3.56,1.89,31,31,0,0,0,4.93,1.29c1.08.2,2.19.37,3.3.5,2.34.28,4.66.44,6.7.52,1.27,0,2.42.07,3.39.07,1.46,0,2.5,0,2.9,0h.19l.18-3.66-.37.06c-.53.08-1.6.22-3,.37-1,.1-2.11.2-3.34.28a62,62,0,0,1-6.7.09c-1.12-.05-2.23-.15-3.29-.29a16.39,16.39,0,0,1-4.78-1.31c-1.77-.86-2.94-2.12-3-4-.09-2.05,1.26-3.46,3.35-4.43a18,18,0,0,1,4.11-1.24c1-.2,2.15-.35,3.27-.46a63.45,63.45,0,0,1,6.77-.26c1.17,0,2.25.05,3.2.1,1.76.08,3,.2,3.47.24l.18,0V274h-.18C982.1,274,980.8,274,979,274Z" />
			<polygon class="cls-5"
				points="982.57 147.61 950.35 150.59 951.14 191.88 982.61 195.16 982.71 195.17 982.84 195.19 982.71 172.65 982.65 160.5 982.57 147.61" />
			<polygon class="cls-5"
				points="943.26 191.05 943.26 191.05 942.98 176.09 943.26 191.05" />
			<polygon class="cls-5"
				points="942.38 145.27 942.38 145.27 954.71 144.37 942.38 145.27" />
			<polygon class="cls-6"
				points="982.57 147.61 982.57 147.61 982.54 142.32 954.71 144.37 942.38 145.27 942.38 145.27 942.98 176.09 943.26 191.05 943.26 191.05 951.14 191.88 951.14 191.88 950.35 150.59 982.57 147.61" />
			<polygon class="cls-10"
				points="1116.02 172.02 1117.24 0 1114.88 0 1113.67 172.05 1116.02 172.02" />
			<path class="cls-10"
				d="M1110.38,172.1c.08-5.38.27-19.2.5-37.17L1107.9,0h-3.14l3.63,172.14Z" />
			<path class="cls-1"
				d="M1108.38,172.14,1104.75,0h-3.32c1.34,48.94,3.36,155,3.69,172.19Z" />
			<path class="cls-1"
				d="M1110.38,172.1l3.29-.05L1114.88,0h-2.51c-.2,33.77-1,94.74-1.49,134.94C1110.65,152.91,1110.46,166.72,1110.38,172.1Z" />
			<path class="cls-10"
				d="M1146.15,159v4.71l4.24,2.83.32,6.33,5.52.33L1155.1,168l-5.18-4.71.47-7.07-6.12-1.88,2-154.31h-3.79l-2.68,157.2A25,25,0,0,1,1146.15,159Z" />
			<path class="cls-10"
				d="M1152.27,278.2l-50.57-6.72.64,16.61,49,10.83L1173,287.62s-.47-113.06-.47-111.64c0,.31-.79.42-2,.39L1165,270.19Z" />
			<path class="cls-10" d="M1134.23,104.87l-2,52.41q.8-.14,1.7-.23Z" />
			<path class="cls-4"
				d="M1134,157a23.59,23.59,0,0,1,5.84.15L1142.49,0h-7.73l-.52,104.87Z" />
			<path class="cls-4"
				d="M1150.86,176s-14.6,4.24-27.32-3.3v-.78L1116,172l-2.35,0-3.29.05-2,0-3.26.05-1.37,0-17.9,4.24,6.12,93.74,9.72,1.29,50.57,6.72,12.72-8-12.4,5.52-1.66-93.92,19.71-7.7-14.42-.87-5.52-.33Zm-52.46,84-1.65-74.47,48,1.65,2.07,80.26Z" />
			<path class="cls-4"
				d="M1150.86,176l-.15-3.09-.32-6.33-4.24-2.83V159a25,25,0,0,0-6.34-1.82A23.59,23.59,0,0,0,1134,157q-.9.09-1.7.23a19.13,19.13,0,0,0-5.44,1.74v8.48l-3.3.94v4.24C1136.26,180.22,1150.86,176,1150.86,176Z" />
			<path class="cls-1"
				d="M1096.74,185.52,1098.4,260l48.41,7.45-2.07-80.26Zm43.44,52.13-5.79-.41L1134,224l6.62-1.24Z" />
			<polygon class="cls-2"
				points="1134.39 237.24 1140.18 237.65 1140.6 222.76 1133.98 224 1134.39 237.24" />
			<polygon class="cls-1"
				points="1150.94 181.8 1152.59 275.71 1164.99 270.19 1170.51 176.37 1170.64 174.09 1150.94 181.8" />
		</g>
	</g>
</svg>