<svg xmlns="http://www.w3.org/2000/svg" viewBox="0 0 62.58 54.42"><defs><style>.cls-1,.cls-8{fill:#fff;}.cls-1,.cls-7{opacity:0.6;}.cls-2{fill:#63a1a8;opacity:0.7;}.cls-3,.cls-4{fill:#82b4b9;}.cls-3{opacity:0.2;}.cls-4{opacity:0.33;}.cls-5{fill:#4d949b;}.cls-6{fill:#32848c;}</style></defs><title>button_about</title><g id="Layer_2" data-name="Layer 2"><g id="buttons"><path class="cls-1" d="M47.58,1.23H0v50.6H47.58a12,12,0,0,0,12-12V13.23A12,12,0,0,0,47.58,1.23Z"/><path class="cls-2" d="M47.58,0H0V2.9H47.58a11.83,11.83,0,0,1,12,11.58V39.94a11.83,11.83,0,0,1-12,11.58H0v2.9H47.58a14.76,14.76,0,0,0,15-14.48V14.48A14.76,14.76,0,0,0,47.58,0Z"/><path class="cls-3" d="M0,42v9.82H47.58a12,12,0,0,0,12-12V13.43C54.87,30.28,35.12,38.5,0,42Z"/><path class="cls-1" d="M45.44,3.63H0V9.18H43.7A11.56,11.56,0,0,1,55.23,20.71L57,15.16A11.56,11.56,0,0,0,45.44,3.63Z"/><path class="cls-4" d="M51.65,6.48a10.8,10.8,0,0,1,1.07,4.67V34.83A11,11,0,0,1,41.8,45.75H0V50H45.42A11,11,0,0,0,56.34,39.11V15.43A10.92,10.92,0,0,0,51.65,6.48Z"/></g><g id="icons_Main"><rect class="cls-1" x="14.28" y="11.64" width="29.52" height="29.52" rx="4.23" ry="4.23"/><rect class="cls-5" x="16.38" y="13.19" width="25.32" height="25.32" rx="3.63" ry="3.63"/><path class="cls-6" d="M38,13.19H20a3.67,3.67,0,0,0-3.62,3.14,3.61,3.61,0,0,1,1.65-.41h18a3.68,3.68,0,0,1,3.67,3.67v18a3.6,3.6,0,0,1-.05.53,3.67,3.67,0,0,0,2-3.26v-18A3.68,3.68,0,0,0,38,13.19Z"/><path class="cls-6" d="M26.23,19.73c0-1.32,1.36-3.28,2.78-3.28a2.82,2.82,0,0,1,2.62,2.65c0,1.27-1.81,2.83-3.25,2.83A1.93,1.93,0,0,1,26.23,19.73Zm4.63,2.63s.43,5.53.51,12.13c0,.21-1.24,1.08-1.24,1.29,0,0-1.46,0-3.45,0,0,0,0-3.37-.06-12.66,0,0,.6-.62,1.23-1.22Z"/><g class="cls-7"><path class="cls-8" d="M27.47,18.49a1.94,1.94,0,0,1,2.15-2.13,1.93,1.93,0,0,1,2.09,2.13,2,2,0,0,1-2.09,2.2A1.93,1.93,0,0,1,27.47,18.49Zm.39,3.42s1.27,0,3.45,0c0,0,0,5.77.06,12.66,0,0-1.46,0-3.45,0C27.93,34.57,27.95,31.2,27.86,21.91Z"/></g></g></g></svg>