<svg xmlns="http://www.w3.org/2000/svg" viewBox="0 0 837.42 594.64"><defs><style>.cls-1{fill:#82b4b9;}.cls-2{fill:#2d8189;}.cls-3{fill:#0b6d76;}.cls-4{fill:#217a82;}.cls-5{fill:#63a1a8;}</style></defs><title>button_backdoor_over</title><g id="Layer_2" data-name="Layer 2"><g id="ButtonText"><polygon class="cls-1" points="713.46 261.34 666 276.64 788.57 307.22 837.42 292.45 713.46 261.34"/><polygon class="cls-1" points="650.47 302.68 619.74 307.53 736.93 349.47 773.61 339.49 650.47 302.68"/><polygon class="cls-1" points="611.56 342.5 568.25 345.23 697.72 395.05 737.39 383.08 611.56 342.5"/><polygon class="cls-2" points="570.67 392.64 0 471.64 278.67 594.64 688.67 456.64 570.67 392.64"/><path class="cls-3" d="M701.9,56s-3.26-.45-4.53.45L698.46,75s1,.78,4.31-.11C702.77,74.92,701.73,55.38,701.9,56Z"/><path class="cls-3" d="M700.89,200s1.62-1.14,6,.46L706.37,222s-1.21,1.25-4.71.23Z"/><polygon class="cls-2" points="704.33 259.93 606.12 282.57 587.93 0 698.27 18.4 704.33 259.93"/><polygon class="cls-4" points="604.56 138.52 609 181.64 694.51 174.48 694.19 138.98 604.56 138.52"/><polygon class="cls-5" points="587.93 0 578.25 2.52 597.59 279.28 606.12 282.57 587.93 0"/><polygon class="cls-5" points="604.56 138.52 605.2 151.84 617.56 156.28 705.6 149.76 705.6 139.61 688.8 136.12 604.56 138.52"/><polygon class="cls-2" points="618.51 143.59 619.14 153.11 703.7 147.54 703.07 140.56 618.51 143.59"/><polygon class="cls-4" points="621.28 44.82 624.13 84.77 671.37 85.72 672 43.24 621.28 44.82"/><path class="cls-5" d="M629.48,49.79l8.14-.13s0,1.28.07,3.13c0,0-2.28,0-5.43.13,0,0,0,4.24.07,10.92.54,0,2.39,0,4.85-.09v3.08s-2,0-4.81,0c0,2.91.07,6.12.14,9.59,0,0,2.17.09,5.5.13,0,0,0,1.16,0,3.13,0,0-3.73-.21-8.21-.26C629.77,79.38,629.7,67,629.48,49.79Z"/><path class="cls-5" d="M638.56,78.91l3.58-14c-.54-2.36-1.66-7.32-3.33-14.39,0,0,.9,0,3-.13,0,0,.87,4.75,2.39,12.12,1.74-8.82,2.42-13.41,2.42-13.41,1.85.09,3.15,0,3.15,0-1.92,8.22-3,13.19-3.51,15.55,2.93,11.39,4,15.29,4,15.29-2.21.13-3.22.17-3.22.17-1.45-6.72-2.32-11-2.75-13.06-1.63,7-2.57,12-2.57,12C639.65,79,638.56,78.91,638.56,78.91Z"/><path class="cls-5" d="M651.91,49.79s1,0,2.79,0c0,0,.07,14.35.18,29.81,0,0-1.12,0-2.82,0C652.05,79.55,652.09,66.45,651.91,49.79Z"/><path class="cls-5" d="M656.58,49.74s2.39,0,9.88-.17c0,0,0,1.24,0,3.17h-3.55c0,2.61,0,11.35.14,26.94,0,0-1,0-2.82,0,0,0,0-10.75-.11-26.94l-3.51,0S656.65,51.67,656.58,49.74Z"/></g></g></svg>