<svg xmlns="http://www.w3.org/2000/svg" viewBox="0 0 50.98 50.98"><defs><style>.cls-1{fill:#88b7bc;}.cls-2{fill:#edf4f5;}.cls-3,.cls-4{fill:#82b4b9;}.cls-3{opacity:0.2;}.cls-4{opacity:0.33;}.cls-5,.cls-6{fill:#fff;}.cls-5{opacity:0.6;}.cls-7{fill:#5599a0;}.cls-8{fill:#14727b;}</style></defs><title>button_twitter_over_1</title><g id="Layer_2" data-name="Layer 2"><g id="ButtonText"><rect class="cls-1" width="50.98" height="50.98" rx="13.28" ry="13.28"/><rect class="cls-2" x="2.55" y="1.41" width="45.97" height="45.97" rx="11.97" ry="11.97"/><path class="cls-3" d="M3.91,40.95a12,12,0,0,0,10.61,6.44h22a12,12,0,0,0,12-12v-22A11.9,11.9,0,0,0,46.68,7C39.92,36.91,18.82,41.48,3.91,40.95Z"/><path class="cls-4" d="M43.13,7.35a10.59,10.59,0,0,1,1.16,4.81V31.75A10.65,10.65,0,0,1,33.64,42.4H14a10.61,10.61,0,0,1-7.49-3.08,10.64,10.64,0,0,0,9.49,5.84H35.64A10.65,10.65,0,0,0,46.29,34.51V14.92A10.61,10.61,0,0,0,43.13,7.35Z"/><path class="cls-5" d="M7.31,34.35V15.3A10.36,10.36,0,0,1,17.67,4.95H36.72a10.31,10.31,0,0,1,3.56.64,10.31,10.31,0,0,0-6.48-2.28H14.76A10.36,10.36,0,0,0,4.4,13.66V32.71a10.35,10.35,0,0,0,6.8,9.72A10.33,10.33,0,0,1,7.31,34.35Z"/><path class="cls-6" d="M26.22,18.84l7.35-.08A3.7,3.7,0,0,0,37.22,15l0-1.6a3.71,3.71,0,0,0-3.7-3.61h0L19.78,9.9a3.7,3.7,0,0,0-3.66,3.76c.15,9.3.2,18.3.21,21.73A3.69,3.69,0,0,0,20,39.06h2.55a3.7,3.7,0,0,0,3.69-3.74L26.2,29.4a.14.14,0,0,1,0-.11.15.15,0,0,1,.11,0h5a3.69,3.69,0,0,0,3.69-3.72V24.1a3.7,3.7,0,0,0-3.74-3.67l-5.09,0h0a.15.15,0,0,1-.15-.15V19A.15.15,0,0,1,26.22,18.84Z"/><path class="cls-7" d="M19.8,11.67l13.66-.15a1.92,1.92,0,0,1,1.95,1.88c0,.47,0,1,0,1.6a1.93,1.93,0,0,1-1.89,2l-7.34.08A1.92,1.92,0,0,0,24.3,19v1.33a1.92,1.92,0,0,0,1.93,1.91l5.1,0a1.93,1.93,0,0,1,1.95,1.91v1.41a1.92,1.92,0,0,1-1.93,1.94h-5a1.93,1.93,0,0,0-1.92,1.95l.08,5.91a1.93,1.93,0,0,1-1.92,1.95H20a1.92,1.92,0,0,1-1.93-1.91c0-3.77-.07-12.58-.22-21.75A1.93,1.93,0,0,1,19.8,11.67Z"/><path class="cls-8" d="M24.47,29a1.92,1.92,0,0,0-1.34,1.85l.08,5.91a1.92,1.92,0,0,1,0,.42,1.92,1.92,0,0,0,1.34-1.85l-.08-5.91A1.92,1.92,0,0,1,24.47,29ZM35.41,13.4a1.92,1.92,0,0,0-1.95-1.88l-13.66.15a1.92,1.92,0,0,0-1.86,1.53,1.91,1.91,0,0,1,.56-.1L32.16,13a1.92,1.92,0,0,1,1.95,1.88c0,.47,0,1,0,1.6a1.92,1.92,0,0,1,0,.45A1.92,1.92,0,0,0,35.44,15C35.43,14.41,35.42,13.87,35.41,13.4Zm-4.06,8.8-5.1,0a1.92,1.92,0,0,1-1.93-1.91V19a1.92,1.92,0,0,1,0-.41A1.92,1.92,0,0,0,23,20.44v1.33a1.92,1.92,0,0,0,1.93,1.91l5.1,0A1.93,1.93,0,0,1,32,25.55V27a1.94,1.94,0,0,1,0,.41,1.92,1.92,0,0,0,1.34-1.84V24.12A1.93,1.93,0,0,0,31.34,22.21Z"/></g></g></svg>