<svg xmlns="http://www.w3.org/2000/svg" viewBox="0 0 53.38 55.06">
<defs>
<style>.cls-1{opacity:0.12;}.cls-2{fill:#88b7bc;}.cls-3{fill:#edf4f5;}.cls-4,.cls-5{fill:#82b4b9;}.cls-4{opacity:0.2;}.cls-5{opacity:0.33;}.cls-6,.cls-7{fill:#fff;}.cls-6{opacity:0.6;}.cls-8{fill:#4d949b;}.cls-9{fill:#32848c;}.cls-10{fill:#5599a0;}.cls-11{fill:#14727b;}</style>
</defs>
<title>button_facebook</title>
<g id="Layer_2" data-name="Layer 2">
<g id="ButtonText">
<rect class="cls-1" y="3.48" width="51.59" height="51.59" rx="13.44" ry="13.44"/>
<rect class="cls-2" x="2.41" width="50.98" height="50.98" rx="13.28" ry="13.28"/>
<rect class="cls-3" x="4.95" y="1.41" width="45.97" height="45.97" rx="11.97" ry="11.97"/>
<path class="cls-4" d="M6.32,40.95a12,12,0,0,0,10.61,6.44h22a12,12,0,0,0,12-12v-22A11.9,11.9,0,0,0,49.08,7C42.33,36.91,21.22,41.48,6.32,40.95Z"/>
<path class="cls-5" d="M45.53,7.35a10.59,10.59,0,0,1,1.16,4.81V31.75A10.65,10.65,0,0,1,36,42.4H16.45A10.61,10.61,0,0,1,9,39.32a10.64,10.64,0,0,0,9.49,5.84H38A10.65,10.65,0,0,0,48.7,34.51V14.92A10.61,10.61,0,0,0,45.53,7.35Z"/>
<path class="cls-6" d="M9.72,34.35V15.3A10.36,10.36,0,0,1,20.08,4.95H39.13a10.31,10.31,0,0,1,3.56.64,10.31,10.31,0,0,0-6.48-2.28H17.16A10.36,10.36,0,0,0,6.81,13.66V32.71a10.35,10.35,0,0,0,6.8,9.72A10.33,10.33,0,0,1,9.72,34.35Z"/>
<path class="cls-7" d="M28.63,18.84,36,18.76A3.7,3.7,0,0,0,39.62,15l0-1.6a3.71,3.71,0,0,0-3.7-3.61h0L22.19,9.9a3.7,3.7,0,0,0-3.66,3.76c.15,9.3.2,18.3.21,21.73a3.69,3.69,0,0,0,3.69,3.67H25a3.7,3.7,0,0,0,3.69-3.74L28.6,29.4a.14.14,0,0,1,0-.11.15.15,0,0,1,.11,0h5a3.69,3.69,0,0,0,3.69-3.72V24.1a3.7,3.7,0,0,0-3.74-3.67l-5.09,0h0a.15.15,0,0,1-.15-.15V19A.15.15,0,0,1,28.63,18.84Z"/>
<path class="cls-8" d="M22.21,11.67l13.66-.15a1.92,1.92,0,0,1,1.95,1.88c0,.47,0,1,0,1.6A1.93,1.93,0,0,1,36,17l-7.34.08A1.92,1.92,0,0,0,26.7,19v1.33a1.92,1.92,0,0,0,1.93,1.91l5.1,0a1.93,1.93,0,0,1,1.95,1.91v1.41a1.92,1.92,0,0,1-1.93,1.94h-5a1.93,1.93,0,0,0-1.92,1.95l.08,5.91A1.93,1.93,0,0,1,25,37.28H22.45a1.92,1.92,0,0,1-1.93-1.91c0-3.77-.07-12.58-.22-21.75A1.93,1.93,0,0,1,22.21,11.67Z"/>
<path class="cls-9" d="M26.87,29a1.92,1.92,0,0,0-1.34,1.85l.08,5.91a1.92,1.92,0,0,1,0,.42,1.92,1.92,0,0,0,1.34-1.85l-.08-5.91A1.92,1.92,0,0,1,26.87,29ZM37.81,13.4a1.92,1.92,0,0,0-1.95-1.88l-13.66.15a1.92,1.92,0,0,0-1.86,1.53,1.91,1.91,0,0,1,.56-.1L34.57,13a1.92,1.92,0,0,1,1.95,1.88c0,.47,0,1,0,1.6a1.92,1.92,0,0,1,0,.45A1.92,1.92,0,0,0,37.85,15C37.83,14.41,37.82,13.87,37.81,13.4Zm-4.06,8.8-5.1,0a1.92,1.92,0,0,1-1.93-1.91V19a1.92,1.92,0,0,1,0-.41,1.92,1.92,0,0,0-1.34,1.84v1.33a1.92,1.92,0,0,0,1.93,1.91l5.1,0a1.93,1.93,0,0,1,1.95,1.91V27a1.94,1.94,0,0,1,0,.41,1.92,1.92,0,0,0,1.34-1.84V24.12A1.93,1.93,0,0,0,33.75,22.21Z"/>
<rect class="cls-2" x="2.41" width="50.98" height="50.98" rx="13.28" ry="13.28"/>
<rect class="cls-3" x="4.95" y="1.41" width="45.97" height="45.97" rx="11.97" ry="11.97"/>
<path class="cls-4" d="M6.32,40.95a12,12,0,0,0,10.61,6.44h22a12,12,0,0,0,12-12v-22A11.9,11.9,0,0,0,49.08,7C42.33,36.91,21.22,41.48,6.32,40.95Z"/>
<path class="cls-5" d="M45.53,7.35a10.59,10.59,0,0,1,1.16,4.81V31.75A10.65,10.65,0,0,1,36,42.4H16.45A10.61,10.61,0,0,1,9,39.32a10.64,10.64,0,0,0,9.49,5.84H38A10.65,10.65,0,0,0,48.7,34.51V14.92A10.61,10.61,0,0,0,45.53,7.35Z"/>
<path class="cls-6" d="M9.72,34.35V15.3A10.36,10.36,0,0,1,20.08,4.95H39.13a10.31,10.31,0,0,1,3.56.64,10.31,10.31,0,0,0-6.48-2.28H17.16A10.36,10.36,0,0,0,6.81,13.66V32.71a10.35,10.35,0,0,0,6.8,9.72A10.33,10.33,0,0,1,9.72,34.35Z"/>
<path class="cls-7" d="M28.63,18.84,36,18.76A3.7,3.7,0,0,0,39.62,15l0-1.6a3.71,3.71,0,0,0-3.7-3.61h0L22.19,9.9a3.7,3.7,0,0,0-3.66,3.76c.15,9.3.2,18.3.21,21.73a3.69,3.69,0,0,0,3.69,3.67H25a3.7,3.7,0,0,0,3.69-3.74L28.6,29.4a.14.14,0,0,1,0-.11.15.15,0,0,1,.11,0h5a3.69,3.69,0,0,0,3.69-3.72V24.1a3.7,3.7,0,0,0-3.74-3.67l-5.09,0h0a.15.15,0,0,1-.15-.15V19A.15.15,0,0,1,28.63,18.84Z"/>
<path class="cls-10" d="M22.21,11.67l13.66-.15a1.92,1.92,0,0,1,1.95,1.88c0,.47,0,1,0,1.6A1.93,1.93,0,0,1,36,17l-7.34.08A1.92,1.92,0,0,0,26.7,19v1.33a1.92,1.92,0,0,0,1.93,1.91l5.1,0a1.93,1.93,0,0,1,1.95,1.91v1.41a1.92,1.92,0,0,1-1.93,1.94h-5a1.93,1.93,0,0,0-1.92,1.95l.08,5.91A1.93,1.93,0,0,1,25,37.28H22.45a1.92,1.92,0,0,1-1.93-1.91c0-3.77-.07-12.58-.22-21.75A1.93,1.93,0,0,1,22.21,11.67Z"/>
<path class="cls-11" d="M26.87,29a1.92,1.92,0,0,0-1.34,1.85l.08,5.91a1.92,1.92,0,0,1,0,.42,1.92,1.92,0,0,0,1.34-1.85l-.08-5.91A1.92,1.92,0,0,1,26.87,29ZM37.81,13.4a1.92,1.92,0,0,0-1.95-1.88l-13.66.15a1.92,1.92,0,0,0-1.86,1.53,1.91,1.91,0,0,1,.56-.1L34.57,13a1.92,1.92,0,0,1,1.95,1.88c0,.47,0,1,0,1.6a1.92,1.92,0,0,1,0,.45A1.92,1.92,0,0,0,37.85,15C37.83,14.41,37.82,13.87,37.81,13.4Zm-4.06,8.8-5.1,0a1.92,1.92,0,0,1-1.93-1.91V19a1.92,1.92,0,0,1,0-.41,1.92,1.92,0,0,0-1.34,1.84v1.33a1.92,1.92,0,0,0,1.93,1.91l5.1,0a1.93,1.93,0,0,1,1.95,1.91V27a1.94,1.94,0,0,1,0,.41,1.92,1.92,0,0,0,1.34-1.84V24.12A1.93,1.93,0,0,0,33.75,22.21Z"/>
</g>
</g>
</svg>