<svg xmlns="http://www.w3.org/2000/svg" viewBox="0 0 111.47 92.82">
	<defs>
		<style>.cls-1{opacity:0.12;}.cls-2,.cls-7{fill:#f00;}.cls-3{fill:#0b7196;}.cls-4{fill:#00007e;opacity:0.55;}.cls-5,.cls-6{fill:#820000;}.cls-5{opacity:0.2;}.cls-6{opacity:0.33;}.cls-7{opacity:0.6;}.cls-8{fill:#ff0000;}.cls-9{fill:#0000e1;}
		</style>
	</defs>
	<title>button_home_over</title>
	<g id="Layer_2" data-name="Layer 2">
		<g id="ButtonText">
			<path class="cls-1"
				d="M111.44,28.33h0a10.52,10.52,0,0,0-2.68-6.38c-5.06-6.26-12.53-8.9-21.62-7.65a40.4,40.4,0,0,0-8.12,2c.32-2.27.41-4.56-.11-5.7a5.64,5.64,0,0,0-.38-1C77.35,7.2,74.62,5.87,70.4,5.65,59.54,5.08,52.77,10,49,14.21a29.51,29.51,0,0,0-5.09,8,45.45,45.45,0,0,0-15.47-4.58c-6.42-.75-12.57-.17-17.32,1.63-5.19,2-8.72,5.4-10.2,9.89a12.36,12.36,0,0,0-.65,3.94C0,35.39,2.16,42.08,2.84,43.28c3,5.3,10.07,8.34,14.3,9.75L7.5,81.66a1.74,1.74,0,0,0-.33.84c-.19.69.89,5.53,1.08,6.1.36,1.07,1.65,2.17,8.54,3,6.46.8,16.59,1.2,30.17,1.2l5.3,0c15.31-.11,26.71-.86,33.9-2.24,5.44-1,8.32-2.38,9.08-4.22.16-.38,1.23-6,1-6.43a2.47,2.47,0,0,0-.66-1.6l-.09-.08c-5.43-4.41-7.57-11-8.41-15.67a39.27,39.27,0,0,1-.49-3.93c3-.21,8.66-1.27,10.27-6.21.62-1.88,1.47-5.71,1.16-7a4.77,4.77,0,0,0-.09-.58c4.82-1.76,10.34-4.65,11.91-8.93C110.32,34.64,111.71,29.69,111.44,28.33Z" />
			<path class="cls-2"
				d="M108.5,16.34C103.45,10.08,96,7.44,86.89,8.69A40.81,40.81,0,0,0,77.94,11C78.78,9,79.39,6.26,78.27,4S74.36.27,70.15,0C59.28-.53,52.51,4.39,48.75,8.61a29.51,29.51,0,0,0-5.09,8,45.45,45.45,0,0,0-15.47-4.58c-6.42-.75-12.57-.17-17.32,1.63-5.19,2-8.72,5.4-10.2,9.89a11.1,11.1,0,0,0,.8,9.3c3.66,6.46,13.25,9.64,16.75,10.61l-11,32.55A1.69,1.69,0,0,0,7,77.64c.37,1.09,1.68,2.22,8.72,3.08,6.6.81,16.95,1.22,30.81,1.22l5.41,0c15.63-.11,27.28-.88,34.63-2.29,5.56-1.07,8.5-2.43,9.27-4.31a2.44,2.44,0,0,0-.48-2.63l-.09-.08c-5.43-4.41-7.57-11-8.41-15.67a40.1,40.1,0,0,1-.58-8.35c2.76-.09,9.44-.9,11.23-6.38a5,5,0,0,0-.43-4.45,6.28,6.28,0,0,0-2.28-2c5.3-1.52,13.92-4.78,16-10.36C111.79,22.52,111,19.48,108.5,16.34Z" />
			<path class="cls-3"
				d="M107.4,21.47c-5-6.13-12.27-8.72-21.17-7.49a40,40,0,0,0-8.76,2.29c.82-2,2.25-9.08,1.15-11.31s-4.66.77-8.78.55C59.2,5,52.58,9.77,48.89,13.9a28.9,28.9,0,0,0-5,7.87,44.5,44.5,0,0,0-15.15-4.48c-6.29-.74-12.31-.17-17,1.6C6.72,20.82,1.54,22.77.09,27.17c-.58,1.76,1.78,9.23,2.5,10.51C6.18,44,15.56,47.12,19,48.07l-8.77,25.5L6.94,76.82C6.64,77.22,7.8,82.4,8,83c.36,1.07,1.65,2.17,8.54,3,6.46.8,16.59,1.2,30.17,1.2l5.3,0c15.31-.11,26.71-.86,33.9-2.24,5.44-1,8.32-2.38,9.08-4.22.16-.39,1.28-6.2,1-6.46l-2.88-1.82c-5.32-4.32-6.1-6.61-6.92-11.22a39.27,39.27,0,0,1-.57-8.17c2.7-.09,9.25-.88,11-6.25.67-2,1.62-6.37,1.06-7.23s-2.85,1.37-3.71.89c5.19-1.49,13.63-4.68,15.63-10.14.48-1.3,1.86-6.24,1.59-7.61C110.86,21.14,108.74,23.12,107.4,21.47Z" />
			<path class="cls-4"
				d="M111.18,22.72c-.32-1.59-2.44.4-3.78-1.25-5-6.13-12.27-8.72-21.17-7.49a40,40,0,0,0-8.76,2.29c.82-2,2.25-9.08,1.15-11.31-1-2-3.72,0-7.1.47A139.36,139.36,0,0,1,36.8,87.13q4.6.08,9.91.08l5.3,0c15.31-.11,26.71-.86,33.9-2.24,5.44-1,8.32-2.38,9.08-4.22.16-.39,1.28-6.2,1-6.46l-2.88-1.82c-5.32-4.32-6.1-6.61-6.92-11.22a39.27,39.27,0,0,1-.57-8.17c2.7-.09,9.25-.88,11-6.25.67-2,1.62-6.37,1.06-7.23a.43.43,0,0,0-.33-.2c4.89-1.75,10.64-4.68,12.25-9.06C110.07,29,111.46,24.09,111.18,22.72ZM94,40.47c.63-.18,1.31-.39,2-.62C95.22,40.25,94.41,40.72,94,40.47Z" />
			<path class="cls-2"
				d="M108.5,16.34C103.45,10.08,96,7.44,86.89,8.69A40.81,40.81,0,0,0,77.94,11C78.78,9,79.39,6.26,78.27,4S74.36.27,70.15,0C59.28-.53,52.51,4.39,48.75,8.61a29.51,29.51,0,0,0-5.09,8,45.45,45.45,0,0,0-15.47-4.58c-6.42-.75-12.57-.17-17.32,1.63-5.19,2-8.72,5.4-10.2,9.89a11.1,11.1,0,0,0,.8,9.3c3.66,6.46,13.25,9.64,16.75,10.61l-11,32.55A1.69,1.69,0,0,0,7,77.64c.37,1.09,1.68,2.22,8.72,3.08,6.6.81,16.95,1.22,30.81,1.22l5.41,0c15.63-.11,27.28-.88,34.63-2.29,5.56-1.07,8.5-2.43,9.27-4.31a2.44,2.44,0,0,0-.48-2.63l-.09-.08c-5.43-4.41-7.57-11-8.41-15.67a40.1,40.1,0,0,1-.58-8.35c2.76-.09,9.44-.9,11.23-6.38a5,5,0,0,0-.43-4.45,6.28,6.28,0,0,0-2.28-2c5.3-1.52,13.92-4.78,16-10.36C111.79,22.52,111,19.48,108.5,16.34Z" />
			<path class="cls-5"
				d="M90.32,35.52s7.79.83,6,6.25c-2,6-11.22,5.55-11.22,5.55s-1.74,17.12,9.37,26.15c0,0,6.83,6.83-42.57,7.17s-43.62-4-43.62-4l11.45-34s-22.45-5-18-18.69c4.62-14,29.29-13.24,42.48-5.6,0,0,5.68-18.18,25.8-17.12,13.19.69,5.21,12.26,5.21,12.26S95.88,2.55,107.56,17C118.22,30.2,90.32,35.52,90.32,35.52Z" />
			<path class="cls-5"
				d="M95.25,72.62c-5.43-4.41-7.57-11-8.41-15.67-.24-1.33-.39-2.6-.48-3.75-28.49,12.66-60,13-75.52,12.18L7.25,76.05A1.69,1.69,0,0,0,7,77.64c.37,1.09,1.68,2.22,8.72,3.08,6.6.81,16.95,1.22,30.81,1.22l5.41,0c15.63-.11,27.28-.88,34.63-2.29,5.56-1.07,8.5-2.43,9.27-4.31a2.44,2.44,0,0,0-.48-2.63Z" />
			<path class="cls-6"
				d="M20.34,40.67a2.25,2.25,0,0,0-1.74-2.38A41.37,41.37,0,0,1,11.88,36a26.37,26.37,0,0,1-6.21-3.7c1.62,2.32,4.57,4.46,8.61,6.25A42.72,42.72,0,0,0,20.34,40.67Zm53.47-27.1a2.24,2.24,0,0,1,.38-1c1-1.4,2.64-4.89,1.73-6.73a3.4,3.4,0,0,0-2.15-1.52c.12,1.91-1.19,4.53-2,5.7a2.25,2.25,0,0,0,2,3.52Zm32.76,5.31a18.81,18.81,0,0,0-2.22-2.32c1.6,2.06,2.1,3.85,1.51,5.47-.87,2.38-4.18,4.79-9.31,6.77a54.64,54.64,0,0,1-8.29,2.42,2.25,2.25,0,0,0,.18,4.45l.4.06a2.25,2.25,0,0,1,1.81-2,54.64,54.64,0,0,0,8.29-2.42c5.13-2,8.43-4.39,9.31-6.77C108.86,22.89,108.31,21,106.56,18.87ZM92.65,38.62a3.53,3.53,0,0,1-.09.35c-1.38,4.23-8.9,4-9,4a2.25,2.25,0,0,0-2.35,2,41.2,41.2,0,0,0,.54,10.31C83,62.37,86,68.19,90.38,72.21c-.88.49-2.88,1.3-7.3,2.06-7.2,1.24-18.25,1.91-32.83,2s-25.91-.2-33.34-.91c-2-.19-3.53-.39-4.73-.59l-.63,1.88a41.17,41.17,0,0,0,7.77,1.26c7.43.71,18.64,1,33.34.91s25.63-.78,32.83-2c4.42-.76,6.42-1.57,7.3-2.06-4.39-4-7.36-9.84-8.61-16.91a41.2,41.2,0,0,1-.54-10.31,2.25,2.25,0,0,1,2.35-2c.07,0,7.59.22,9-4,.31-1,.06-1.34,0-1.51A4.41,4.41,0,0,0,92.65,38.62Z" />
			<path class="cls-7"
				d="M89.89,37a2.25,2.25,0,0,0,2,2,9.21,9.21,0,0,1,1.57.34,1.13,1.13,0,0,0-.19-.63C92.68,37.77,91,37.21,89.89,37ZM22,41.58s-.37-.08-1-.25A2.24,2.24,0,0,1,21,42.39L9.9,75.32a23.6,23.6,0,0,0,3.17.69L23.68,44.49A2.25,2.25,0,0,0,22,41.58Zm81.16-25.91c-4.19-4-9.82-5.51-16.76-4.55a37.3,37.3,0,0,0-11,3.39,2.24,2.24,0,0,1-.6.21,2.25,2.25,0,0,0,3.3,1.89,37.3,37.3,0,0,1,11-3.39C94.7,12.45,99.4,13.28,103.21,15.67ZM69.06,2.5c-7.63-.4-13.9,2.09-18.65,7.41a25,25,0,0,0-4.89,8.13,2.25,2.25,0,0,1-3.27,1.28,40.9,40.9,0,0,0-15.37-4.82c-5.88-.69-11.45-.18-15.69,1.43s-7,4.22-8.15,7.75a7.68,7.68,0,0,0,.52,6.51,14.37,14.37,0,0,0,4.79,4.7,11.32,11.32,0,0,1-2.09-2.6,7.68,7.68,0,0,1-.52-6.51c1.16-3.52,3.9-6.13,8.15-7.75s9.81-2.12,15.69-1.43A40.9,40.9,0,0,1,45,21.43a2.25,2.25,0,0,0,3.27-1.28A25,25,0,0,1,53.11,12c4.75-5.32,11-7.82,18.65-7.41A13.74,13.74,0,0,1,74.43,5a2.32,2.32,0,0,0-.17-.47C73.54,3,71,2.61,69.06,2.5Z" />
			<path class="cls-8"
				d="M12.59,74.86s1.25,4.26,35.56,2.88S106,74.48,77.82,71.35,12.59,74.86,12.59,74.86Z" />
			<path class="cls-9"
				d="M11.9,74.49,22.51,41.32S2.67,36.94,5.32,25.2c0,0,.91-6.5,14.1-9.13,14.65-2.92,23.77,3,25.65,4.7,0,0,4.82-15.25,21.72-16C79,4.22,72.6,15.94,72.6,15.94S87.24,8.15,99.73,15s4,17.86-15.85,19.47c0,0,18.53-2.69,19.88-12.49s-23.1-9.67-33-3c0,0,4.51-12.1-4.43-12.36-6.21-.18-16.52,4.57-21,17.06,0,0-7.39-9.8-25.52-6S4.34,34.61,23,39.84l1.61-5.1s.35,3-1.77,10.89c-1.14,4.27-6.82,22.69-8.43,26.85,0,0,50.5-5.1,65-3.49s15,6.58,5.51,6c0,0,12.36-2-5.91-4.16S11.9,74.49,11.9,74.49Z" />
			<path class="cls-9"
				d="M11.9,74.49S11,76.64,27.34,76.78,80.93,76.51,86,74c0,0-71.21,3.92-71-.4Z" />
			<path class="cls-9"
				d="M84.29,29c-.12.3-1.14,4.2-2.07,9.24.35-.19.69-.36,1-.5C83.75,32.59,84.35,28.8,84.29,29Zm-.94,30.22c-.88-3.38-1-8.36-.74-13.3a5.2,5.2,0,0,1-1.47-.55,43,43,0,0,0-.07,12c1.69,9,6.16,11.91,6.43,12.08C87.33,69.27,85.64,68,83.35,59.18Z" />
			<path class="cls-9"
				d="M86.15,37.5s-5.06,1.57-4.36,4.75,7.46,3,10.72,0-2.94-7.1-7.58-3.18c0,0,3-3.93,6.79-1.88s3.85,6.75-4.24,8.2S78.46,39.7,86.15,37.5Z" />
			<path class="cls-9"
				d="M85.8,40.21c0,.85,0,1.79.08,2.72l-.66,0c0-.94,0-1.74,0-2.73-.27,0-.55,0-.86.09a2.18,2.18,0,0,0-.08-.6c.77-.08,1.38-.11,2.37-.2a3.76,3.76,0,0,0,.06.63ZM89.87,43c-.39,0-.64,0-.64,0a14.64,14.64,0,0,0,0-2.34c-.49.74-.82,1.27-.82,1.27-.2-.27-.53-.71-.94-1.29,0,.75,0,1.62,0,2.37a5.48,5.48,0,0,0-.69,0,22.31,22.31,0,0,0,0-3.3s.35,0,.75-.09a8.66,8.66,0,0,0,.86,1.32,9.32,9.32,0,0,0,.77-1.3,6.41,6.41,0,0,0,.71,0C89.82,40.67,89.9,41.94,89.87,43Z" />
			<path class="cls-2"
				d="M32.16,31.47l.6-.11c0,.45,0,.86-.06,1.23a2.66,2.66,0,0,0,1.86,2.9h0a3.46,3.46,0,0,0,.76.09,2.38,2.38,0,0,0,.87-.16l0,.3,1-.17c.47-.08,1.1-.15,1.1-.15l.73-.08v-.73c0-1.05-.05-2.18-.08-3.21A1.8,1.8,0,0,1,40,31c.12.23.29,1.15-.09,3.35l-.14.85.85.09a8.64,8.64,0,0,1,1.1.2l.91.23.09-.94v-.1a3.23,3.23,0,0,0,2.18.77l.38,0a4.18,4.18,0,0,0,3.35-2l.52-.77-.73-.35v-.08a3.23,3.23,0,0,0-.68-2.49,3.32,3.32,0,0,0-2.42-1.08,3.44,3.44,0,0,0-2.85,1.13,2.24,2.24,0,0,0-1.11-1.09,3.42,3.42,0,0,0-2.49-.07c0-1,0-1.8,0-2.49L39,25.14l-1,.25a8,8,0,0,1-1.21.17l-.84,0,.08.84c.07.75.14,1.45.19,2.12l-.54.05c0-.4.09-.77.12-1.1l.09-1.05-1,.2s-.66.13-1.14.17l-.78.07.06.78c0,.32,0,.75,0,1.2l-.66.08,0,.75a5.75,5.75,0,0,1,0,.72Zm3.69.6-.59-.15c0-.26,0-.52.06-.79h1q0,.53,0,1A4.19,4.19,0,0,1,35.85,32.07Z" />
			<path class="cls-2"
				d="M80,29.39l-1,.08c-.06,0-1.41.12-2.67.28l-.74.1,0,.75c.12,1.9.13,4.12.12,6.19A7,7,0,0,0,73,36.47a6.66,6.66,0,0,0-5.09,2.9,3.93,3.93,0,0,0-2.31-3.15h0a6.11,6.11,0,0,0-4.88.45V35.54l-1,.22a16.86,16.86,0,0,1-2,.31l-.83.07L57,37c0,.4.09.83.13,1.29a4.34,4.34,0,0,0-1-1.28,5.8,5.8,0,0,0-4.41-1.16h0a5.6,5.6,0,0,0-3.74,1.51,3.3,3.3,0,0,0-1.24-.93,6,6,0,0,0-5.05.22l0-.88-.94.11c-.06,0-1.43.17-2.39.39l-.69.16.07.71.05.54A6,6,0,0,0,33,36.45h0a6.56,6.56,0,0,0-2.2.66c-.06-2.65,0-4.74.06-6.51l.06-1.08-1.05.25a15.67,15.67,0,0,1-2.44.35l-.84,0,.08.84a97.55,97.55,0,0,1,.6,16l-.08,1,1-.18c.87-.16,2.1-.29,2.12-.3l.74-.08v-.2a8.68,8.68,0,0,0,2.15.24A6.15,6.15,0,0,0,37.17,46a5.86,5.86,0,0,0,1-1.17c0,.78,0,1.54,0,2.24v0c-.62.09-1.1.11-1.11.11l-.93,0,.09.93c.15,1.53.32,3.34.44,5.23a6.23,6.23,0,0,0-4.22-1.82,5.28,5.28,0,0,0-5.65,3.63A6.29,6.29,0,0,0,27.27,61a5.6,5.6,0,0,0,5,2.36h.18a6.06,6.06,0,0,0,4.39-1.73c0,.32,0,.63-.06.93l-.09,1.14,1.13-.19c.77-.13,1.77-.25,1.9-.26l.83-.1,0-.81c0-1.93-.1-4-.15-5.79a3.51,3.51,0,0,1,2.55-.78c.24.06,1,1.29.1,6.3l-.16.94.95.1a15.41,15.41,0,0,1,2,.35l1,.26.09-1c0-.24,0-.5.07-.77v-.06c0-.34.07-.69.1-1.06l.18.26a5.3,5.3,0,0,0,4.48,2.23l.64,0a7.08,7.08,0,0,0,5.47-3c.07.78.13,1.58.17,2.39l.05,1.17,1.11-.36,2.22-.7.77-.23L62,61.71c-.1-.53-.21-1.08-.32-1.65-.28-1.42-.6-3-.83-4.51h1.84a3.51,3.51,0,0,0,.18,1.05,3.69,3.69,0,0,0,2,2.18l.09,0-1.51.62-.7.27.22.71c.74,2.35,3.15,3.17,5.56,3.17A11.3,11.3,0,0,0,70,63.5h0c3-.42,4.9-2.11,5.07-4.52A3.16,3.16,0,0,0,74,56.13a2.94,2.94,0,0,0-.69-.42l1,0-.25-1c-.47-1.92-2.73-3.63-6.73-3.1a9.17,9.17,0,0,0-1.25.24v-.09a7,7,0,0,0-.64-4.22l1.15.14.8.11.17-1.26.12-.91a4.05,4.05,0,0,0,.74.81,5.92,5.92,0,0,0,4.94,1,8.92,8.92,0,0,0,2.17-.7s0,.1,0,.15v.71l.7.09c.05,0,1.29.17,2.13.24l.94.08L79.26,47a106.85,106.85,0,0,1,.6-16.69ZM60.71,50.29a1.38,1.38,0,0,1,.81-1h0a1.42,1.42,0,0,1,.32-.05c.1,0,.12,0,.15.05s.41.53.33,2.3l0,.41-1.74.18A9.12,9.12,0,0,1,60.71,50.29Zm-6.26,8.41a3.22,3.22,0,0,1-2.31,1.45,1.94,1.94,0,0,1-1.69-.71,2.53,2.53,0,0,1-.36-.52C51.42,58.81,53,58.74,54.45,58.71Zm-4.1-2.84a1.83,1.83,0,0,1,1.52-.76h0a1.92,1.92,0,0,1,1.76.71C52.34,55.82,51.32,55.84,50.36,55.86Zm18.11-1.3c1.28,0,1.49.68,1.59,1v0l-.74.18c-2,.59-2.67.3-2.81.19s-.13-.09-.13-.33.63-.89,1.43-1A4.71,4.71,0,0,1,68.47,54.56Zm.39,4.35c2-.53,2.46-.25,2.5-.22a.54.54,0,0,1,0,.31v0c0,1.07-1,1.37-1.88,1.43a2.56,2.56,0,0,1-2.67-1.27A7.48,7.48,0,0,0,68.86,58.91ZM63,46h0a4.65,4.65,0,0,0-.92-.09,5.3,5.3,0,0,0-1.16.13c0-1.44,0-3-.11-4.59q0-.59-.05-1.18a4.82,4.82,0,0,1,2.94-1.11c.44.1.68,1,.66,2.34a31.36,31.36,0,0,1-.61,4.72A5.13,5.13,0,0,0,63,46Zm-5.69,2h.49v-.08l.15,0A6.42,6.42,0,0,0,57,52v.18c0,.15,0,.3,0,.45l-.4,0-1.13.11.12.33a6,6,0,0,0-3.11-1,5.56,5.56,0,0,0-5.61,3.21,3.72,3.72,0,0,0-2-2.56,5,5,0,0,0-2-.43,6.18,6.18,0,0,0-2.54.57c0-2.08,0-3.67.05-5v-.24l.57-.11.73-.1,0-.73c-.09-2.1-.09-4.42-.07-6.28,1.26-1,2.35-1.34,2.84-1.18h0c.26.08.54.51.57,1.18l0,1,.93-.2s.26-.06.64-.11h1l.05.18.08-.17.37,0a3.94,3.94,0,0,0-.7.62,3.41,3.41,0,0,0-.83,2.65A3.93,3.93,0,0,0,48,47a5.66,5.66,0,0,0,3.69,1.2q.35,0,.72,0a10,10,0,0,0,1.73-.31l0,.16,1-.07s1-.06,1.82-.07V48Zm-5.51-4.72a4.26,4.26,0,0,1,.77-.06c.86,0,1.73.21,1.84.44a.63.63,0,0,1-.15.51,3,3,0,0,1-1.95.93c-.47,0-1.94.13-2-.59C50.19,43.51,51.75,43.22,51.83,43.21Zm.2-4.14h0a2.23,2.23,0,0,1,2.12,1A10.28,10.28,0,0,0,52,40a8.45,8.45,0,0,0-1.34.15A1.23,1.23,0,0,1,52,39.07ZM35.42,58l-.72-.24-.28.71a2.81,2.81,0,0,1-2.17,1.8,2,2,0,0,1-1.55-.69,3.7,3.7,0,0,1-.64-2.84c0-.2.3-2,1.88-2H32a1.72,1.72,0,0,1,1.85,1.52l.17,1,.95-.43a7.11,7.11,0,0,1,1.83-.47c0,.72,0,1.44.05,2.14C36.13,58.21,35.46,58,35.42,58ZM31.06,42.66a2.66,2.66,0,0,1,.67-2.1,2.47,2.47,0,0,1,1.82-.81h.06a2.27,2.27,0,0,1,1.66.6,2,2,0,0,1,.4,1.58A2.58,2.58,0,0,1,33,44.42,1.81,1.81,0,0,1,31.06,42.66Zm32.76,10.4c0-.18-.05-.3-.06-.33l0-.22H64l.5,0A4.32,4.32,0,0,0,63.82,53.06Zm7.3-9.22a1.88,1.88,0,0,1-.5-1.53,3,3,0,0,1,2.9-2.65h.17c.73,0,1.79.21,1.91,1.39a3,3,0,0,1-.66,2.19,3.1,3.1,0,0,1-2.14,1.14A2.07,2.07,0,0,1,71.11,43.84Z" />
			<path class="cls-9"
				d="M34.74,34.45a1.88,1.88,0,0,1-1.25-2.1c0-.63.07-1.42.12-2.2l-.56.08a6.64,6.64,0,0,0,0-.84l.59-.06a18.79,18.79,0,0,0,0-2c.53,0,1.22-.18,1.22-.18,0,.58-.15,1.31-.23,2.07l1.56-.16a8,8,0,0,0-.12,1c-.62,0-1.05,0-1.54,0a22.8,22.8,0,0,0-.15,2.48c0,.69.31,1.09.7,1.14s.56-.39.51-1.11a5,5,0,0,0,1.11.13C36.77,34.25,35.91,34.71,34.74,34.45Z" />
			<path class="cls-9"
				d="M40.69,34.25c.28-1.64.51-4-.45-4.25a2.69,2.69,0,0,0-2.13.7c0,1.22.07,2.46.1,3.63,0,0-.65.07-1.15.16a53,53,0,0,0-.32-8.41,8.79,8.79,0,0,0,1.36-.19c-.06,1.14,0,2.46,0,3.84a3,3,0,0,1,2.94-.5c1.47.65,1,3.51.87,5.23A9.47,9.47,0,0,0,40.69,34.25Z" />
			<path class="cls-9"
				d="M45.2,34.4a2.49,2.49,0,0,1-2.37-1,2.44,2.44,0,0,1-.19-2.56,2.54,2.54,0,0,1,2.64-1.56A2.26,2.26,0,0,1,47.61,32a37.21,37.21,0,0,0-4.17.17,1.73,1.73,0,0,0,.42.94,1.47,1.47,0,0,0,1.26.53,2.27,2.27,0,0,0,1.76-1.25s.58.21,1.07.44A3.39,3.39,0,0,1,45.2,34.4ZM45,30a1.53,1.53,0,0,0-1.5,1.3c.88,0,1.7,0,3,0C46.44,30.43,45.85,30,45,30Z" />
			<path class="cls-9"
				d="M33.11,37a5.67,5.67,0,0,0-3.05,1.33c-.09-2.89-.12-5.67,0-8a16.37,16.37,0,0,1-2.59.37,102.24,102.24,0,0,1,.61,16.18c.91-.16,2.17-.3,2.17-.3l0-.65a6.51,6.51,0,0,0,3,.61,5.27,5.27,0,0,0,5.2-5.39C38.47,38.29,36.72,36.63,33.11,37Zm3.36,4.76A3.34,3.34,0,0,1,33,45a2.62,2.62,0,0,1-2.75-2.47,3.37,3.37,0,0,1,3.36-3.8A2.6,2.6,0,0,1,36.46,41.74Zm15.29-5.39c-2.29.19-3.35,1.07-3.89,2.28a2.6,2.6,0,0,0-1.48-1.77,5.62,5.62,0,0,0-5.57.93c0-.49,0-1,0-1.42,0,0-1.38.16-2.31.37A90,90,0,0,1,39,46.87a17,17,0,0,1,1.84-.42c-.09-2.1-.09-4.45-.07-6.69,1.4-1.24,2.91-1.89,3.89-1.56A1.94,1.94,0,0,1,45.8,40.1a11.82,11.82,0,0,1,1.68-.22l0,.11a11,11,0,0,1,2.28.28A2.13,2.13,0,0,1,52.08,38a3,3,0,0,1,3.29,3A8.37,8.37,0,0,0,52,40.5c-1.66,0-4.83.77-4.57,3.52.16,1.94,2.05,3.38,4.94,3.12a7.3,7.3,0,0,0,2.77-.75c0,.16,0,.35-.07.54,0,0,1-.07,1.94-.07-.07-2,0-4.36-.09-6.46S55.67,36,51.75,36.35Zm.68,9.21c-1.4.14-2.77-.09-2.91-1.28s1.1-1.94,2.17-2.12,3.36-.07,3.54,1S53.94,45.37,52.43,45.56ZM65.27,36.7c-1.68-.68-3.85,0-5.39,1.12V36.28a17.65,17.65,0,0,1-2.12.33,46.15,46.15,0,0,1,.09,10.17l.76-.11A5.41,5.41,0,0,1,60.13,46c.06-2-.09-4.18-.18-6.42,1.1-.93,2.89-1.75,3.94-1.52,2,.47,1.19,5.13.61,8.28,0,0,1.24.12,2.24.26C67.27,42.65,68,37.84,65.27,36.7ZM79.07,30s-1.38.12-2.64.28c.14,2.21.14,4.8.12,7.51A5.68,5.68,0,0,0,73,37a5.49,5.49,0,0,0-5.32,5.46c0,3.26,2.54,4.45,5.53,3.92A6.78,6.78,0,0,0,76.39,45c0,.54,0,1.1,0,1.63,0,0,1.26.16,2.1.23A107.72,107.72,0,0,1,79.07,30Zm-6.2,14.9A2.65,2.65,0,0,1,69.81,42a3.8,3.8,0,0,1,3.66-3.38c1.07,0,2.73.3,2.91,2.1A3.86,3.86,0,0,1,72.87,44.91Z" />
			<path class="cls-9"
				d="M32.44,62.27a4.85,4.85,0,0,1-4.5-2,5.5,5.5,0,0,1-.37-5,4.51,4.51,0,0,1,4.83-3.1c2.73.26,4.1,1.52,4.57,3.15a8.34,8.34,0,0,0-2.29.56,2.51,2.51,0,0,0-2.61-2.19,2.78,2.78,0,0,0-2.8,2.66,4.48,4.48,0,0,0,.79,3.43,2.75,2.75,0,0,0,2.24,1,3.57,3.57,0,0,0,2.87-2.31,16.36,16.36,0,0,1,2.1.89A5.13,5.13,0,0,1,32.44,62.27Z" />
			<path class="cls-9"
				d="M44.54,53.22a4.16,4.16,0,0,0-1.71-.36A6,6,0,0,0,39.53,54c-.07-2.78-.06-4.77,0-6.43v-.12l-.12,0a15,15,0,0,1-2.32.33H37v.09a91.39,91.39,0,0,1,.54,14.45v.11l.11,0c.84-.14,2-.27,2-.27h.08v-.08c0-2.07-.11-4.27-.17-6.21a4.53,4.53,0,0,1,3.56-1.17c1.62.39,1.13,4.69.7,7.21l0,.09h.09a16.25,16.25,0,0,1,2.07.37l.1,0v-.1c0-.26.05-.54.08-.83C46.48,58.43,46.9,54.27,44.54,53.22Z" />
			<path class="cls-9"
				d="M52.32,62.16a4.64,4.64,0,0,1-4.41-1.87,4.54,4.54,0,0,1-.36-4.75,4.72,4.72,0,0,1,4.9-2.9c2.81.16,4.66,1.87,4.34,5a69.19,69.19,0,0,0-7.74.31,3.21,3.21,0,0,0,.79,1.76,2.72,2.72,0,0,0,2.34,1,4.23,4.23,0,0,0,3.26-2.32s1.08.38,2,.81A6.3,6.3,0,0,1,52.32,62.16ZM51.91,54a2.83,2.83,0,0,0-2.79,2.41c1.64-.07,3.15-.09,5.6-.09C54.61,54.78,53.51,54,51.91,54Z" />
			<path class="cls-9"
				d="M69.92,62.43c-2.5.33-5.41-.14-6.16-2.52C64.83,59.5,66,59,66,59a3.26,3.26,0,0,0,3.57,2c1.91-.14,2.61-1.17,2.64-2.22s-.56-1.68-3.54-.91-4.53-.42-5-1.8c-.54-1.61.4-3.5,3.8-3.92s5.46.86,5.85,2.5a8.46,8.46,0,0,0-2.5.4c-.4-1.26-1.47-1.73-3.12-1.49-1.14.16-2.15,1-2.12,1.82s.79,1.79,4,.89,4.92.07,4.76,2.4S72.25,62.11,69.92,62.43Z" />
			<path class="cls-9"
				d="M62.85,46.5a3.85,3.85,0,0,0-.76-.07,4.69,4.69,0,0,0-3.15,1.24c-.84.84-1.19,2.08-1.15,4v.06c0,.42,0,.86.08,1.31l-1.17.12h-.11l0,.11A7.1,7.1,0,0,1,57,54.76v.09h.09l.63-.09L58,54.7c.06.47.12,1,.18,1.47.23,1.85.5,3.94.6,6.15v.12l.11,0,2.24-.7.08,0,0-.08c-.1-.53-.21-1.07-.32-1.64-.34-1.71-.73-3.64-1-5.43.74,0,1.43,0,2.16,0h1.27l0-.11A15.27,15.27,0,0,1,63,52.58V52.5h-.08c-1.17.11-2.15.22-3.05.32a12,12,0,0,1,.11-3,2,2,0,0,1,1.93-1.68,1,1,0,0,1,.73.3c.43.46.62,1.43.55,2.89v.11h.11a6.85,6.85,0,0,1,.79,0,6.08,6.08,0,0,1,1.19.11l.1,0v-.1C65.47,49.17,65.4,47.07,62.85,46.5Z" />
			<path class="cls-5"
				d="M22.28,39a25,25,0,0,0,1.88-4s-12.69-2-16-8.64C8.2,26.38,5.54,34,22.28,39Z" />
			<path class="cls-5"
				d="M84.87,29.15l-.69,4.56s12.68-1.19,17.73-8.32C101.91,25.39,92.2,30.44,84.87,29.15Z" />
			<path class="cls-7"
				d="M9,24.5s3-5.35,16.44-6.74S44.36,24.4,44.36,24.4,33.26,18.36,9,24.5Z" />
			<path class="cls-7"
				d="M53.57,14.69S63.37,8.45,71,12.31c0,0,.54-5.5-8.12-4.46C57.13,8.55,53.57,14.69,53.57,14.69Z" />
			<path class="cls-7"
				d="M83.09,15.88s14.86.79,14.76,12.18c0,0,6.74-2.67,4.36-9.51S83.09,15.88,83.09,15.88Z" />
		</g>
	</g>
</svg>