<svg xmlns="http://www.w3.org/2000/svg" viewBox="0 0 62.58 60.4"><defs><style>.cls-1{opacity:0.12;}.cls-2,.cls-9{fill:#fff;}.cls-2,.cls-8{opacity:0.6;}.cls-3{fill:#63a1a8;opacity:0.7;}.cls-4,.cls-5{fill:#82b4b9;}.cls-4{opacity:0.2;}.cls-5{opacity:0.33;}.cls-6{fill:#4d949b;}.cls-7{fill:#32848c;}</style></defs><title>button_contact</title><g id="Layer_2" data-name="Layer 2"><g id="buttons"><path class="cls-1" d="M42.1,6H0V60.4H42.1a14.76,14.76,0,0,0,15-14.48V20.46A14.76,14.76,0,0,0,42.1,6Z"/><path class="cls-2" d="M47.58,1.23H0v50.6H47.58a12,12,0,0,0,12-12V13.23A12,12,0,0,0,47.58,1.23Z"/><path class="cls-3" d="M47.58,0H0V2.9H47.58a11.83,11.83,0,0,1,12,11.58V39.94a11.83,11.83,0,0,1-12,11.58H0v2.9H47.58a14.76,14.76,0,0,0,15-14.48V14.48A14.76,14.76,0,0,0,47.58,0Z"/><path class="cls-4" d="M0,42v9.82H47.58a12,12,0,0,0,12-12V13.43C54.87,30.28,35.12,38.5,0,42Z"/><path class="cls-2" d="M45.44,3.63H0V9.18H43.7A11.56,11.56,0,0,1,55.23,20.71L57,15.16A11.56,11.56,0,0,0,45.44,3.63Z"/><path class="cls-5" d="M51.65,6.48a10.8,10.8,0,0,1,1.07,4.67V34.83A11,11,0,0,1,41.8,45.75H0V50H45.42A11,11,0,0,0,56.34,39.11V15.43A10.92,10.92,0,0,0,51.65,6.48Z"/></g><g id="icons_Main"><path class="cls-2" d="M49,22.16C49,15.62,40,10.31,29,10.31S9.11,15.62,9.11,22.16,18,33.95,28.89,34v9.76l8-10.71C44,31.24,49,27,49,22.16Z"/><path class="cls-6" d="M46,22.42c0-5.3-7.49-9.59-16.74-9.59S12.5,17.13,12.5,22.42,20,32,29.24,32c.55,0,1.09,0,1.62,0v5.48l4.56-6.12C41.6,29.92,46,26.47,46,22.42Z"/><path class="cls-7" d="M29.24,12.83c-5.28,0-10,1.4-13,3.59a25.32,25.32,0,0,1,10.54-2.14c9.24,0,16.74,4.29,16.74,9.59,0,2.26-1.37,4.34-3.66,6C43.57,28.09,46,25.42,46,22.42,46,17.13,38.48,12.83,29.24,12.83Zm1.62,22.7v1.92l4.55-6.12a17.32,17.32,0,0,1-2,.77Z"/><path class="cls-7" d="M20.66,23.27c.34,0,.37-.79.65-.83,1.91-.28,2.63-.43,2.63-1.78,0-1.66-.55-2.44-1.55-2.44-1.33,0-1,.62-.78,2.53,0,.12-.6.74-.58.87s-.75.05-2.16.07c-.42-3,.44-5.11,3.68-5.11,2.5,0,3.67,1.81,3.67,3.89,0,2.38-1.28,3.25-3.39,3.63,0,.82,0,2.08,0,2.08-1.3,0-2.14,0-2.14,0C20.74,24.61,20.66,23.27,20.66,23.27ZM20.16,28a1.72,1.72,0,0,1,1.49-1.66c1,0,2.17.71,2.17,1.36s-1.07,1.44-2,1.44S20.16,28.69,20.16,28Z"/><path class="cls-7" d="M27.35,27.89a1.8,1.8,0,0,1,1.56-1.74c1,0,2.08.61,2.08,1.28S29.9,29,28.93,29,27.35,28.54,27.35,27.89Zm.39-10.38a3,3,0,0,1,.67-.84c.25-.15,1.18.85,1.69.84a67.44,67.44,0,0,1,.35,7.66c0,.16-.54.68-.54.84,0,0-.69,0-1.83,0C28.07,26,28,21.63,27.74,17.51Z"/><g class="cls-8"><path class="cls-9" d="M21.25,22.45c2.69-.12,3.27-1.07,3.27-2.61S24,17.4,23,17.4c-1.42,0-1.64,1.26-1.36,3.4,0,0-.75.05-2.16.07-.42-3,.47-4.55,3.72-4.55,2.5,0,3.63,1.26,3.63,3.33,0,2.38-1.28,3.25-3.39,3.63,0,.82,0,2.08,0,2.08-1.3,0-2.14,0-2.14,0C21.34,23.79,21.25,22.45,21.25,22.45Zm-.5,4.72c0-.64.69-1,1.58-1s1.58.42,1.58,1.07-.58,1.09-1.53,1.09S20.75,27.88,20.75,27.17Z"/><path class="cls-7" d="M33.47,23.27c.34,0,.37-.79.65-.83,1.91-.28,2.63-.43,2.63-1.78,0-1.66-.55-2.44-1.55-2.44-1.33,0-1,.62-.78,2.53,0,.12-.6.74-.58.87s-.75.05-2.16.07c-.42-3,.44-5.11,3.68-5.11,2.5,0,3.67,1.81,3.67,3.89,0,2.38-1.28,3.25-3.39,3.63,0,.82,0,2.08,0,2.08-1.3,0-2.14,0-2.14,0C33.55,24.61,33.47,23.27,33.47,23.27ZM33,28a1.72,1.72,0,0,1,1.49-1.66c1,0,2.17.71,2.17,1.36s-1.07,1.44-2,1.44S33,28.69,33,28Z"/><path class="cls-9" d="M34.06,22.45c2.69-.12,3.27-1.07,3.27-2.61s-.55-2.44-1.55-2.44c-1.42,0-1.64,1.26-1.36,3.4,0,0-.75.05-2.16.07-.42-3,.47-4.55,3.72-4.55,2.5,0,3.63,1.26,3.63,3.33,0,2.38-1.28,3.25-3.39,3.63,0,.82,0,2.08,0,2.08-1.3,0-2.14,0-2.14,0C34.15,23.79,34.06,22.45,34.06,22.45Zm-.5,4.72c0-.64.69-1,1.58-1s1.58.42,1.58,1.07-.58,1.09-1.53,1.09S33.56,27.88,33.56,27.17Z"/><path class="cls-9" d="M27.94,27.07c0-.67.64-1.05,1.58-1.05s1.58.44,1.58,1.1-.61,1-1.58,1S27.94,27.72,27.94,27.07Zm.39-10.38s.89,0,2.36,0c0,0-.11,4.62-.19,8.5,0,0-.69,0-1.83,0C28.66,25.18,28.55,20.81,28.33,16.7Z"/></g><path class="cls-7" d="M28.07,23.55"/></g></g></svg>